NunitoSans-XmaxBlack.ufo
<glyph name="dollar" format="2">
  <advance width="600.0"/>
  <unicode hex="0024"/>
  <outline>
    <contour>
      <point x="240.20481927710844" y="-115.0" type="line"/>
      <point x="378.51807228915663" y="-115.0" type="line"/>
      <point x="378.51807228915663" y="20.831325301204817" type="line"/>
      <point x="355.68674698795184" y="-3.36144578313253" type="line"/>
      <point x="491.2409638554217" y="13.46987951807229"/>
      <point x="584.8795180722891" y="96.21686746987952"/>
      <point x="584.8795180722891" y="216.40963855421688" type="curve" smooth="yes"/>
      <point x="584.8795180722891" y="318.96385542168673"/>
      <point x="523.8795180722891" y="383.07228915662654"/>
      <point x="397.7951807228916" y="411.0722891566265" type="curve" smooth="yes"/>
      <point x="285.4096385542168" y="435.9879518072289" type="line" smooth="yes"/>
      <point x="227.6265060240964" y="449.07228915662654"/>
      <point x="208.20481927710844" y="466.13253012048193"/>
      <point x="208.20481927710844" y="492.9759036144578" type="curve" smooth="yes"/>
      <point x="208.20481927710844" y="532.9036144578314"/>
      <point x="248.1566265060241" y="561.4939759036145"/>
      <point x="318.3855421686747" y="561.4939759036145" type="curve" smooth="yes"/>
      <point x="392.83132530120486" y="561.4939759036145"/>
      <point x="460.10843373493975" y="539.7710843373494"/>
      <point x="507.91566265060237" y="501.710843373494" type="curve"/>
      <point x="557.4096385542168" y="636.0240963855422" type="line"/>
      <point x="509.96385542168673" y="679.0"/>
      <point x="430.3253012048193" y="706.0"/>
      <point x="349.2168674698795" y="711.277108433735" type="curve"/>
      <point x="378.51807228915663" y="692.0843373493976" type="line"/>
      <point x="378.51807228915663" y="820.0" type="line"/>
      <point x="240.20481927710844" y="820.0" type="line"/>
      <point x="240.20481927710844" y="692.0843373493976" type="line"/>
      <point x="269.78313253012044" y="709.0" type="line"/>
      <point x="125.95180722891565" y="693.2530120481928"/>
      <point x="32.036144578313255" y="606.3373493975904"/>
      <point x="32.036144578313255" y="485.78313253012044" type="curve" smooth="yes"/>
      <point x="32.036144578313255" y="380.2289156626506"/>
      <point x="92.39759036144578" y="314.7590361445783"/>
      <point x="215.59036144578315" y="287.48192771084337" type="curve" smooth="yes"/>
      <point x="328.6144578313253" y="262.566265060241" type="line" smooth="yes"/>
      <point x="388.73493975903614" y="249.3975903614458"/>
      <point x="408.07228915662654" y="231.6987951807229"/>
      <point x="408.07228915662654" y="202.57831325301206" type="curve" smooth="yes"/>
      <point x="408.07228915662654" y="170.3734939759036"/>
      <point x="378.12048192771084" y="143.50602409638554"/>
      <point x="295.8072289156627" y="143.50602409638554" type="curve" smooth="yes"/>
      <point x="213.83132530120483" y="143.50602409638554"/>
      <point x="129.25301204819277" y="170.14457831325302"/>
      <point x="69.80722891566265" y="210.75903614457832" type="curve"/>
      <point x="19.313253012048197" y="68.25301204819277" type="line"/>
      <point x="79.3975903614458" y="24.638554216867472"/>
      <point x="171.95180722891567" y="-2.36144578313253"/>
      <point x="270.2289156626506" y="-6.63855421686747" type="curve"/>
      <point x="240.20481927710844" y="20.46987951807229" type="line"/>
    </contour>
  </outline>
</glyph>
<glyph name="parenleft" format="2">
  <advance width="406.53012048192767"/>
  <unicode hex="0028"/>
  <outline>
    <contour>
      <point x="255.24096385542168" y="-198.19277108433735" type="curve"/>
      <point x="371.53012048192767" y="-150.14457831325302" type="line"/>
      <point x="310.4457831325301" y="8.602409638554214"/>
      <point x="288.27710843373495" y="119.27710843373494"/>
      <point x="288.27710843373495" y="263.0" type="curve" smooth="yes"/>
      <point x="288.27710843373495" y="407.08433734939763"/>
      <point x="310.4457831325301" y="517.3975903614457"/>
      <point x="371.53012048192767" y="676.1445783132531" type="curve"/>
      <point x="255.24096385542168" y="724.1927710843373" type="line"/>
      <point x="139.0" y="579.1084337349397"/>
      <point x="97.44578313253012" y="424.91566265060237"/>
      <point x="97.44578313253012" y="263.0" type="curve" smooth="yes"/>
      <point x="97.44578313253012" y="101.44578313253012"/>
      <point x="139.0" y="-53.46987951807229"/>
    </contour>
  </outline>
</glyph>
<glyph name="parenright" format="2">
  <advance width="406.53012048192767"/>
  <unicode hex="0029"/>
  <outline>
    <contour>
      <point x="151.289156626506" y="-198.19277108433735" type="line"/>
      <point x="267.5301204819277" y="-53.46987951807229"/>
      <point x="309.08433734939763" y="101.44578313253012"/>
      <point x="309.08433734939763" y="263.0" type="curve" smooth="yes"/>
      <point x="309.08433734939763" y="424.55421686746985"/>
      <point x="267.5301204819277" y="579.1084337349398"/>
      <point x="151.289156626506" y="724.1927710843373" type="curve"/>
      <point x="35.0" y="676.1445783132531" type="line"/>
      <point x="95.0843373493976" y="516.0361445783133"/>
      <point x="117.6144578313253" y="405.72289156626505"/>
      <point x="117.6144578313253" y="263.0" type="curve" smooth="yes"/>
      <point x="117.6144578313253" y="120.27710843373494"/>
      <point x="95.0843373493976" y="9.963855421686745"/>
      <point x="35.0" y="-150.14457831325302" type="curve"/>
    </contour>
  </outline>
</glyph>
<glyph name="one" format="2">
  <advance width="600.0"/>
  <unicode hex="0031"/>
  <outline>
    <contour>
      <point x="90.48192771084337" y="0.0" type="line"/>
      <point x="576.9277108433735" y="0.0" type="line"/>
      <point x="576.9277108433735" y="149.42168674698794" type="line"/>
      <point x="430.48192771084337" y="149.42168674698794" type="line"/>
      <point x="430.48192771084337" y="705.0" type="line"/>
      <point x="300.53012048192767" y="705.0" type="line"/>
      <point x="61.15662650602408" y="568.7831325301205" type="line"/>
      <point x="128.39759036144576" y="435.8313253012048" type="line"/>
      <point x="331.2771084337349" y="551.6626506024096" type="line"/>
      <point x="246.92771084337346" y="551.6626506024096" type="line"/>
      <point x="246.92771084337346" y="149.42168674698794" type="line"/>
      <point x="90.48192771084337" y="149.42168674698794" type="line"/>
    </contour>
  </outline>
</glyph>
<glyph name="three" format="2">
  <advance width="600.0"/>
  <unicode hex="0033"/>
  <outline>
    <contour>
      <point x="278.9759036144578" y="-11.27710843373494" type="curve" smooth="yes"/>
      <point x="450.3855421686747" y="-11.27710843373494"/>
      <point x="555.0481927710844" y="67.36144578313252"/>
      <point x="555.0481927710844" y="196.19277108433735" type="curve" smooth="yes"/>
      <point x="555.0481927710844" y="290.55421686746985"/>
      <point x="499.04819277108436" y="357.5542168674699"/>
      <point x="405.6024096385542" y="372.91566265060237" type="curve"/>
      <point x="405.6024096385542" y="359.0" type="line"/>
      <point x="484.68674698795184" y="378.3614457831325"/>
      <point x="533.4096385542168" y="440.8072289156626"/>
      <point x="533.4096385542168" y="521.6144578313254" type="curve" smooth="yes"/>
      <point x="533.4096385542168" y="643.722891566265"/>
      <point x="440.3855421686747" y="716.277108433735"/>
      <point x="282.89156626506025" y="716.277108433735" type="curve" smooth="yes"/>
      <point x="188.69879518072287" y="716.277108433735"/>
      <point x="96.50602409638554" y="687.1927710843373"/>
      <point x="36.03614457831326" y="638.0240963855422" type="curve"/>
      <point x="92.72289156626506" y="503.710843373494" type="line"/>
      <point x="144.16867469879517" y="545.0481927710844"/>
      <point x="200.6144578313253" y="565.4939759036145"/>
      <point x="264.86746987951807" y="565.4939759036145" type="curve" smooth="yes"/>
      <point x="325.9036144578313" y="565.4939759036145"/>
      <point x="358.3253012048193" y="542.0722891566265"/>
      <point x="358.3253012048193" y="497.67469879518075" type="curve" smooth="yes"/>
      <point x="358.3253012048193" y="452.10843373493975"/>
      <point x="322.81927710843377" y="427.51807228915663"/>
      <point x="266.3373493975904" y="427.51807228915663" type="curve" smooth="yes"/>
      <point x="160.86746987951807" y="427.51807228915663" type="line"/>
      <point x="160.86746987951807" y="281.92771084337346" type="line"/>
      <point x="284.08433734939763" y="281.92771084337346" type="line" smooth="yes"/>
      <point x="346.73493975903614" y="281.92771084337346"/>
      <point x="379.96385542168673" y="260.7831325301205"/>
      <point x="379.96385542168673" y="213.57831325301206" type="curve" smooth="yes"/>
      <point x="379.96385542168673" y="164.3734939759036"/>
      <point x="343.8192771084337" y="139.50602409638554"/>
      <point x="272.4216867469879" y="139.50602409638554" type="curve" smooth="yes"/>
      <point x="203.89156626506025" y="139.50602409638554"/>
      <point x="138.89156626506022" y="160.2289156626506"/>
      <point x="80.72289156626506" y="201.20481927710844" type="curve"/>
      <point x="24.674698795180724" y="64.25301204819277" type="line"/>
      <point x="79.75903614457832" y="18.08433734939759"/>
      <point x="179.14457831325302" y="-11.27710843373494"/>
    </contour>
  </outline>
</glyph>
<glyph name="four" format="2">
  <advance width="600.0"/>
  <unicode hex="0034"/>
  <outline>
    <contour>
      <point x="317.0722891566265" y="0.0" type="line"/>
      <point x="494.2409638554217" y="0.0" type="line"/>
      <point x="494.2409638554217" y="118.03614457831326" type="line"/>
      <point x="585.5783132530121" y="118.03614457831326" type="line"/>
      <point x="585.5783132530121" y="257.2409638554217" type="line"/>
      <point x="494.2409638554217" y="257.2409638554217" type="line"/>
      <point x="494.2409638554217" y="705.0" type="line"/>
      <point x="346.09638554216866" y="705.0" type="line"/>
      <point x="30.50602409638554" y="246.5180722891566" type="line"/>
      <point x="30.50602409638554" y="118.03614457831326" type="line"/>
      <point x="317.0722891566265" y="118.03614457831326" type="line"/>
    </contour>
    <contour>
      <point x="317.0722891566265" y="257.2409638554217" type="line"/>
      <point x="160.51807228915663" y="257.2409638554217" type="line"/>
      <point x="160.51807228915663" y="213.66265060240966" type="line"/>
      <point x="344.7951807228916" y="486.86746987951807" type="line"/>
      <point x="317.0722891566265" y="486.86746987951807" type="line"/>
    </contour>
  </outline>
</glyph>
<glyph name="seven" format="2">
  <advance width="600.0"/>
  <unicode hex="0037"/>
  <outline>
    <contour>
      <point x="54.0722891566265" y="0.0" type="line"/>
      <point x="255.09638554216866" y="0.0" type="line"/>
      <point x="561.3253012048193" y="567.4939759036145" type="line"/>
      <point x="561.3253012048193" y="705.0" type="line"/>
      <point x="39.674698795180724" y="705.0" type="line"/>
      <point x="39.674698795180724" y="553.5783132530121" type="line"/>
      <point x="388.68674698795184" y="553.5783132530121" type="line"/>
      <point x="388.68674698795184" y="608.156626506024" type="line"/>
    </contour>
  </outline>
</glyph>
<glyph name="colon" format="2">
  <advance width="271.6265060240964"/>
  <unicode hex="003A"/>
  <outline>
    <contour>
      <point x="43.14457831325302" y="360.13253012048193" type="line"/>
      <point x="228.48192771084337" y="360.13253012048193" type="line"/>
      <point x="228.48192771084337" y="542.1927710843374" type="line"/>
      <point x="43.14457831325302" y="542.1927710843374" type="line"/>
    </contour>
    <contour>
      <point x="43.14457831325302" y="0.0" type="line"/>
      <point x="228.48192771084337" y="0.0" type="line"/>
      <point x="228.48192771084337" y="182.42168674698794" type="line"/>
      <point x="43.14457831325302" y="182.42168674698794" type="line"/>
    </contour>
  </outline>
</glyph>
<glyph name="semicolon" format="2">
  <advance width="271.6265060240964"/>
  <unicode hex="003B"/>
  <outline>
    <contour>
      <point x="127.13253012048193" y="-155.34939759036143" type="line"/>
      <point x="202.0963855421687" y="-80.74698795180723"/>
      <point x="228.48192771084337" y="-16.530120481927714"/>
      <point x="228.48192771084337" y="67.43373493975903" type="curve" smooth="yes"/>
      <point x="228.48192771084337" y="182.42168674698794" type="line"/>
      <point x="43.14457831325302" y="182.42168674698794" type="line"/>
      <point x="43.14457831325302" y="0.0" type="line"/>
      <point x="171.43373493975906" y="0.0" type="line"/>
      <point x="132.49397590361446" y="43.04819277108433" type="line"/>
      <point x="132.49397590361446" y="-9.530120481927714"/>
      <point x="111.4698795180723" y="-50.915662650602414"/>
      <point x="60.16867469879517" y="-101.93975903614458" type="curve"/>
    </contour>
    <contour>
      <point x="43.14457831325302" y="360.13253012048193" type="line"/>
      <point x="228.48192771084337" y="360.13253012048193" type="line"/>
      <point x="228.48192771084337" y="542.1927710843374" type="line"/>
      <point x="43.14457831325302" y="542.1927710843374" type="line"/>
    </contour>
  </outline>
</glyph>
<glyph name="equal" format="2">
  <advance width="600.0"/>
  <unicode hex="003D"/>
  <outline>
    <contour>
      <point x="56.0" y="327.6746987951807" type="line"/>
      <point x="544.0" y="327.6746987951807" type="line"/>
      <point x="544.0" y="446.3253012048193" type="line"/>
      <point x="56.0" y="446.3253012048193" type="line"/>
    </contour>
    <contour>
      <point x="56.0" y="128.03614457831327" type="line"/>
      <point x="544.0" y="128.03614457831327" type="line"/>
      <point x="544.0" y="246.32530120481925" type="line"/>
      <point x="56.0" y="246.32530120481925" type="line"/>
    </contour>
  </outline>
</glyph>
<glyph name="greater" format="2">
  <advance width="600.0"/>
  <unicode hex="003E"/>
  <outline>
    <contour>
      <point x="56.0" y="29.807228915662648" type="line"/>
      <point x="544.0" y="221.4819277108434" type="line"/>
      <point x="544.0" y="353.51807228915663" type="line"/>
      <point x="56.0" y="544.5542168674699" type="line"/>
      <point x="56.0" y="413.710843373494" type="line"/>
      <point x="500.6144578313253" y="243.22891566265062" type="line"/>
      <point x="500.6144578313253" y="330.13253012048193" type="line"/>
      <point x="56.0" y="159.65060240963857" type="line"/>
    </contour>
  </outline>
</glyph>
<glyph name="A" format="2">
  <advance width="762.5180722891566"/>
  <unicode hex="0041"/>
  <anchor x="381.9397590361446" y="0.0" name="bottom"/>
  <anchor x="718.0481927710844" y="0.0" name="ogonek"/>
  <anchor x="381.30120481927713" y="705.0" name="top"/>
  <outline>
    <contour>
      <point x="-20.710843373493972" y="0.0" type="line"/>
      <point x="162.9277108433735" y="0.0" type="line"/>
      <point x="245.65060240963854" y="193.53012048192772" type="line"/>
      <point x="175.04819277108433" y="142.56626506024097" type="line"/>
      <point x="587.4698795180723" y="142.56626506024097" type="line"/>
      <point x="516.867469879518" y="193.53012048192772" type="line"/>
      <point x="599.9518072289156" y="0.0" type="line"/>
      <point x="783.5903614457832" y="0.0" type="line"/>
      <point x="454.3734939759036" y="705.0" type="line"/>
      <point x="308.50602409638554" y="705.0" type="line"/>
    </contour>
    <contour>
      <point x="379.9397590361446" y="513.0" type="line"/>
      <point x="381.9397590361446" y="513.0" type="line"/>
      <point x="498.67469879518075" y="236.19277108433735" type="line"/>
      <point x="526.867469879518" y="284.1566265060241" type="line"/>
      <point x="235.65060240963857" y="284.1566265060241" type="line"/>
      <point x="264.2048192771084" y="236.19277108433735" type="line"/>
    </contour>
  </outline>
</glyph>
<glyph name="R" format="2">
  <advance width="706.433734939759"/>
  <unicode hex="0052"/>
  <anchor x="357.9397590361446" y="0.0" name="bottom"/>
  <anchor x="356.9397590361446" y="705.0" name="top"/>
  <outline>
    <contour>
      <point x="64.2289156626506" y="0.0" type="line"/>
      <point x="247.7831325301205" y="0.0" type="line"/>
      <point x="247.7831325301205" y="262.84337349397595" type="line"/>
      <point x="303.1927710843374" y="262.84337349397595" type="line" smooth="yes"/>
      <point x="334.6746987951807" y="262.84337349397595"/>
      <point x="359.92771084337346" y="252.3975903614458"/>
      <point x="375.6265060240964" y="224.36144578313252" type="curve" smooth="yes"/>
      <point x="498.26506024096386" y="0.0" type="line"/>
      <point x="699.9277108433735" y="0.0" type="line"/>
      <point x="590.2289156626506" y="200.39759036144576" type="line" smooth="yes"/>
      <point x="559.867469879518" y="255.48192771084337"/>
      <point x="516.0361445783133" y="282.7590361445783"/>
      <point x="459.48192771084337" y="282.7590361445783" type="curve" smooth="yes"/>
      <point x="411.15662650602405" y="282.7590361445783" type="line"/>
      <point x="403.43373493975906" y="265.20481927710847" type="line"/>
      <point x="563.1807228915662" y="265.20481927710847"/>
      <point x="653.7349397590361" y="348.3132530120482"/>
      <point x="653.7349397590361" y="484.4216867469879" type="curve" smooth="yes"/>
      <point x="653.7349397590361" y="621.8915662650603"/>
      <point x="562.9036144578314" y="705.0"/>
      <point x="403.43373493975906" y="705.0" type="curve" smooth="yes"/>
      <point x="64.2289156626506" y="705.0" type="line"/>
    </contour>
    <contour>
      <point x="247.7831325301205" y="392.96385542168673" type="line"/>
      <point x="247.7831325301205" y="563.7710843373494" type="line"/>
      <point x="369.9397590361446" y="563.7710843373494" type="line" smooth="yes"/>
      <point x="440.2289156626506" y="563.7710843373494"/>
      <point x="478.6506024096386" y="535.9879518072289"/>
      <point x="478.6506024096386" y="478.86746987951807" type="curve" smooth="yes"/>
      <point x="478.6506024096386" y="420.7469879518072"/>
      <point x="440.2289156626506" y="392.96385542168673"/>
      <point x="369.9397590361446" y="392.96385542168673" type="curve" smooth="yes"/>
    </contour>
  </outline>
</glyph>
<glyph name="S" format="2">
  <advance width="651.433734939759"/>
  <unicode hex="0053"/>
  <anchor x="330.6626506024096" y="0.0" name="bottom"/>
  <anchor x="337.7710843373494" y="705.0" name="top"/>
  <outline>
    <contour>
      <point x="326.3855421686747" y="-11.27710843373494" type="curve" smooth="yes"/>
      <point x="507.87951807228916" y="-11.27710843373494"/>
      <point x="624.8192771084338" y="78.83132530120483"/>
      <point x="624.8192771084338" y="216.04819277108433" type="curve" smooth="yes"/>
      <point x="624.8192771084338" y="318.6024096385542"/>
      <point x="561.4578313253012" y="382.34939759036143"/>
      <point x="432.0120481927711" y="410.34939759036143" type="curve" smooth="yes"/>
      <point x="315.9879518072289" y="435.26506024096386" type="line" smooth="yes"/>
      <point x="254.31325301204816" y="448.07228915662654"/>
      <point x="234.25301204819277" y="466.13253012048193"/>
      <point x="234.25301204819277" y="494.9759036144578" type="curve" smooth="yes"/>
      <point x="234.25301204819277" y="536.9036144578314"/>
      <point x="275.2048192771084" y="565.4939759036145"/>
      <point x="349.96385542168673" y="565.4939759036145" type="curve" smooth="yes"/>
      <point x="426.7710843373494" y="565.4939759036145"/>
      <point x="495.3253012048193" y="543.7710843373494"/>
      <point x="546.2168674698795" y="505.710843373494" type="curve"/>
      <point x="597.3493975903615" y="640.0240963855422" type="line"/>
      <point x="542.6265060240963" y="686.9156626506025"/>
      <point x="448.87951807228916" y="716.277108433735"/>
      <point x="352.2409638554217" y="716.277108433735" type="curve" smooth="yes"/>
      <point x="174.55421686746988" y="716.277108433735"/>
      <point x="54.253012048192765" y="624.8072289156627"/>
      <point x="54.253012048192765" y="486.144578313253" type="curve" smooth="yes"/>
      <point x="54.253012048192765" y="380.2289156626506"/>
      <point x="115.89156626506023" y="314.3975903614458"/>
      <point x="244.1686746987952" y="286.7590361445783" type="curve" smooth="yes"/>
      <point x="360.5542168674699" y="261.84337349397595" type="line" smooth="yes"/>
      <point x="423.3975903614458" y="248.6746987951807"/>
      <point x="444.81927710843377" y="231.33734939759034"/>
      <point x="444.81927710843377" y="201.3012048192771" type="curve" smooth="yes"/>
      <point x="444.81927710843377" y="166.3734939759036"/>
      <point x="413.50602409638554" y="139.50602409638554"/>
      <point x="326.3855421686747" y="139.50602409638554" type="curve" smooth="yes"/>
      <point x="242.04819277108433" y="139.50602409638554"/>
      <point x="154.4698795180723" y="166.14457831325302"/>
      <point x="92.66265060240964" y="206.75903614457832" type="curve"/>
      <point x="41.53012048192771" y="64.25301204819277" type="line"/>
      <point x="107.80722891566265" y="18.08433734939759"/>
      <point x="214.74698795180723" y="-11.27710843373494"/>
    </contour>
  </outline>
</glyph>
<glyph name="X" format="2">
  <advance width="698.1807228915663"/>
  <unicode hex="0058"/>
  <anchor x="350.4096385542168" y="0.0" name="bottom"/>
  <anchor x="348.7710843373494" y="705.0" name="top"/>
  <outline>
    <contour>
      <point x="-25.156626506024097" y="0.0" type="line"/>
      <point x="189.0602409638554" y="0.0" type="line"/>
      <point x="378.43373493975906" y="262.710843373494" type="line"/>
      <point x="319.7469879518072" y="262.710843373494" type="line"/>
      <point x="509.4819277108433" y="0.0" type="line"/>
      <point x="723.3373493975903" y="0.0" type="line"/>
      <point x="422.2048192771084" y="397.49397590361446" type="line"/>
      <point x="422.2048192771084" y="314.3975903614458" type="line"/>
      <point x="718.1686746987953" y="705.0" type="line"/>
      <point x="504.31325301204816" y="705.0" type="line"/>
      <point x="319.1927710843374" y="447.6265060240964" type="line"/>
      <point x="378.71084337349396" y="447.6265060240964" type="line"/>
      <point x="193.86746987951807" y="705.0" type="line"/>
      <point x="-18.987951807228914" y="705.0" type="line"/>
      <point x="276.3373493975904" y="314.3975903614458" type="line"/>
      <point x="276.3373493975904" y="397.49397590361446" type="line"/>
    </contour>
  </outline>
</glyph>
<glyph name="Z" format="2">
  <advance width="624.7951807228916"/>
  <unicode hex="005A"/>
  <anchor x="321.6626506024096" y="0.0" name="bottom"/>
  <anchor x="321.3012048192771" y="705.0" name="top"/>
  <outline>
    <contour>
      <point x="45.084337349397586" y="0.0" type="line"/>
      <point x="604.433734939759" y="0.0" type="line"/>
      <point x="604.433734939759" y="151.06024096385542" type="line"/>
      <point x="216.80722891566262" y="151.06024096385542" type="line"/>
      <point x="216.80722891566262" y="98.92771084337349" type="line"/>
      <point x="588.7951807228916" y="570.132530120482" type="line"/>
      <point x="588.7951807228916" y="705.0" type="line"/>
      <point x="45.084337349397586" y="705.0" type="line"/>
      <point x="45.084337349397586" y="553.9397590361446" type="line"/>
      <point x="417.0722891566265" y="553.9397590361446" type="line"/>
      <point x="417.0722891566265" y="606.433734939759" type="line"/>
      <point x="45.084337349397586" y="134.86746987951807" type="line"/>
    </contour>
  </outline>
</glyph>
<glyph name="a" format="2">
  <advance width="568.0722891566264"/>
  <unicode hex="0061"/>
  <anchor x="283.3012048192771" y="0.0" name="bottom"/>
  <anchor x="461.49397590361446" y="0.0" name="ogonek"/>
  <anchor x="287.9397590361446" y="484.0" name="top"/>
  <outline>
    <contour>
      <point x="223.710843373494" y="-11.457831325301205" type="curve" smooth="yes"/>
      <point x="299.24096385542174" y="-11.457831325301205"/>
      <point x="349.7710843373494" y="34.34939759036145"/>
      <point x="359.3975903614458" y="102.06024096385543" type="curve"/>
      <point x="353.3132530120482" y="102.06024096385543" type="line"/>
      <point x="353.3132530120482" y="0.0" type="line"/>
      <point x="518.843373493976" y="0.0" type="line"/>
      <point x="518.843373493976" y="331.6867469879518" type="line" smooth="yes"/>
      <point x="518.843373493976" y="483.5301204819277"/>
      <point x="439.1807228915663" y="553.4698795180723"/>
      <point x="282.7469879518073" y="553.4698795180723" type="curve" smooth="yes"/>
      <point x="200.72289156626508" y="553.4698795180723"/>
      <point x="99.77108433734941" y="526.0963855421687"/>
      <point x="46.95180722891567" y="486.9156626506024" type="curve"/>
      <point x="95.16867469879519" y="366.71084337349396" type="line"/>
      <point x="151.9879518072289" y="403.43373493975906"/>
      <point x="215.73493975903614" y="422.8915662650603"/>
      <point x="267.72289156626505" y="422.8915662650603" type="curve" smooth="yes"/>
      <point x="327.2409638554216" y="422.8915662650603"/>
      <point x="350.6746987951807" y="404.55421686746985"/>
      <point x="350.6746987951807" y="349.5301204819277" type="curve" smooth="yes"/>
      <point x="350.6746987951807" y="201.9879518072289" type="line" smooth="yes"/>
      <point x="350.6746987951807" y="145.06024096385542"/>
      <point x="312.5301204819277" y="110.46987951807228"/>
      <point x="267.67469879518075" y="110.46987951807228" type="curve" smooth="yes"/>
      <point x="225.08433734939757" y="110.46987951807228"/>
      <point x="200.3012048192771" y="134.71084337349396"/>
      <point x="200.3012048192771" y="171.20481927710844" type="curve" smooth="yes"/>
      <point x="200.3012048192771" y="213.24096385542168"/>
      <point x="233.91566265060243" y="237.1566265060241"/>
      <point x="325.39759036144585" y="237.1566265060241" type="curve" smooth="yes"/>
      <point x="368.2289156626506" y="237.1566265060241" type="line"/>
      <point x="368.2289156626506" y="328.02409638554224" type="line"/>
      <point x="322.578313253012" y="328.02409638554224" type="line" smooth="yes"/>
      <point x="103.6867469879518" y="328.02409638554224"/>
      <point x="29.590361445783138" y="275.4698795180723"/>
      <point x="29.590361445783138" y="166.74698795180723" type="curve" smooth="yes"/>
      <point x="29.590361445783138" y="69.46987951807229"/>
      <point x="104.40963855421685" y="-11.457831325301205"/>
    </contour>
  </outline>
</glyph>
<glyph name="b" format="2">
  <advance width="620.433734939759"/>
  <unicode hex="0062"/>
  <anchor x="304.44578313253015" y="0.0" name="bottom"/>
  <anchor x="321.3012048192771" y="705.0" name="top"/>
  <outline>
    <contour>
      <point x="377.1927710843373" y="-12.096385542168674" type="curve" smooth="yes"/>
      <point x="503.91566265060237" y="-12.096385542168674"/>
      <point x="591.3734939759036" y="91.63855421686748"/>
      <point x="591.3734939759036" y="271.27710843373495" type="curve" smooth="yes"/>
      <point x="591.3734939759036" y="450.27710843373495"/>
      <point x="504.73493975903614" y="553.4698795180723"/>
      <point x="377.1927710843373" y="553.4698795180723" type="curve" smooth="yes"/>
      <point x="303.03614457831327" y="553.4698795180723"/>
      <point x="237.95180722891564" y="513.7590361445783"/>
      <point x="217.40963855421688" y="452.1686746987952" type="curve"/>
      <point x="229.59036144578312" y="452.1686746987952" type="line"/>
      <point x="229.59036144578312" y="705.0" type="line"/>
      <point x="51.59036144578313" y="705.0" type="line"/>
      <point x="51.59036144578313" y="0.0" type="line"/>
      <point x="225.3132530120482" y="0.0" type="line"/>
      <point x="225.3132530120482" y="96.12048192771084" type="line"/>
      <point x="215.77108433734938" y="96.12048192771084" type="line"/>
      <point x="234.67469879518072" y="29.253012048192772"/>
      <point x="300.39759036144574" y="-12.096385542168674"/>
    </contour>
    <contour>
      <point x="319.6626506024096" y="121.75903614457832" type="curve" smooth="yes"/>
      <point x="263.18072289156623" y="121.75903614457832"/>
      <point x="226.95180722891567" y="163.89156626506025"/>
      <point x="226.95180722891567" y="271.27710843373495" type="curve" smooth="yes"/>
      <point x="226.95180722891567" y="378.8433734939759"/>
      <point x="263.18072289156623" y="420.43373493975906"/>
      <point x="319.6626506024096" y="420.43373493975906" type="curve" smooth="yes"/>
      <point x="376.6024096385542" y="420.43373493975906"/>
      <point x="412.3734939759036" y="378.8433734939759"/>
      <point x="412.3734939759036" y="271.27710843373495" type="curve" smooth="yes"/>
      <point x="412.3734939759036" y="163.89156626506025"/>
      <point x="376.6024096385542" y="121.75903614457832"/>
    </contour>
  </outline>
</glyph>
<glyph name="c" format="2">
  <advance width="484.13253012048193"/>
  <unicode hex="0063"/>
  <anchor x="290.0240963855422" y="0.0" name="bottom"/>
  <anchor x="290.0240963855422" y="484.0" name="top"/>
  <outline>
    <contour>
      <point x="303.13253012048193" y="-11.27710843373494" type="curve" smooth="yes"/>
      <point x="370.78313253012044" y="-11.27710843373494"/>
      <point x="439.3373493975904" y="9.626506024096384"/>
      <point x="481.15662650602405" y="46.69879518072289" type="curve"/>
      <point x="427.6626506024096" y="166.99999999999997" type="line"/>
      <point x="397.31325301204816" y="139.12048192771084"/>
      <point x="356.1445783132531" y="125.21686746987952"/>
      <point x="323.43373493975906" y="125.21686746987952" type="curve" smooth="yes"/>
      <point x="254.75903614457832" y="125.21686746987952"/>
      <point x="212.15662650602408" y="172.16867469879517"/>
      <point x="212.15662650602408" y="271.81927710843377" type="curve" smooth="yes"/>
      <point x="212.15662650602408" y="372.6506024096385"/>
      <point x="254.75903614457832" y="417.79518072289153"/>
      <point x="323.43373493975906" y="417.79518072289153" type="curve" smooth="yes"/>
      <point x="358.2289156626506" y="417.79518072289153"/>
      <point x="397.6746987951807" y="402.53012048192767"/>
      <point x="427.6626506024096" y="375.55421686746985" type="curve"/>
      <point x="481.15662650602405" y="495.49397590361446" type="line"/>
      <point x="439.87951807228916" y="532.2048192771084"/>
      <point x="371.86746987951807" y="553.4698795180723"/>
      <point x="302.95180722891564" y="553.4698795180723" type="curve" smooth="yes"/>
      <point x="143.0" y="553.4698795180723"/>
      <point x="29.060240963855424" y="455.00000000000006"/>
      <point x="29.060240963855424" y="273.0" type="curve" smooth="yes"/>
      <point x="29.060240963855424" y="91.0"/>
      <point x="142.0963855421687" y="-11.27710843373494"/>
    </contour>
  </outline>
</glyph>
<glyph name="e" format="2">
  <advance width="555.4096385542169"/>
  <unicode hex="0065"/>
  <anchor x="289.7469879518072" y="0.0" name="bottom"/>
  <anchor x="390.15662650602405" y="0.0" name="ogonek"/>
  <anchor x="289.7469879518072" y="484.0" name="top"/>
  <outline>
    <contour>
      <point x="324.5060240963855" y="-11.27710843373494" type="curve" smooth="yes"/>
      <point x="394.96385542168673" y="-11.27710843373494"/>
      <point x="476.43373493975906" y="13.72289156626506"/>
      <point x="525.9879518072289" y="57.25301204819277" type="curve"/>
      <point x="475.9518072289157" y="172.09638554216866" type="line"/>
      <point x="433.04819277108436" y="137.48192771084337"/>
      <point x="375.7710843373494" y="121.75903614457832"/>
      <point x="329.24096385542174" y="121.75903614457832" type="curve" smooth="yes"/>
      <point x="242.73493975903614" y="121.75903614457832"/>
      <point x="197.2289156626506" y="162.710843373494"/>
      <point x="197.2289156626506" y="270.09638554216866" type="curve" smooth="yes"/>
      <point x="197.2289156626506" y="284.10843373493975" type="line" smooth="yes"/>
      <point x="197.2289156626506" y="387.5060240963856"/>
      <point x="235.4578313253012" y="432.08433734939763"/>
      <point x="295.6626506024096" y="432.08433734939763" type="curve" smooth="yes"/>
      <point x="351.3253012048193" y="432.08433734939763"/>
      <point x="382.56626506024094" y="392.67469879518075"/>
      <point x="382.56626506024094" y="303.20481927710847" type="curve"/>
      <point x="399.56626506024094" y="322.3855421686747" type="line"/>
      <point x="177.95180722891567" y="322.3855421686747" type="line"/>
      <point x="177.95180722891567" y="231.51807228915663" type="line"/>
      <point x="530.3493975903615" y="231.51807228915663" type="line"/>
      <point x="530.3493975903615" y="272.43373493975906" type="line" smooth="yes"/>
      <point x="530.3493975903615" y="440.89156626506025"/>
      <point x="440.96385542168673" y="553.4698795180723"/>
      <point x="288.92771084337346" y="553.4698795180723" type="curve" smooth="yes"/>
      <point x="134.34939759036146" y="553.4698795180723"/>
      <point x="29.060240963855424" y="434.2650602409638"/>
      <point x="29.060240963855424" y="272.3734939759036" type="curve" smooth="yes"/>
      <point x="29.060240963855424" y="93.37349397590361"/>
      <point x="144.6385542168675" y="-11.27710843373494"/>
    </contour>
  </outline>
</glyph>
<glyph name="f" format="2">
  <advance width="401.6746987951807"/>
  <unicode hex="0066"/>
  <anchor x="182.710843373494" y="0.0" name="bottom"/>
  <anchor x="182.710843373494" y="595.0" name="top"/>
  <outline>
    <contour>
      <point x="93.53012048192771" y="0.0" type="line"/>
      <point x="271.5301204819277" y="0.0" type="line"/>
      <point x="271.5301204819277" y="411.15662650602405" type="line"/>
      <point x="395.5903614457831" y="411.15662650602405" type="line"/>
      <point x="395.5903614457831" y="542.1927710843374" type="line"/>
      <point x="242.04819277108433" y="542.1927710843374" type="line"/>
      <point x="257.6024096385542" y="483.6867469879517" type="line"/>
      <point x="257.6024096385542" y="528.6144578313252" type="line" smooth="yes"/>
      <point x="257.6024096385542" y="568.3855421686748"/>
      <point x="279.3132530120482" y="586.5301204819277"/>
      <point x="364.2168674698795" y="592.8072289156626" type="curve" smooth="yes"/>
      <point x="418.86746987951807" y="597.2650602409639" type="line"/>
      <point x="412.5903614457832" y="711.277108433735" type="line"/>
      <point x="352.1927710843374" y="708.6385542168674" type="line" smooth="yes"/>
      <point x="165.19277108433735" y="700.1807228915662"/>
      <point x="93.53012048192771" y="625.6144578313254"/>
      <point x="93.53012048192771" y="495.20481927710847" type="curve" smooth="yes"/>
      <point x="93.53012048192771" y="465.2048192771084" type="line"/>
      <point x="145.49397590361446" y="542.1927710843374" type="line"/>
      <point x="1.4457831325301207" y="542.1927710843374" type="line"/>
      <point x="1.4457831325301207" y="411.15662650602405" type="line"/>
      <point x="93.53012048192771" y="411.15662650602405" type="line"/>
    </contour>
  </outline>
</glyph>
<glyph name="g" format="2">
  <advance width="625.710843373494"/>
  <unicode hex="0067"/>
  <anchor x="311.5783132530121" y="484.0" name="top"/>
  <outline>
    <contour>
      <point x="294.73493975903614" y="-191.27710843373492" type="curve" smooth="yes"/>
      <point x="475.3493975903615" y="-191.27710843373492"/>
      <point x="574.1204819277109" y="-105.53012048192771"/>
      <point x="574.1204819277109" y="65.60240963855422" type="curve" smooth="yes"/>
      <point x="574.1204819277109" y="542.1927710843374" type="line"/>
      <point x="400.3975903614458" y="542.1927710843374" type="line"/>
      <point x="400.3975903614458" y="455.26506024096386" type="line"/>
      <point x="407.9397590361446" y="455.26506024096386" type="line"/>
      <point x="387.93975903614455" y="515.3975903614459"/>
      <point x="322.855421686747" y="553.4698795180723"/>
      <point x="247.69879518072287" y="553.4698795180723" type="curve" smooth="yes"/>
      <point x="116.51807228915662" y="553.4698795180723"/>
      <point x="29.060240963855424" y="452.9156626506024"/>
      <point x="29.060240963855424" y="282.9156626506024" type="curve" smooth="yes"/>
      <point x="29.060240963855424" y="110.4578313253012"/>
      <point x="116.51807228915662" y="12.63855421686747"/>
      <point x="247.69879518072287" y="12.63855421686747" type="curve" smooth="yes"/>
      <point x="322.67469879518075" y="12.63855421686747"/>
      <point x="389.578313253012" y="51.53012048192771"/>
      <point x="409.5783132530121" y="114.12048192771086" type="curve"/>
      <point x="401.03614457831327" y="114.12048192771086" type="line"/>
      <point x="401.03614457831327" y="45.493975903614455" type="line" smooth="yes"/>
      <point x="401.03614457831327" y="-27.096385542168676"/>
      <point x="360.50602409638554" y="-59.87951807228916"/>
      <point x="277.710843373494" y="-59.87951807228916" type="curve" smooth="yes"/>
      <point x="215.63855421686748" y="-59.87951807228916"/>
      <point x="141.6024096385542" y="-41.87951807228916"/>
      <point x="90.0722891566265" y="-10.626506024096386" type="curve"/>
      <point x="44.49397590361446" y="-131.4698795180723" type="line"/>
      <point x="106.40963855421688" y="-173.19277108433735"/>
      <point x="195.07228915662648" y="-191.27710843373492"/>
    </contour>
    <contour>
      <point x="303.4096385542168" y="146.49397590361448" type="curve" smooth="yes"/>
      <point x="243.65060240963857" y="146.49397590361448"/>
      <point x="208.06024096385542" y="189.26506024096386"/>
      <point x="208.06024096385542" y="283.73493975903614" type="curve" smooth="yes"/>
      <point x="208.06024096385542" y="378.2048192771084"/>
      <point x="243.65060240963857" y="420.43373493975906"/>
      <point x="303.4096385542168" y="420.43373493975906" type="curve" smooth="yes"/>
      <point x="363.1686746987952" y="420.43373493975906"/>
      <point x="398.7590361445783" y="378.2048192771084"/>
      <point x="398.7590361445783" y="283.73493975903614" type="curve" smooth="yes"/>
      <point x="398.7590361445783" y="189.26506024096386"/>
      <point x="363.1686746987952" y="146.49397590361448"/>
    </contour>
  </outline>
</glyph>
<glyph name="h" format="2">
  <advance width="606.0722891566265"/>
  <unicode hex="0068"/>
  <anchor x="304.855421686747" y="0.0" name="bottom"/>
  <anchor x="304.855421686747" y="274.27710843373495" name="center"/>
  <anchor x="366.2168674698795" y="386.90361445783134" name="dot"/>
  <anchor x="190.7710843373494" y="592.4698795180723" name="stroke"/>
  <anchor x="304.2168674698795" y="705.0" name="top"/>
  <anchor x="251.9277108433735" y="705.0" name="topright"/>
  <outline>
    <contour>
      <point x="51.59036144578313" y="0.0" type="line"/>
      <point x="229.59036144578312" y="0.0" type="line"/>
      <point x="229.59036144578312" y="316.7228915662651" type="line" smooth="yes"/>
      <point x="229.59036144578312" y="377.10843373493975"/>
      <point x="264.6385542168675" y="416.33734939759034"/>
      <point x="317.8433734939759" y="416.33734939759034" type="curve" smooth="yes"/>
      <point x="357.86746987951807" y="416.33734939759034"/>
      <point x="378.84337349397595" y="392.09638554216866"/>
      <point x="378.84337349397595" y="331.25301204819283" type="curve" smooth="yes"/>
      <point x="378.84337349397595" y="0.0" type="line"/>
      <point x="556.843373493976" y="0.0" type="line"/>
      <point x="556.843373493976" y="337.0722891566265" type="line" smooth="yes"/>
      <point x="556.843373493976" y="483.09638554216866"/>
      <point x="500.0240963855422" y="553.4698795180723"/>
      <point x="384.02409638554224" y="553.4698795180723" type="curve" smooth="yes"/>
      <point x="308.4939759036144" y="553.4698795180723"/>
      <point x="245.6867469879518" y="517.3012048192771"/>
      <point x="215.95180722891564" y="453.144578313253" type="curve"/>
      <point x="229.59036144578312" y="453.144578313253" type="line"/>
      <point x="229.59036144578312" y="705.0" type="line"/>
      <point x="51.59036144578313" y="705.0" type="line"/>
    </contour>
  </outline>
</glyph>
<glyph name="l" format="2">
  <advance width="347.73493975903614"/>
  <unicode hex="006C"/>
  <anchor x="199.02409638554215" y="0.0" name="bottom"/>
  <anchor x="150.40963855421685" y="395.0" name="center"/>
  <anchor x="369.1084337349398" y="395.0" name="dot"/>
  <anchor x="140.40963855421685" y="705.0" name="top"/>
  <anchor x="263.2048192771084" y="705.0" name="topright"/>
  <outline>
    <contour>
      <point x="246.49397590361446" y="-11.27710843373494" type="curve" smooth="yes"/>
      <point x="277.87951807228916" y="-11.27710843373494"/>
      <point x="305.9879518072289" y="-7.63855421686747"/>
      <point x="333.1807228915663" y="0.27710843373493965" type="curve"/>
      <point x="334.5421686746988" y="136.3132530120482" type="line"/>
      <point x="321.81927710843377" y="132.95180722891567"/>
      <point x="307.8192771084337" y="131.95180722891564"/>
      <point x="294.09638554216866" y="131.95180722891564" type="curve" smooth="yes"/>
      <point x="250.12048192771084" y="131.95180722891564"/>
      <point x="229.59036144578312" y="157.2048192771084"/>
      <point x="229.59036144578312" y="201.51807228915663" type="curve" smooth="yes"/>
      <point x="229.59036144578312" y="705.0" type="line"/>
      <point x="51.59036144578313" y="705.0" type="line"/>
      <point x="51.59036144578313" y="196.1566265060241" type="line" smooth="yes"/>
      <point x="51.59036144578313" y="57.192771084337345"/>
      <point x="109.42168674698796" y="-11.27710843373494"/>
    </contour>
  </outline>
</glyph>
<glyph name="m" format="2">
  <advance width="901.9036144578314"/>
  <unicode hex="006D"/>
  <anchor x="452.13253012048193" y="0.0" name="bottom"/>
  <anchor x="452.13253012048193" y="484.0" name="top"/>
  <outline>
    <contour>
      <point x="53.59036144578313" y="0.0" type="line"/>
      <point x="231.59036144578312" y="0.0" type="line"/>
      <point x="231.59036144578312" y="314.26506024096386" type="line" smooth="yes"/>
      <point x="231.59036144578312" y="378.92771084337346"/>
      <point x="260.2771084337349" y="416.33734939759034"/>
      <point x="307.3975903614458" y="416.33734939759034" type="curve" smooth="yes"/>
      <point x="345.33734939759034" y="416.33734939759034"/>
      <point x="362.9518072289157" y="393.09638554216866"/>
      <point x="362.9518072289157" y="332.71084337349396" type="curve" smooth="yes"/>
      <point x="362.9518072289157" y="0.0" type="line"/>
      <point x="540.9518072289156" y="0.0" type="line"/>
      <point x="540.9518072289156" y="314.26506024096386" type="line" smooth="yes"/>
      <point x="540.9518072289156" y="378.92771084337346"/>
      <point x="570.0" y="416.33734939759034"/>
      <point x="616.7590361445782" y="416.33734939759034" type="curve" smooth="yes"/>
      <point x="655.0602409638554" y="416.33734939759034"/>
      <point x="672.6746987951807" y="393.09638554216866"/>
      <point x="672.6746987951807" y="332.71084337349396" type="curve" smooth="yes"/>
      <point x="672.6746987951807" y="0.0" type="line"/>
      <point x="850.6746987951807" y="0.0" type="line"/>
      <point x="850.6746987951807" y="337.0722891566265" type="line" smooth="yes"/>
      <point x="850.6746987951807" y="483.4578313253012"/>
      <point x="797.6746987951807" y="553.4698795180723"/>
      <point x="682.6626506024096" y="553.4698795180723" type="curve" smooth="yes"/>
      <point x="603.8554216867469" y="553.4698795180723"/>
      <point x="534.3975903614457" y="507.6626506024096"/>
      <point x="507.38554216867476" y="435.7590361445783" type="curve"/>
      <point x="529.3975903614459" y="435.7590361445783" type="line"/>
      <point x="507.66265060240966" y="519.0240963855422"/>
      <point x="453.74698795180717" y="553.4698795180723"/>
      <point x="377.2168674698795" y="553.4698795180723" type="curve" smooth="yes"/>
      <point x="303.5903614457831" y="553.4698795180723"/>
      <point x="245.04819277108433" y="515.4819277108434"/>
      <point x="217.95180722891564" y="453.144578313253" type="curve"/>
      <point x="227.49397590361443" y="453.144578313253" type="line"/>
      <point x="227.49397590361443" y="542.1927710843374" type="line"/>
      <point x="53.59036144578313" y="542.1927710843374" type="line"/>
    </contour>
  </outline>
</glyph>
<glyph name="n" format="2">
  <advance width="606.0722891566265"/>
  <unicode hex="006E"/>
  <anchor x="304.855421686747" y="0.0" name="bottom"/>
  <anchor x="304.855421686747" y="484.0" name="top"/>
  <outline>
    <contour>
      <point x="51.59036144578313" y="0.0" type="line"/>
      <point x="229.59036144578312" y="0.0" type="line"/>
      <point x="229.59036144578312" y="316.7228915662651" type="line" smooth="yes"/>
      <point x="229.59036144578312" y="377.10843373493975"/>
      <point x="264.6385542168675" y="416.33734939759034"/>
      <point x="317.8433734939759" y="416.33734939759034" type="curve" smooth="yes"/>
      <point x="357.86746987951807" y="416.33734939759034"/>
      <point x="378.84337349397595" y="392.09638554216866"/>
      <point x="378.84337349397595" y="331.25301204819283" type="curve" smooth="yes"/>
      <point x="378.84337349397595" y="0.0" type="line"/>
      <point x="556.843373493976" y="0.0" type="line"/>
      <point x="556.843373493976" y="337.0722891566265" type="line" smooth="yes"/>
      <point x="556.843373493976" y="483.27710843373495"/>
      <point x="500.0240963855422" y="553.4698795180723"/>
      <point x="384.02409638554224" y="553.4698795180723" type="curve" smooth="yes"/>
      <point x="308.4939759036144" y="553.4698795180723"/>
      <point x="245.86746987951807" y="517.4819277108434"/>
      <point x="215.95180722891564" y="453.144578313253" type="curve"/>
      <point x="225.49397590361443" y="453.144578313253" type="line"/>
      <point x="225.49397590361443" y="542.1927710843374" type="line"/>
      <point x="51.59036144578313" y="542.1927710843374" type="line"/>
    </contour>
  </outline>
</glyph>
<glyph name="o" format="2">
  <advance width="601.5421686746988"/>
  <unicode hex="006F"/>
  <anchor x="300.7710843373494" y="0.0" name="bottom"/>
  <anchor x="300.7710843373494" y="271.27710843373495" name="center"/>
  <anchor x="359.7710843373494" y="0.0" name="ogonek"/>
  <anchor x="300.7710843373494" y="484.0" name="top"/>
  <anchor x="368.07228915662654" y="533.1807228915662" name="topright"/>
  <outline>
    <contour>
      <point x="300.7710843373494" y="-11.27710843373494" type="curve" smooth="yes"/>
      <point x="464.3614457831325" y="-11.27710843373494"/>
      <point x="572.4819277108434" y="93.09638554216868"/>
      <point x="572.4819277108434" y="271.27710843373495" type="curve" smooth="yes"/>
      <point x="572.4819277108434" y="450.09638554216866"/>
      <point x="464.3614457831325" y="553.4698795180723"/>
      <point x="300.7710843373494" y="553.4698795180723" type="curve" smooth="yes"/>
      <point x="137.0" y="553.4698795180723"/>
      <point x="29.060240963855424" y="450.09638554216866"/>
      <point x="29.060240963855424" y="271.27710843373495" type="curve" smooth="yes"/>
      <point x="29.060240963855424" y="93.09638554216868"/>
      <point x="137.0" y="-11.27710843373494"/>
    </contour>
    <contour>
      <point x="300.7710843373494" y="121.75903614457832" type="curve" smooth="yes"/>
      <point x="244.289156626506" y="121.75903614457832"/>
      <point x="208.06024096385542" y="163.89156626506025"/>
      <point x="208.06024096385542" y="271.27710843373495" type="curve" smooth="yes"/>
      <point x="208.06024096385542" y="378.8433734939759"/>
      <point x="244.289156626506" y="420.43373493975906"/>
      <point x="300.7710843373494" y="420.43373493975906" type="curve" smooth="yes"/>
      <point x="357.710843373494" y="420.43373493975906"/>
      <point x="393.48192771084337" y="378.8433734939759"/>
      <point x="393.48192771084337" y="271.27710843373495" type="curve" smooth="yes"/>
      <point x="393.48192771084337" y="163.89156626506025"/>
      <point x="357.710843373494" y="121.75903614457832"/>
    </contour>
  </outline>
</glyph>
<glyph name="q" format="2">
  <advance width="620.433734939759"/>
  <unicode hex="0071"/>
  <anchor x="312.7710843373494" y="0.0" name="bottom"/>
  <anchor x="312.7710843373494" y="484.0" name="top"/>
  <outline>
    <contour>
      <point x="390.84337349397595" y="-180.0" type="line"/>
      <point x="568.843373493976" y="-180.0" type="line"/>
      <point x="568.843373493976" y="542.1927710843374" type="line"/>
      <point x="395.12048192771084" y="542.1927710843374" type="line"/>
      <point x="395.12048192771084" y="446.6144578313253" type="line"/>
      <point x="404.30120481927713" y="446.6144578313253" type="line"/>
      <point x="385.5783132530121" y="512.9397590361446"/>
      <point x="319.855421686747" y="553.4698795180723"/>
      <point x="243.42168674698792" y="553.4698795180723" type="curve" smooth="yes"/>
      <point x="116.69879518072288" y="553.4698795180723"/>
      <point x="29.060240963855424" y="451.0963855421687"/>
      <point x="29.060240963855424" y="271.27710843373495" type="curve" smooth="yes"/>
      <point x="29.060240963855424" y="92.45783132530121"/>
      <point x="116.51807228915662" y="-11.27710843373494"/>
      <point x="243.42168674698792" y="-11.27710843373494" type="curve" smooth="yes"/>
      <point x="317.5783132530121" y="-11.27710843373494"/>
      <point x="382.30120481927713" y="28.6144578313253"/>
      <point x="402.66265060240966" y="90.3855421686747" type="curve"/>
      <point x="390.84337349397595" y="90.3855421686747" type="line"/>
    </contour>
    <contour>
      <point x="300.7710843373494" y="121.75903614457832" type="curve" smooth="yes"/>
      <point x="244.289156626506" y="121.75903614457832"/>
      <point x="208.06024096385542" y="163.89156626506025"/>
      <point x="208.06024096385542" y="271.27710843373495" type="curve" smooth="yes"/>
      <point x="208.06024096385542" y="378.8433734939759"/>
      <point x="244.289156626506" y="420.43373493975906"/>
      <point x="300.7710843373494" y="420.43373493975906" type="curve" smooth="yes"/>
      <point x="357.710843373494" y="420.43373493975906"/>
      <point x="393.48192771084337" y="378.8433734939759"/>
      <point x="393.48192771084337" y="271.27710843373495" type="curve" smooth="yes"/>
      <point x="393.48192771084337" y="163.89156626506025"/>
      <point x="357.710843373494" y="121.75903614457832"/>
    </contour>
  </outline>
</glyph>
<glyph name="r" format="2">
  <advance width="433.50602409638554"/>
  <unicode hex="0072"/>
  <anchor x="142.04819277108433" y="0.0" name="bottom"/>
  <anchor x="241.04819277108433" y="484.0" name="top"/>
  <outline>
    <contour>
      <point x="51.59036144578313" y="0.0" type="line"/>
      <point x="232.86746987951807" y="0.0" type="line"/>
      <point x="232.86746987951807" y="284.2048192771084" type="line" smooth="yes"/>
      <point x="232.86746987951807" y="357.6265060240964"/>
      <point x="265.1084337349397" y="389.95180722891564"/>
      <point x="342.3493975903614" y="397.6746987951807" type="curve" smooth="yes"/>
      <point x="431.06024096385545" y="407.22891566265054" type="line"/>
      <point x="421.14457831325296" y="556.6506024096386" type="line"/>
      <point x="372.289156626506" y="552.1927710843374" type="line" smooth="yes"/>
      <point x="284.6626506024096" y="544.8313253012049"/>
      <point x="227.38554216867468" y="500.0"/>
      <point x="215.31325301204816" y="410.4457831325301" type="curve"/>
      <point x="225.31325301204816" y="410.4457831325301" type="line"/>
      <point x="225.31325301204816" y="542.1927710843374" type="line"/>
      <point x="51.59036144578313" y="542.1927710843374" type="line"/>
    </contour>
  </outline>
</glyph>
<glyph name="s" format="2">
  <advance width="496.3012048192771"/>
  <unicode hex="0073"/>
  <anchor x="249.10843373493975" y="0.0" name="bottom"/>
  <anchor x="257.4698795180723" y="484.0" name="top"/>
  <outline>
    <contour>
      <point x="249.65060240963857" y="-11.27710843373494" type="curve" smooth="yes"/>
      <point x="383.04819277108436" y="-11.27710843373494"/>
      <point x="476.9879518072289" y="55.55421686746988"/>
      <point x="476.9879518072289" y="169.77108433734938" type="curve" smooth="yes"/>
      <point x="476.9879518072289" y="252.78313253012047"/>
      <point x="427.2530120481928" y="299.87951807228916"/>
      <point x="337.25301204819283" y="319.2409638554217" type="curve" smooth="yes"/>
      <point x="239.7710843373494" y="339.0602409638554" type="line" smooth="yes"/>
      <point x="209.08433734939757" y="345.144578313253"/>
      <point x="194.0120481927711" y="359.20481927710847"/>
      <point x="194.0120481927711" y="381.34939759036143" type="curve" smooth="yes"/>
      <point x="194.0120481927711" y="411.66265060240966"/>
      <point x="217.43373493975906" y="431.9036144578313"/>
      <point x="271.578313253012" y="431.9036144578313" type="curve" smooth="yes"/>
      <point x="318.56626506024094" y="431.9036144578313"/>
      <point x="377.03614457831327" y="413.18072289156623"/>
      <point x="416.67469879518075" y="382.10843373493975" type="curve"/>
      <point x="466.5301204819277" y="495.03614457831327" type="line"/>
      <point x="415.3253012048193" y="535.4819277108434"/>
      <point x="344.67469879518075" y="553.4698795180723"/>
      <point x="269.30120481927713" y="553.4698795180723" type="curve" smooth="yes"/>
      <point x="120.79518072289159" y="553.4698795180723"/>
      <point x="36.13253012048192" y="475.3614457831325"/>
      <point x="36.13253012048192" y="372.9759036144579" type="curve" smooth="yes"/>
      <point x="36.13253012048192" y="292.50602409638554"/>
      <point x="83.68674698795182" y="242.04819277108433"/>
      <point x="172.14457831325302" y="222.6867469879518" type="curve" smooth="yes"/>
      <point x="269.6265060240964" y="202.86746987951807" type="line" smooth="yes"/>
      <point x="301.5783132530121" y="196.06024096385542"/>
      <point x="318.289156626506" y="183.90361445783134"/>
      <point x="318.289156626506" y="158.93975903614458" type="curve" smooth="yes"/>
      <point x="318.289156626506" y="128.5301204819277"/>
      <point x="295.68674698795184" y="110.28915662650603"/>
      <point x="247.19277108433732" y="110.28915662650603" type="curve" smooth="yes"/>
      <point x="187.19277108433735" y="110.28915662650603"/>
      <point x="116.34939759036143" y="131.74698795180723"/>
      <point x="68.53012048192771" y="162.4578313253012" type="curve"/>
      <point x="21.132530120481924" y="47.6144578313253" type="line"/>
      <point x="74.87951807228916" y="10.807228915662652"/>
      <point x="154.98795180722894" y="-11.27710843373494"/>
    </contour>
  </outline>
</glyph>
<glyph name="t" format="2">
  <advance width="425.50602409638554"/>
  <unicode hex="0074"/>
  <anchor x="247.24096385542168" y="0.0" name="bottom"/>
  <anchor x="197.87951807228916" y="282.3373493975904" name="center"/>
  <anchor x="179.07228915662648" y="670.0" name="top"/>
  <anchor x="306.92771084337346" y="705.0" name="topright"/>
  <outline>
    <contour>
      <point x="310.07228915662654" y="-11.27710843373494" type="curve" smooth="yes"/>
      <point x="349.1807228915663" y="-11.27710843373494"/>
      <point x="393.3734939759036" y="-1.6385542168674698"/>
      <point x="424.39759036144574" y="13.915662650602409" type="curve"/>
      <point x="400.289156626506" y="142.3132530120482" type="line"/>
      <point x="375.45783132530124" y="135.67469879518072"/>
      <point x="357.3734939759036" y="131.95180722891564"/>
      <point x="340.9277108433735" y="131.95180722891564" type="curve" smooth="yes"/>
      <point x="290.06024096385545" y="131.95180722891564"/>
      <point x="267.8915662650602" y="157.0120481927711"/>
      <point x="267.8915662650602" y="210.6867469879518" type="curve" smooth="yes"/>
      <point x="267.8915662650602" y="409.5180722891566" type="line"/>
      <point x="408.2289156626506" y="409.5180722891566" type="line"/>
      <point x="408.2289156626506" y="542.1927710843374" type="line"/>
      <point x="267.8915662650602" y="542.1927710843374" type="line"/>
      <point x="267.8915662650602" y="670.0" type="line"/>
      <point x="89.89156626506023" y="670.0" type="line"/>
      <point x="89.89156626506023" y="542.1927710843374" type="line"/>
      <point x="-2.192771084337349" y="542.1927710843374" type="line"/>
      <point x="-2.192771084337349" y="409.5180722891566" type="line"/>
      <point x="89.89156626506023" y="409.5180722891566" type="line"/>
      <point x="89.89156626506023" y="204.96385542168676" type="line" smooth="yes"/>
      <point x="89.89156626506023" y="59.915662650602414"/>
      <point x="160.55421686746988" y="-11.27710843373494"/>
    </contour>
  </outline>
</glyph>
<glyph name="u" format="2">
  <advance width="600.710843373494"/>
  <unicode hex="0075"/>
  <anchor x="299.855421686747" y="0.0" name="bottom"/>
  <anchor x="508.1566265060241" y="0.0" name="ogonek"/>
  <anchor x="299.855421686747" y="484.3614457831325" name="top"/>
  <anchor x="422.9156626506024" y="534.0" name="topright"/>
  <outline>
    <contour>
      <point x="235.79518072289156" y="-11.27710843373494" type="curve" smooth="yes"/>
      <point x="308.3253012048193" y="-11.27710843373494"/>
      <point x="361.3975903614458" y="25.433734939759038"/>
      <point x="391.31325301204816" y="90.40963855421687" type="curve"/>
      <point x="375.3975903614458" y="90.40963855421687" type="line"/>
      <point x="375.3975903614458" y="0.0" type="line"/>
      <point x="549.1204819277109" y="0.0" type="line"/>
      <point x="549.1204819277109" y="542.1927710843374" type="line"/>
      <point x="371.12048192771084" y="542.1927710843374" type="line"/>
      <point x="371.12048192771084" y="226.10843373493975" type="line" smooth="yes"/>
      <point x="371.12048192771084" y="160.80722891566268"/>
      <point x="335.43373493975906" y="125.855421686747"/>
      <point x="289.2289156626506" y="125.855421686747" type="curve" smooth="yes"/>
      <point x="247.56626506024097" y="125.855421686747"/>
      <point x="227.2289156626506" y="150.73493975903614"/>
      <point x="227.2289156626506" y="206.02409638554218" type="curve" smooth="yes"/>
      <point x="227.2289156626506" y="542.1927710843374" type="line"/>
      <point x="49.22891566265061" y="542.1927710843374" type="line"/>
      <point x="49.22891566265061" y="204.66265060240963" type="line" smooth="yes"/>
      <point x="49.22891566265061" y="60.27710843373494"/>
      <point x="106.40963855421687" y="-11.27710843373494"/>
    </contour>
  </outline>
</glyph>
<glyph name="v" format="2">
  <advance width="541.6867469879519"/>
  <unicode hex="0076"/>
  <anchor x="273.3012048192771" y="0.0" name="bottom"/>
  <anchor x="273.3012048192771" y="484.0" name="top"/>
  <outline>
    <contour>
      <point x="191.95180722891567" y="0.0" type="line"/>
      <point x="348.27710843373495" y="0.0" type="line"/>
      <point x="563.289156626506" y="542.1927710843374" type="line"/>
      <point x="387.66265060240966" y="542.1927710843374" type="line"/>
      <point x="259.0240963855422" y="181.2168674698795" type="line"/>
      <point x="291.855421686747" y="181.2168674698795" type="line"/>
      <point x="168.49397590361446" y="542.1927710843374" type="line"/>
      <point x="-18.963855421686745" y="542.1927710843374" type="line"/>
    </contour>
  </outline>
</glyph>
<glyph name="w" format="2">
  <advance width="868.3253012048193"/>
  <unicode hex="0077"/>
  <anchor x="434.6626506024096" y="0.0" name="bottom"/>
  <anchor x="434.6626506024096" y="484.0" name="top"/>
  <outline>
    <contour>
      <point x="188.8795180722892" y="0.0" type="line"/>
      <point x="341.289156626506" y="0.0" type="line"/>
      <point x="462.31325301204816" y="360.7831325301205" type="line"/>
      <point x="401.3614457831326" y="360.7831325301205" type="line"/>
      <point x="528.2168674698795" y="0.0" type="line"/>
      <point x="679.8072289156627" y="0.0" type="line"/>
      <point x="881.1204819277108" y="542.1927710843374" type="line"/>
      <point x="711.7710843373493" y="542.1927710843374" type="line"/>
      <point x="591.6506024096385" y="171.48192771084337" type="line"/>
      <point x="614.3734939759037" y="171.48192771084337" type="line"/>
      <point x="493.9759036144579" y="542.1927710843374" type="line"/>
      <point x="380.3493975903615" y="542.1927710843374" type="line"/>
      <point x="259.86746987951807" y="171.48192771084337" type="line"/>
      <point x="288.78313253012044" y="171.48192771084337" type="line"/>
      <point x="165.65060240963857" y="542.1927710843374" type="line"/>
      <point x="-14.072289156626503" y="542.1927710843374" type="line"/>
    </contour>
  </outline>
</glyph>
<glyph name="x" format="2">
  <advance width="572.1807228915662"/>
  <unicode hex="0078"/>
  <anchor x="286.7710843373494" y="0.0" name="bottom"/>
  <anchor x="286.7710843373494" y="484.0" name="top"/>
  <outline>
    <contour>
      <point x="-21.795180722891565" y="0.0" type="line"/>
      <point x="181.40963855421685" y="0.0" type="line"/>
      <point x="313.71084337349396" y="194.46987951807228" type="line"/>
      <point x="259.10843373493975" y="194.46987951807228" type="line"/>
      <point x="393.22891566265065" y="0.0" type="line"/>
      <point x="596.7951807228916" y="0.0" type="line"/>
      <point x="358.84337349397595" y="320.0481927710843" type="line"/>
      <point x="358.84337349397595" y="239.78313253012047" type="line"/>
      <point x="582.5180722891566" y="542.1927710843374" type="line"/>
      <point x="380.1325301204819" y="542.1927710843374" type="line"/>
      <point x="259.289156626506" y="363.54216867469876" type="line"/>
      <point x="316.0722891566265" y="363.54216867469876" type="line"/>
      <point x="195.2289156626506" y="542.1927710843374" type="line"/>
      <point x="-8.795180722891565" y="542.1927710843374" type="line"/>
      <point x="214.24096385542168" y="241.51807228915663" type="line"/>
      <point x="214.24096385542168" y="318.855421686747" type="line"/>
    </contour>
  </outline>
</glyph>
<glyph name="y" format="2">
  <advance width="540.6867469879518"/>
  <unicode hex="0079"/>
  <anchor x="434.9036144578313" y="0.0" name="bottom"/>
  <anchor x="271.0240963855422" y="484.0" name="top"/>
  <outline>
    <contour>
      <point x="94.45783132530123" y="-180.0" type="line"/>
      <point x="275.81927710843377" y="-180.0" type="line"/>
      <point x="563.4698795180723" y="542.1927710843374" type="line"/>
      <point x="387.48192771084337" y="542.1927710843374" type="line"/>
      <point x="258.2048192771084" y="181.2168674698795" type="line"/>
      <point x="291.2168674698795" y="181.2168674698795" type="line"/>
      <point x="168.3132530120482" y="542.1927710843374" type="line"/>
      <point x="-19.963855421686745" y="542.1927710843374" type="line"/>
      <point x="193.03614457831327" y="-3.2530120481927725" type="line"/>
      <point x="193.03614457831327" y="56.1566265060241" type="line"/>
    </contour>
  </outline>
</glyph>
<glyph name="z" format="2">
  <advance width="486.7710843373494"/>
  <unicode hex="007A"/>
  <anchor x="248.10843373493975" y="0.0" name="bottom"/>
  <anchor x="248.10843373493975" y="484.0" name="top"/>
  <outline>
    <contour>
      <point x="41.97590361445783" y="0.0" type="line"/>
      <point x="464.6024096385542" y="0.0" type="line"/>
      <point x="464.6024096385542" y="132.67469879518072" type="line"/>
      <point x="196.855421686747" y="132.67469879518072" type="line"/>
      <point x="197.67469879518075" y="86.0843373493976" type="line"/>
      <point x="454.2409638554217" y="427.9879518072289" type="line"/>
      <point x="454.2409638554217" y="542.1927710843374" type="line"/>
      <point x="41.97590361445783" y="542.1927710843374" type="line"/>
      <point x="41.97590361445783" y="409.5180722891566" type="line"/>
      <point x="297.08433734939763" y="409.5180722891566" type="line"/>
      <point x="294.6265060240964" y="454.0120481927711" type="line"/>
      <point x="41.97590361445783" y="115.20481927710843" type="line"/>
    </contour>
  </outline>
</glyph>
<glyph name="asciitilde" format="2">
  <advance width="600.0"/>
  <unicode hex="007E"/>
  <outline>
    <contour>
      <point x="402.9759036144578" y="198.7831325301205" type="curve" smooth="yes"/>
      <point x="466.16867469879514" y="198.7831325301205"/>
      <point x="524.1927710843373" y="245.16867469879517"/>
      <point x="544.0" y="310.44578313253015" type="curve"/>
      <point x="457.65060240963857" y="367.96385542168673" type="line"/>
      <point x="444.2048192771084" y="329.6024096385542"/>
      <point x="423.03614457831327" y="311.51807228915663"/>
      <point x="392.86746987951807" y="311.51807228915663" type="curve" smooth="yes"/>
      <point x="376.33734939759034" y="311.51807228915663"/>
      <point x="349.89156626506025" y="320.6024096385542"/>
      <point x="307.3614457831325" y="342.4096385542168" type="curve" smooth="yes"/>
      <point x="260.8313253012048" y="366.2168674698795"/>
      <point x="226.83132530120483" y="375.5783132530121"/>
      <point x="196.74698795180723" y="375.5783132530121" type="curve" smooth="yes"/>
      <point x="133.19277108433735" y="375.5783132530121"/>
      <point x="76.80722891566265" y="329.83132530120486"/>
      <point x="56.0" y="262.91566265060237" type="curve"/>
      <point x="142.7951807228916" y="206.3975903614458" type="line"/>
      <point x="155.51807228915663" y="244.75903614457832"/>
      <point x="176.96385542168673" y="263.48192771084337"/>
      <point x="206.49397590361446" y="263.48192771084337" type="curve" smooth="yes"/>
      <point x="224.57831325301206" y="263.48192771084337"/>
      <point x="251.3012048192771" y="253.84337349397592"/>
      <point x="294.5542168674699" y="231.6746987951807" type="curve" smooth="yes"/>
      <point x="344.3614457831325" y="206.2289156626506"/>
      <point x="374.53012048192767" y="198.7831325301205"/>
    </contour>
  </outline>
</glyph>
<glyph name="cent" format="2">
  <advance width="600.0"/>
  <unicode hex="00A2"/>
  <outline>
    <contour>
      <point x="248.65060240963854" y="-117.16867469879519" type="line"/>
      <point x="386.96385542168673" y="-117.16867469879519" type="line"/>
      <point x="386.96385542168673" y="26.024096385542165" type="line"/>
      <point x="354.4939759036144" y="-10.457831325301203" type="line"/>
      <point x="425.96385542168673" y="-8.0"/>
      <point x="496.4216867469879" y="16.084337349397593"/>
      <point x="539.6144578313252" y="53.53012048192771" type="curve"/>
      <point x="492.7590361445783" y="174.01204819277106" type="line"/>
      <point x="456.855421686747" y="145.57831325301206"/>
      <point x="412.2289156626506" y="129.67469879518072"/>
      <point x="373.6144578313253" y="129.67469879518072" type="curve" smooth="yes"/>
      <point x="298.84337349397595" y="129.67469879518072"/>
      <point x="254.24096385542168" y="180.34939759036143"/>
      <point x="254.24096385542168" y="272.9156626506024" type="curve" smooth="yes"/>
      <point x="254.24096385542168" y="364.578313253012"/>
      <point x="298.66265060240966" y="414.51807228915663"/>
      <point x="373.9759036144578" y="414.51807228915663" type="curve" smooth="yes"/>
      <point x="413.2289156626506" y="414.51807228915663"/>
      <point x="456.6746987951807" y="398.79518072289153"/>
      <point x="492.7590361445783" y="369.81927710843377" type="curve"/>
      <point x="539.6144578313252" y="490.30120481927713" type="line"/>
      <point x="496.87951807228916" y="530.9277108433736"/>
      <point x="423.68674698795184" y="549.3734939759037"/>
      <point x="355.8554216867469" y="550.8313253012049" type="curve"/>
      <point x="386.96385542168673" y="512.2650602409639" type="line"/>
      <point x="386.96385542168673" y="658.4578313253012" type="line"/>
      <point x="248.65060240963854" y="658.4578313253012" type="line"/>
      <point x="248.65060240963854" y="500.7951807228916" type="line"/>
      <point x="279.78313253012044" y="541.8192771084338" type="line"/>
      <point x="152.50602409638554" y="516.0722891566264"/>
      <point x="71.14457831325302" y="409.2530120481927"/>
      <point x="71.14457831325302" y="270.6385542168674" type="curve" smooth="yes"/>
      <point x="71.14457831325302" y="128.2048192771084"/>
      <point x="148.95180722891564" y="26.036144578313248"/>
      <point x="279.7831325301205" y="-3.0843373493975905" type="curve"/>
      <point x="248.65060240963854" y="35.855421686746986" type="line"/>
    </contour>
  </outline>
</glyph>
<glyph name="yen" format="2">
  <advance width="600.0"/>
  <unicode hex="00A5"/>
  <outline>
    <contour>
      <point x="207.9036144578313" y="0.0" type="line"/>
      <point x="391.45783132530124" y="0.0" type="line"/>
      <point x="391.45783132530124" y="148.78313253012047" type="line"/>
      <point x="537.1084337349397" y="148.78313253012047" type="line"/>
      <point x="537.1084337349397" y="252.10843373493975" type="line"/>
      <point x="391.45783132530124" y="252.10843373493975" type="line"/>
      <point x="391.45783132530124" y="308.6144578313253" type="line"/>
      <point x="537.1084337349397" y="308.6144578313253" type="line"/>
      <point x="537.1084337349397" y="411.93975903614455" type="line"/>
      <point x="420.09638554216866" y="411.93975903614455" type="line"/>
      <point x="420.09638554216866" y="388.6626506024096" type="line"/>
      <point x="629.4096385542169" y="705.0" type="line"/>
      <point x="432.93975903614455" y="705.0" type="line"/>
      <point x="280.89156626506025" y="458.0361445783132" type="line"/>
      <point x="317.83132530120486" y="458.0361445783132" type="line"/>
      <point x="167.42168674698794" y="705.0" type="line"/>
      <point x="-29.409638554216865" y="705.0" type="line"/>
      <point x="178.9879518072289" y="388.6626506024096" type="line"/>
      <point x="178.9879518072289" y="411.93975903614455" type="line"/>
      <point x="62.891566265060234" y="411.93975903614455" type="line"/>
      <point x="62.891566265060234" y="308.6144578313253" type="line"/>
      <point x="207.9036144578313" y="308.6144578313253" type="line"/>
      <point x="207.9036144578313" y="252.10843373493975" type="line"/>
      <point x="62.891566265060234" y="252.10843373493975" type="line"/>
      <point x="62.891566265060234" y="148.78313253012047" type="line"/>
      <point x="207.9036144578313" y="148.78313253012047" type="line"/>
    </contour>
  </outline>
</glyph>
<glyph name="questiondown" format="2">
  <advance width="478.15662650602405"/>
  <unicode hex="00BF"/>
  <outline>
    <contour>
      <point x="238.57831325301206" y="-191.27710843373492" type="curve" smooth="yes"/>
      <point x="328.95180722891564" y="-191.27710843373492"/>
      <point x="419.50602409638554" y="-163.19277108433735"/>
      <point x="477.15662650602405" y="-114.3012048192771" type="curve"/>
      <point x="419.56626506024094" y="16.01204819277108" type="line"/>
      <point x="369.8433734939759" y="-23.325301204819283"/>
      <point x="318.13253012048193" y="-40.49397590361447"/>
      <point x="264.433734939759" y="-40.49397590361447" type="curve" smooth="yes"/>
      <point x="212.02409638554215" y="-40.49397590361447"/>
      <point x="185.14457831325302" y="-18.253012048192776"/>
      <point x="185.14457831325302" y="18.156626506024097" type="curve" smooth="yes"/>
      <point x="185.14457831325302" y="44.57831325301205"/>
      <point x="195.59036144578312" y="65.81927710843374"/>
      <point x="228.73493975903614" y="101.7710843373494" type="curve" smooth="yes"/>
      <point x="277.07228915662654" y="153.81927710843374"/>
      <point x="293.87951807228916" y="200.0722891566265"/>
      <point x="293.87951807228916" y="255.68674698795184" type="curve" smooth="yes"/>
      <point x="293.87951807228916" y="304.0" type="line"/>
      <point x="189.50602409638554" y="304.0" type="line"/>
      <point x="183.22891566265062" y="270.8915662650603" type="line" smooth="yes"/>
      <point x="176.50602409638552" y="232.28915662650604"/>
      <point x="156.50602409638557" y="199.3132530120482"/>
      <point x="99.24096385542168" y="153.62650602409636" type="curve" smooth="yes"/>
      <point x="31.060240963855424" y="100.12048192771084"/>
      <point x="5.144578313253014" y="48.8433734939759"/>
      <point x="5.144578313253014" y="-14.975903614457827" type="curve" smooth="yes"/>
      <point x="5.144578313253014" y="-120.26506024096386"/>
      <point x="98.72289156626506" y="-191.27710843373492"/>
    </contour>
    <contour>
      <point x="149.2048192771084" y="359.7710843373494" type="line"/>
      <point x="334.1807228915663" y="359.7710843373494" type="line"/>
      <point x="334.1807228915663" y="542.1927710843374" type="line"/>
      <point x="149.2048192771084" y="542.1927710843374" type="line"/>
    </contour>
  </outline>
</glyph>
<glyph name="AE" format="2">
  <advance width="1006.0481927710844"/>
  <unicode hex="00C6"/>
  <anchor x="488.6385542168675" y="0.0" name="bottom"/>
  <anchor x="489.27710843373495" y="705.0" name="top"/>
  <outline>
    <contour>
      <point x="-60.265060240963855" y="0.0" type="line"/>
      <point x="131.9277108433735" y="0.0" type="line"/>
      <point x="245.09638554216866" y="189.97590361445785" type="line"/>
      <point x="178.57831325301206" y="142.56626506024097" type="line"/>
      <point x="559.4698795180723" y="142.56626506024097" type="line"/>
      <point x="503.421686746988" y="196.53012048192772" type="line"/>
      <point x="546.421686746988" y="0.0" type="line"/>
      <point x="953.7710843373494" y="0.0" type="line"/>
      <point x="953.7710843373494" y="141.59036144578312" type="line"/>
      <point x="626.9638554216867" y="141.59036144578312" type="line"/>
      <point x="688.289156626506" y="93.09638554216868" type="line"/>
      <point x="634.0361445783133" y="337.53012048192767" type="line"/>
      <point x="597.0963855421686" y="287.20481927710847" type="line"/>
      <point x="931.4939759036145" y="287.20481927710847" type="line"/>
      <point x="931.4939759036145" y="428.7951807228916" type="line"/>
      <point x="565.5180722891566" y="428.7951807228916" type="line"/>
      <point x="625.1204819277108" y="378.4698795180723" type="line"/>
      <point x="575.7831325301205" y="603.1566265060242" type="line"/>
      <point x="530.4578313253012" y="563.4096385542168" type="line"/>
      <point x="953.7710843373494" y="563.4096385542168" type="line"/>
      <point x="953.7710843373494" y="705.0" type="line"/>
      <point x="389.2289156626506" y="705.0" type="line"/>
    </contour>
    <contour>
      <point x="433.0" y="507.0843373493976" type="line"/>
      <point x="435.0" y="507.0843373493976" type="line"/>
      <point x="495.5060240963856" y="233.19277108433735" type="line"/>
      <point x="531.0" y="284.1566265060241" type="line"/>
      <point x="264.7590361445783" y="284.1566265060241" type="line"/>
      <point x="273.7590361445783" y="239.74698795180723" type="line"/>
    </contour>
  </outline>
</glyph>
<glyph name="Thorn" format="2">
  <advance width="678.9036144578313"/>
  <unicode hex="00DE"/>
  <anchor x="345.49397590361446" y="0.0" name="bottom"/>
  <anchor x="344.855421686747" y="705.0" name="top"/>
  <outline>
    <contour>
      <point x="64.2289156626506" y="0.0" type="line"/>
      <point x="247.7831325301205" y="0.0" type="line"/>
      <point x="247.7831325301205" y="136.42168674698797" type="line"/>
      <point x="406.71084337349396" y="136.42168674698797" type="line" smooth="yes"/>
      <point x="566.1807228915663" y="136.42168674698797"/>
      <point x="657.0120481927711" y="223.53012048192772"/>
      <point x="657.0120481927711" y="367.6385542168675" type="curve" smooth="yes"/>
      <point x="657.0120481927711" y="511.7469879518072"/>
      <point x="566.1807228915663" y="598.4939759036145"/>
      <point x="406.71084337349396" y="598.4939759036145" type="curve" smooth="yes"/>
      <point x="247.7831325301205" y="598.4939759036145" type="line"/>
      <point x="247.7831325301205" y="705.0" type="line"/>
      <point x="64.2289156626506" y="705.0" type="line"/>
    </contour>
    <contour>
      <point x="247.7831325301205" y="277.65060240963857" type="line"/>
      <point x="247.7831325301205" y="457.2650602409639" type="line"/>
      <point x="373.9397590361446" y="457.2650602409639" type="line" smooth="yes"/>
      <point x="443.86746987951807" y="457.2650602409639"/>
      <point x="481.9277108433735" y="428.12048192771084"/>
      <point x="481.9277108433735" y="367.6385542168675" type="curve" smooth="yes"/>
      <point x="481.9277108433735" y="307.15662650602405"/>
      <point x="443.86746987951807" y="277.65060240963857"/>
      <point x="373.9397590361446" y="277.65060240963857" type="curve" smooth="yes"/>
    </contour>
  </outline>
</glyph>
<glyph name="germandbls" format="2">
  <advance width="699.6144578313254"/>
  <unicode hex="00DF"/>
  <outline>
    <contour>
      <point x="475.22891566265065" y="-11.27710843373494" type="curve" smooth="yes"/>
      <point x="600.5301204819277" y="-11.27710843373494"/>
      <point x="685.9156626506025" y="62.46987951807228"/>
      <point x="685.9156626506025" y="170.7710843373494" type="curve" smooth="yes"/>
      <point x="685.9156626506025" y="250.04819277108433"/>
      <point x="646.9156626506025" y="300.69879518072287"/>
      <point x="548.3012048192771" y="334.144578313253" type="curve" smooth="yes"/>
      <point x="480.22891566265054" y="357.4096385542168"/>
      <point x="464.2409638554217" y="370.3975903614458"/>
      <point x="464.2409638554217" y="391.01204819277103" type="curve" smooth="yes"/>
      <point x="464.2409638554217" y="409.08433734939763"/>
      <point x="473.5060240963856" y="423.8072289156627"/>
      <point x="507.93975903614455" y="455.6144578313253" type="curve" smooth="yes"/>
      <point x="554.6506024096386" y="498.33734939759034"/>
      <point x="570.0963855421687" y="533.3373493975903"/>
      <point x="570.0963855421687" y="575.4216867469879" type="curve" smooth="yes"/>
      <point x="570.0963855421687" y="664.6265060240963"/>
      <point x="488.51807228915663" y="716.277108433735"/>
      <point x="346.26506024096386" y="716.277108433735" type="curve" smooth="yes"/>
      <point x="154.62650602409641" y="716.277108433735"/>
      <point x="51.59036144578313" y="620.5180722891565"/>
      <point x="51.59036144578313" y="438.7228915662651" type="curve" smooth="yes"/>
      <point x="51.59036144578313" y="0.0" type="line"/>
      <point x="229.59036144578312" y="0.0" type="line"/>
      <point x="229.59036144578312" y="468.21686746987956" type="line" smooth="yes"/>
      <point x="229.59036144578312" y="549.1807228915663"/>
      <point x="268.2048192771084" y="592.8915662650603"/>
      <point x="343.9879518072289" y="592.8915662650603" type="curve" smooth="yes"/>
      <point x="385.8674698795181" y="592.8915662650603"/>
      <point x="405.0240963855422" y="577.5421686746988"/>
      <point x="405.0240963855422" y="552.1204819277109" type="curve" smooth="yes"/>
      <point x="405.0240963855422" y="533.6867469879519"/>
      <point x="396.9397590361446" y="517.8795180722891"/>
      <point x="370.87951807228916" y="492.1686746987952" type="curve" smooth="yes"/>
      <point x="320.26506024096386" y="441.6144578313253"/>
      <point x="304.08433734939763" y="406.43373493975906"/>
      <point x="304.08433734939763" y="364.6144578313253" type="curve" smooth="yes"/>
      <point x="304.08433734939763" y="298.144578313253"/>
      <point x="339.4578313253012" y="254.13253012048193"/>
      <point x="440.90361445783134" y="222.04819277108436" type="curve" smooth="yes"/>
      <point x="509.0481927710843" y="200.33734939759037"/>
      <point x="526.5783132530121" y="186.26506024096386"/>
      <point x="526.5783132530121" y="159.93975903614458" type="curve" smooth="yes"/>
      <point x="526.5783132530121" y="130.80722891566265"/>
      <point x="506.2530120481928" y="114.3855421686747"/>
      <point x="471.49397590361446" y="114.3855421686747" type="curve" smooth="yes"/>
      <point x="423.86746987951807" y="114.3855421686747"/>
      <point x="367.6746987951807" y="132.8433734939759"/>
      <point x="315.3975903614458" y="168.37349397590359" type="curve"/>
      <point x="264.5421686746988" y="51.71084337349397" type="line"/>
      <point x="320.10843373493975" y="11.80722891566265"/>
      <point x="396.578313253012" y="-11.27710843373494"/>
    </contour>
  </outline>
</glyph>
<glyph name="ae" format="2">
  <advance width="870.1084337349397"/>
  <unicode hex="00E6"/>
  <anchor x="414.3614457831325" y="0.0" name="bottom"/>
  <anchor x="414.3614457831325" y="484.0" name="top"/>
  <outline>
    <contour>
      <point x="237.36144578313255" y="-12.27710843373494" type="curve" smooth="yes"/>
      <point x="334.8192771084337" y="-12.27710843373494"/>
      <point x="402.44578313253015" y="37.1566265060241"/>
      <point x="428.73493975903614" y="114.10843373493975" type="curve"/>
      <point x="402.5421686746988" y="114.10843373493975" type="line"/>
      <point x="440.9277108433735" y="34.975903614457835"/>
      <point x="524.7469879518072" y="-11.27710843373494"/>
      <point x="640.7469879518072" y="-11.27710843373494" type="curve" smooth="yes"/>
      <point x="709.6626506024096" y="-11.27710843373494"/>
      <point x="791.132530120482" y="13.72289156626506"/>
      <point x="840.6867469879518" y="57.25301204819277" type="curve"/>
      <point x="790.6506024096385" y="172.45783132530119" type="line"/>
      <point x="747.7469879518072" y="138.02409638554215"/>
      <point x="691.9277108433735" y="121.93975903614457"/>
      <point x="646.9397590361446" y="121.93975903614457" type="curve" smooth="yes"/>
      <point x="560.156626506024" y="121.93975903614457"/>
      <point x="517.4698795180723" y="162.89156626506025"/>
      <point x="517.4698795180723" y="271.0963855421687" type="curve" smooth="yes"/>
      <point x="517.4698795180723" y="284.65060240963857" type="line" smooth="yes"/>
      <point x="517.4698795180723" y="384.9518072289157"/>
      <point x="552.7831325301206" y="432.08433734939763"/>
      <point x="610.7228915662652" y="432.08433734939763" type="curve" smooth="yes"/>
      <point x="666.843373493976" y="432.08433734939763"/>
      <point x="697.2650602409639" y="392.67469879518075"/>
      <point x="697.2650602409639" y="303.566265060241" type="curve"/>
      <point x="713.9036144578314" y="324.10843373493975" type="line"/>
      <point x="503.55421686746985" y="324.10843373493975" type="line"/>
      <point x="503.55421686746985" y="233.2409638554217" type="line"/>
      <point x="845.0481927710844" y="233.2409638554217" type="line"/>
      <point x="845.0481927710844" y="272.43373493975906" type="line" smooth="yes"/>
      <point x="845.0481927710844" y="440.89156626506025"/>
      <point x="755.6626506024096" y="553.4698795180723"/>
      <point x="603.710843373494" y="553.4698795180723" type="curve" smooth="yes"/>
      <point x="533.6265060240963" y="553.4698795180723"/>
      <point x="469.1204819277108" y="522.0481927710844"/>
      <point x="429.01204819277103" y="457.90361445783134" type="curve"/>
      <point x="473.6867469879518" y="457.90361445783134" type="line"/>
      <point x="441.1084337349398" y="524.2289156626506"/>
      <point x="378.54216867469876" y="553.4698795180723"/>
      <point x="282.92771084337346" y="553.4698795180723" type="curve" smooth="yes"/>
      <point x="200.90361445783134" y="553.4698795180723"/>
      <point x="99.77108433734941" y="526.0963855421687"/>
      <point x="46.95180722891567" y="486.9156626506024" type="curve"/>
      <point x="95.16867469879519" y="366.71084337349396" type="line"/>
      <point x="151.9879518072289" y="403.7951807228916"/>
      <point x="215.73493975903614" y="422.8915662650603"/>
      <point x="267.26506024096386" y="422.8915662650603" type="curve" smooth="yes"/>
      <point x="323.50602409638554" y="422.8915662650603"/>
      <point x="347.48192771084337" y="403.5542168674699"/>
      <point x="347.48192771084337" y="349.9879518072289" type="curve" smooth="yes"/>
      <point x="347.48192771084337" y="203.34939759036146" type="line" smooth="yes"/>
      <point x="347.48192771084337" y="145.2409638554217"/>
      <point x="311.9759036144578" y="110.46987951807228"/>
      <point x="267.2168674698795" y="110.46987951807228" type="curve" smooth="yes"/>
      <point x="225.08433734939757" y="110.46987951807228"/>
      <point x="200.3012048192771" y="134.71084337349396"/>
      <point x="200.3012048192771" y="171.20481927710844" type="curve" smooth="yes"/>
      <point x="200.3012048192771" y="213.06024096385542"/>
      <point x="233.91566265060243" y="233.2409638554217"/>
      <point x="325.39759036144585" y="233.2409638554217" type="curve" smooth="yes"/>
      <point x="365.3132530120482" y="233.2409638554217" type="line"/>
      <point x="365.3132530120482" y="324.10843373493975" type="line"/>
      <point x="325.2168674698795" y="324.10843373493975" type="line" smooth="yes"/>
      <point x="103.32530120481927" y="324.10843373493975"/>
      <point x="29.590361445783138" y="275.28915662650604"/>
      <point x="29.590361445783138" y="166.74698795180723" type="curve" smooth="yes"/>
      <point x="29.590361445783138" y="69.46987951807229"/>
      <point x="104.40963855421685" y="-11.457831325301205"/>
    </contour>
  </outline>
</glyph>
<glyph name="eth" format="2">
  <advance width="605.5421686746988"/>
  <unicode hex="00F0"/>
  <outline>
    <contour>
      <point x="293.21686746987956" y="-11.27710843373494" type="curve" smooth="yes"/>
      <point x="474.1807228915663" y="-11.27710843373494"/>
      <point x="578.7590361445783" y="106.10843373493975"/>
      <point x="578.7590361445783" y="292.4698795180723" type="curve" smooth="yes"/>
      <point x="578.7590361445783" y="401.3975903614458"/>
      <point x="526.7710843373494" y="519.867469879518"/>
      <point x="421.0120481927711" y="604.710843373494" type="curve"/>
      <point x="414.0" y="587.421686746988" type="line"/>
      <point x="528.7469879518072" y="639.9879518072289" type="line"/>
      <point x="492.0963855421687" y="717.7349397590361" type="line"/>
      <point x="329.3493975903615" y="642.710843373494" type="line"/>
      <point x="361.07228915662654" y="645.8192771084338" type="line"/>
      <point x="305.5783132530121" y="677.566265060241"/>
      <point x="234.27710843373495" y="704.4698795180724"/>
      <point x="147.61445783132532" y="717.5542168674699" type="curve"/>
      <point x="117.59036144578313" y="605.9036144578313" type="line"/>
      <point x="155.30120481927707" y="599.4578313253012"/>
      <point x="185.0963855421687" y="590.843373493976"/>
      <point x="222.6024096385542" y="576.5542168674699" type="curve"/>
      <point x="219.78313253012047" y="591.289156626506" type="line"/>
      <point x="95.79518072289156" y="534.3734939759036" type="line"/>
      <point x="132.44578313253012" y="456.8072289156626" type="line"/>
      <point x="313.8313253012048" y="540.4698795180723" type="line"/>
      <point x="289.34939759036143" y="541.6506024096385" type="line"/>
      <point x="361.5301204819277" y="495.566265060241"/>
      <point x="412.5903614457832" y="424.33734939759034"/>
      <point x="412.86746987951807" y="337.67469879518075" type="curve"/>
      <point x="444.1566265060241" y="337.67469879518075" type="line"/>
      <point x="416.2289156626506" y="422.07228915662654"/>
      <point x="356.4457831325301" y="451.68674698795184"/>
      <point x="274.3734939759036" y="451.68674698795184" type="curve" smooth="yes"/>
      <point x="131.44578313253012" y="451.68674698795184"/>
      <point x="29.060240963855424" y="356.6867469879518"/>
      <point x="29.060240963855424" y="223.89156626506025" type="curve" smooth="yes"/>
      <point x="29.060240963855424" y="85.36144578313252"/>
      <point x="137.0" y="-11.27710843373494"/>
    </contour>
    <contour>
      <point x="300.4096385542169" y="121.7590361445783" type="curve" smooth="yes"/>
      <point x="243.2048192771084" y="121.7590361445783"/>
      <point x="208.06024096385542" y="160.07228915662648"/>
      <point x="208.06024096385542" y="223.25301204819277" type="curve" smooth="yes"/>
      <point x="208.06024096385542" y="284.2530120481928"/>
      <point x="242.9277108433735" y="322.566265060241"/>
      <point x="299.7710843373494" y="322.566265060241" type="curve" smooth="yes"/>
      <point x="360.2530120481928" y="322.566265060241"/>
      <point x="391.84337349397595" y="283.89156626506025"/>
      <point x="391.84337349397595" y="223.25301204819277" type="curve" smooth="yes"/>
      <point x="391.84337349397595" y="161.89156626506022"/>
      <point x="359.2530120481928" y="121.7590361445783"/>
    </contour>
  </outline>
</glyph>
<glyph name="thorn" format="2">
  <advance width="620.433734939759"/>
  <unicode hex="00FE"/>
  <anchor x="313.13253012048193" y="0.0" name="bottom"/>
  <anchor x="313.13253012048193" y="484.0" name="top"/>
  <outline>
    <contour>
      <point x="51.59036144578313" y="-180.0" type="line"/>
      <point x="229.59036144578312" y="-180.0" type="line"/>
      <point x="229.59036144578312" y="90.3855421686747" type="line"/>
      <point x="217.40963855421688" y="90.3855421686747" type="line"/>
      <point x="237.95180722891564" y="28.6144578313253"/>
      <point x="303.03614457831327" y="-11.27710843373494"/>
      <point x="377.1927710843373" y="-11.27710843373494" type="curve" smooth="yes"/>
      <point x="503.91566265060237" y="-11.27710843373494"/>
      <point x="591.3734939759036" y="92.45783132530121"/>
      <point x="591.3734939759036" y="271.27710843373495" type="curve" smooth="yes"/>
      <point x="591.3734939759036" y="451.0963855421687"/>
      <point x="503.91566265060237" y="553.4698795180723"/>
      <point x="377.1927710843373" y="553.4698795180723" type="curve" smooth="yes"/>
      <point x="300.39759036144574" y="553.4698795180723"/>
      <point x="234.67469879518072" y="512.9397590361446"/>
      <point x="215.77108433734938" y="446.6144578313253" type="curve"/>
      <point x="229.59036144578312" y="446.6144578313253" type="line"/>
      <point x="229.59036144578312" y="705.0" type="line"/>
      <point x="51.59036144578313" y="705.0" type="line"/>
    </contour>
    <contour>
      <point x="319.6626506024096" y="121.75903614457832" type="curve" smooth="yes"/>
      <point x="263.18072289156623" y="121.75903614457832"/>
      <point x="226.95180722891567" y="163.89156626506025"/>
      <point x="226.95180722891567" y="271.27710843373495" type="curve" smooth="yes"/>
      <point x="226.95180722891567" y="378.8433734939759"/>
      <point x="263.18072289156623" y="420.43373493975906"/>
      <point x="319.6626506024096" y="420.43373493975906" type="curve" smooth="yes"/>
      <point x="376.6024096385542" y="420.43373493975906"/>
      <point x="412.3734939759036" y="378.8433734939759"/>
      <point x="412.3734939759036" y="271.27710843373495" type="curve" smooth="yes"/>
      <point x="412.3734939759036" y="163.89156626506025"/>
      <point x="376.6024096385542" y="121.75903614457832"/>
    </contour>
  </outline>
</glyph>
<glyph name="dcroat" format="2">
  <advance width="620.433734939759"/>
  <unicode hex="0111"/>
  <outline>
    <contour>
      <point x="244.60240963855418" y="-11.27710843373494" type="curve" smooth="yes"/>
      <point x="320.21686746987956" y="-11.27710843373494"/>
      <point x="385.48192771084337" y="29.433734939759034"/>
      <point x="404.2048192771084" y="91.10843373493977" type="curve"/>
      <point x="394.7590361445783" y="91.10843373493977" type="line"/>
      <point x="394.7590361445783" y="0.0" type="line"/>
      <point x="569.2048192771084" y="0.0" type="line"/>
      <point x="569.2048192771084" y="537.4698795180724" type="line"/>
      <point x="651.7349397590361" y="537.4698795180724" type="line"/>
      <point x="651.7349397590361" y="658.6746987951808" type="line"/>
      <point x="569.2048192771084" y="658.6746987951808" type="line"/>
      <point x="569.2048192771084" y="705.0" type="line"/>
      <point x="391.20481927710847" y="705.0" type="line"/>
      <point x="391.20481927710847" y="658.6746987951808" type="line"/>
      <point x="211.56626506024097" y="658.6746987951808" type="line"/>
      <point x="211.56626506024097" y="537.4698795180724" type="line"/>
      <point x="391.20481927710847" y="537.4698795180724" type="line"/>
      <point x="391.20481927710847" y="412.6385542168675" type="line"/>
      <point x="402.566265060241" y="412.6385542168675" type="line"/>
      <point x="382.2048192771084" y="469.67469879518075"/>
      <point x="317.9397590361446" y="507.9277108433736"/>
      <point x="244.60240963855418" y="507.9277108433736" type="curve" smooth="yes"/>
      <point x="117.6987951807229" y="507.9277108433736"/>
      <point x="29.421686746987955" y="411.3855421686747"/>
      <point x="29.421686746987955" y="248.50602409638554" type="curve" smooth="yes"/>
      <point x="29.421686746987955" y="85.80722891566266"/>
      <point x="118.6987951807229" y="-11.27710843373494"/>
    </contour>
    <contour>
      <point x="301.13253012048193" y="120.12048192771084" type="curve" smooth="yes"/>
      <point x="247.10843373493972" y="120.12048192771084"/>
      <point x="208.42168674698794" y="157.33734939759037"/>
      <point x="208.42168674698794" y="248.50602409638554" type="curve" smooth="yes"/>
      <point x="208.42168674698794" y="339.855421686747"/>
      <point x="247.10843373493972" y="376.5301204819277"/>
      <point x="301.13253012048193" y="376.5301204819277" type="curve" smooth="yes"/>
      <point x="354.7951807228916" y="376.5301204819277"/>
      <point x="393.84337349397595" y="339.855421686747"/>
      <point x="393.84337349397595" y="248.50602409638554" type="curve" smooth="yes"/>
      <point x="393.84337349397595" y="157.33734939759037"/>
      <point x="354.7951807228916" y="120.12048192771084"/>
    </contour>
  </outline>
</glyph>
<glyph name="hbar" format="2">
  <advance width="606.0722891566265"/>
  <unicode hex="0127"/>
  <outline>
    <contour>
      <point x="51.59036144578313" y="0.0" type="line"/>
      <point x="229.59036144578312" y="0.0" type="line"/>
      <point x="229.59036144578312" y="276.0963855421687" type="line" smooth="yes"/>
      <point x="229.59036144578312" y="334.0240963855421"/>
      <point x="264.6385542168675" y="371.6144578313253"/>
      <point x="317.8433734939759" y="371.6144578313253" type="curve" smooth="yes"/>
      <point x="357.86746987951807" y="371.6144578313253"/>
      <point x="378.84337349397595" y="348.1927710843373"/>
      <point x="378.84337349397595" y="286.5301204819277" type="curve" smooth="yes"/>
      <point x="378.84337349397595" y="0.0" type="line"/>
      <point x="556.843373493976" y="0.0" type="line"/>
      <point x="556.843373493976" y="293.9879518072289" type="line" smooth="yes"/>
      <point x="556.843373493976" y="439.1927710843374"/>
      <point x="500.8433734939759" y="507.9277108433736"/>
      <point x="384.02409638554224" y="507.9277108433736" type="curve" smooth="yes"/>
      <point x="308.4939759036144" y="507.9277108433736"/>
      <point x="245.6867469879518" y="471.7590361445783"/>
      <point x="214.31325301204816" y="410.06024096385545" type="curve"/>
      <point x="229.59036144578312" y="410.06024096385545" type="line"/>
      <point x="229.59036144578312" y="537.4698795180724" type="line"/>
      <point x="412.8433734939759" y="537.4698795180724" type="line"/>
      <point x="412.8433734939759" y="658.6746987951808" type="line"/>
      <point x="229.59036144578312" y="658.6746987951808" type="line"/>
      <point x="229.59036144578312" y="705.0" type="line"/>
      <point x="51.59036144578313" y="705.0" type="line"/>
      <point x="51.59036144578313" y="658.6746987951808" type="line"/>
      <point x="-30.939759036144576" y="658.6746987951808" type="line"/>
      <point x="-30.939759036144576" y="537.4698795180724" type="line"/>
      <point x="51.59036144578313" y="537.4698795180724" type="line"/>
    </contour>
  </outline>
</glyph>
<glyph name="kgreenlandic" format="2">
  <advance width="580.0602409638554"/>
  <unicode hex="0138"/>
  <anchor x="289.71084337349396" y="0.0" name="bottom"/>
  <anchor x="289.71084337349396" y="484.0" name="top"/>
  <outline>
    <contour>
      <point x="51.59036144578313" y="0.0" type="line"/>
      <point x="229.59036144578312" y="0.0" type="line"/>
      <point x="229.59036144578312" y="230.86746987951807" type="line"/>
      <point x="231.59036144578312" y="230.86746987951807" type="line"/>
      <point x="397.07228915662654" y="0.0" type="line"/>
      <point x="609.7349397590361" y="0.0" type="line"/>
      <point x="383.93975903614455" y="315.21686746987956" type="line"/>
      <point x="383.93975903614455" y="252.80722891566265" type="line"/>
      <point x="603.3975903614457" y="542.1927710843374" type="line"/>
      <point x="394.8313253012048" y="542.1927710843374" type="line"/>
      <point x="231.59036144578312" y="319.95180722891564" type="line"/>
      <point x="229.59036144578312" y="319.95180722891564" type="line"/>
      <point x="229.59036144578312" y="542.1927710843374" type="line"/>
      <point x="51.59036144578313" y="542.1927710843374" type="line"/>
    </contour>
  </outline>
</glyph>
<glyph name="eng" format="2">
  <advance width="606.0722891566265"/>
  <unicode hex="014B"/>
  <outline>
    <contour>
      <point x="283.3614457831325" y="-193.0" type="line"/>
      <point x="327.3614457831325" y="-190.0" type="line" smooth="yes"/>
      <point x="499.28915662650604" y="-178.0843373493976"/>
      <point x="556.843373493976" y="-120.72289156626506"/>
      <point x="556.843373493976" y="28.156626506024097" type="curve" smooth="yes"/>
      <point x="556.843373493976" y="337.0722891566265" type="line" smooth="yes"/>
      <point x="556.843373493976" y="483.27710843373495"/>
      <point x="500.0240963855422" y="553.4698795180723"/>
      <point x="384.02409638554224" y="553.4698795180723" type="curve" smooth="yes"/>
      <point x="308.4939759036144" y="553.4698795180723"/>
      <point x="245.86746987951807" y="517.4819277108434"/>
      <point x="215.95180722891564" y="453.144578313253" type="curve"/>
      <point x="225.49397590361443" y="453.144578313253" type="line"/>
      <point x="225.49397590361443" y="542.1927710843374" type="line"/>
      <point x="51.59036144578313" y="542.1927710843374" type="line"/>
      <point x="51.59036144578313" y="0.0" type="line"/>
      <point x="229.59036144578312" y="0.0" type="line"/>
      <point x="229.59036144578312" y="316.7228915662651" type="line" smooth="yes"/>
      <point x="229.59036144578312" y="377.10843373493975"/>
      <point x="264.6385542168675" y="416.33734939759034"/>
      <point x="317.8433734939759" y="416.33734939759034" type="curve" smooth="yes"/>
      <point x="357.86746987951807" y="416.33734939759034"/>
      <point x="378.84337349397595" y="392.09638554216866"/>
      <point x="378.84337349397595" y="331.25301204819283" type="curve" smooth="yes"/>
      <point x="378.84337349397595" y="2.5783132530120483" type="line" smooth="yes"/>
      <point x="378.84337349397595" y="-38.096385542168676"/>
      <point x="361.50602409638554" y="-57.15662650602411"/>
      <point x="319.72289156626505" y="-61.87951807228916" type="curve" smooth="yes"/>
      <point x="271.53012048192767" y="-67.51807228915662" type="line"/>
    </contour>
  </outline>
</glyph>
<glyph name="oe" format="2">
  <advance width="920.3855421686746"/>
  <unicode hex="0153"/>
  <anchor x="480.0240963855422" y="0.0" name="bottom"/>
  <anchor x="480.0240963855422" y="484.0" name="top"/>
  <outline>
    <contour>
      <point x="298.132530120482" y="-11.27710843373494" type="curve" smooth="yes"/>
      <point x="393.7590361445783" y="-11.27710843373494"/>
      <point x="469.1204819277109" y="27.783132530120483"/>
      <point x="513.144578313253" y="107.90361445783131" type="curve"/>
      <point x="453.1927710843373" y="107.90361445783131" type="line"/>
      <point x="497.04819277108436" y="31.144578313253014"/>
      <point x="579.6746987951807" y="-11.27710843373494"/>
      <point x="690.3855421686746" y="-11.27710843373494" type="curve" smooth="yes"/>
      <point x="759.4819277108434" y="-11.27710843373494"/>
      <point x="841.4096385542168" y="13.72289156626506"/>
      <point x="890.9638554216866" y="57.25301204819277" type="curve"/>
      <point x="840.9277108433735" y="172.45783132530119" type="line"/>
      <point x="798.0240963855422" y="138.02409638554215"/>
      <point x="741.7469879518072" y="121.93975903614457"/>
      <point x="696.0361445783132" y="121.93975903614457" type="curve" smooth="yes"/>
      <point x="608.9879518072289" y="121.93975903614457"/>
      <point x="566.7469879518072" y="163.6144578313253"/>
      <point x="566.7469879518072" y="270.8192771084337" type="curve" smooth="yes"/>
      <point x="566.7469879518072" y="284.8313253012048" type="line" smooth="yes"/>
      <point x="566.7469879518072" y="390.03614457831327"/>
      <point x="603.0602409638553" y="432.08433734939763"/>
      <point x="661.6385542168674" y="432.08433734939763" type="curve" smooth="yes"/>
      <point x="716.7590361445783" y="432.08433734939763"/>
      <point x="748.0" y="392.67469879518075"/>
      <point x="748.0" y="303.74698795180717" type="curve"/>
      <point x="765.8192771084338" y="322.3855421686747" type="line"/>
      <point x="545.9277108433736" y="322.3855421686747" type="line"/>
      <point x="545.9277108433736" y="231.51807228915663" type="line"/>
      <point x="895.3253012048192" y="231.51807228915663" type="line"/>
      <point x="895.3253012048192" y="272.43373493975906" type="line" smooth="yes"/>
      <point x="895.3253012048192" y="441.1686746987952"/>
      <point x="806.5783132530121" y="553.4698795180723"/>
      <point x="654.9879518072289" y="553.4698795180723" type="curve" smooth="yes"/>
      <point x="566.7349397590361" y="553.4698795180723"/>
      <point x="497.6746987951807" y="512.7951807228916"/>
      <point x="456.0963855421687" y="442.9397590361446" type="curve"/>
      <point x="510.8674698795181" y="442.9397590361446" type="line"/>
      <point x="464.92771084337346" y="519.1445783132531"/>
      <point x="393.12048192771084" y="553.4698795180723"/>
      <point x="298.132530120482" y="553.4698795180723" type="curve" smooth="yes"/>
      <point x="135.5421686746988" y="553.4698795180723"/>
      <point x="29.060240963855424" y="449.45783132530124"/>
      <point x="29.060240963855424" y="272.7349397590362" type="curve" smooth="yes"/>
      <point x="29.060240963855424" y="94.73493975903614"/>
      <point x="135.5421686746988" y="-11.27710843373494"/>
    </contour>
    <contour>
      <point x="301.4096385542169" y="121.75903614457832" type="curve" smooth="yes"/>
      <point x="244.46987951807228" y="121.75903614457832"/>
      <point x="208.06024096385542" y="164.710843373494"/>
      <point x="208.06024096385542" y="271.9156626506024" type="curve" smooth="yes"/>
      <point x="208.06024096385542" y="378.66265060240966"/>
      <point x="244.289156626506" y="420.43373493975906"/>
      <point x="300.7710843373494" y="420.43373493975906" type="curve" smooth="yes"/>
      <point x="357.710843373494" y="420.43373493975906"/>
      <point x="393.48192771084337" y="378.66265060240966"/>
      <point x="393.48192771084337" y="271.9156626506024" type="curve" smooth="yes"/>
      <point x="393.48192771084337" y="164.710843373494"/>
      <point x="357.89156626506025" y="121.75903614457832"/>
    </contour>
  </outline>
</glyph>
<glyph name="Bhook" format="2">
  <advance width="883.3373493975903"/>
  <unicode hex="0181"/>
  <outline>
    <contour>
      <point x="245.51807228915663" y="0.0" type="line"/>
      <point x="595.1686746987951" y="0.0" type="line" smooth="yes"/>
      <point x="748.3614457831326" y="0.0"/>
      <point x="842.8313253012049" y="76.46987951807229"/>
      <point x="842.8313253012049" y="200.19277108433735" type="curve" smooth="yes"/>
      <point x="842.8313253012049" y="293.6385542168675"/>
      <point x="788.6626506024096" y="355.0"/>
      <point x="692.578313253012" y="373.1927710843374" type="curve"/>
      <point x="692.578313253012" y="356.91566265060237" type="line"/>
      <point x="773.7469879518072" y="377.5542168674699"/>
      <point x="824.1927710843373" y="439.1927710843374"/>
      <point x="824.1927710843373" y="522.6385542168674" type="curve" smooth="yes"/>
      <point x="824.1927710843373" y="634.0843373493975"/>
      <point x="737.277108433735" y="705.0"/>
      <point x="585.4457831325301" y="705.0" type="curve" smooth="yes"/>
      <point x="231.6265060240964" y="705.0" type="line" smooth="yes"/>
      <point x="77.57831325301206" y="705.0"/>
      <point x="0.0" y="633.6987951807229"/>
      <point x="0.0" y="501.2048192771084" type="curve" smooth="yes"/>
      <point x="0.0" y="445.3734939759036" type="line"/>
      <point x="147.14457831325302" y="445.3734939759036" type="line"/>
      <point x="147.14457831325302" y="495.56626506024094" type="line" smooth="yes"/>
      <point x="147.14457831325302" y="555.2650602409639"/>
      <point x="171.3975903614458" y="580.156626506024"/>
      <point x="227.18072289156626" y="580.156626506024" type="curve" smooth="yes"/>
      <point x="245.51807228915663" y="580.156626506024" type="line"/>
    </contour>
    <contour>
      <point x="420.8795180722891" y="134.67469879518072" type="line"/>
      <point x="420.8795180722891" y="290.48192771084337" type="line"/>
      <point x="570.2289156626506" y="290.48192771084337" type="line" smooth="yes"/>
      <point x="638.5180722891566" y="290.48192771084337"/>
      <point x="668.3855421686748" y="264.78313253012044"/>
      <point x="668.3855421686748" y="212.57831325301203" type="curve" smooth="yes"/>
      <point x="668.3855421686748" y="160.73493975903614"/>
      <point x="638.5180722891566" y="134.67469879518072"/>
      <point x="570.2289156626506" y="134.67469879518072" type="curve" smooth="yes"/>
    </contour>
    <contour>
      <point x="420.8795180722891" y="425.15662650602405" type="line"/>
      <point x="420.8795180722891" y="570.3253012048193" type="line"/>
      <point x="551.9518072289156" y="570.3253012048193" type="line" smooth="yes"/>
      <point x="619.5180722891566" y="570.3253012048193"/>
      <point x="649.1084337349397" y="547.8192771084337"/>
      <point x="649.1084337349397" y="498.0602409638554" type="curve" smooth="yes"/>
      <point x="649.1084337349397" y="448.3012048192771"/>
      <point x="619.5180722891566" y="425.15662650602405"/>
      <point x="551.9518072289156" y="425.15662650602405" type="curve" smooth="yes"/>
    </contour>
  </outline>
</glyph>
<glyph name="Schwa" format="2">
  <advance width="807.3493975903615"/>
  <unicode hex="018F"/>
  <anchor x="407.0481927710843" y="0.0" name="bottom"/>
  <anchor x="407.0481927710843" y="705.0" name="top"/>
  <outline>
    <contour>
      <point x="412.13253012048193" y="-11.27710843373494" type="curve" smooth="yes"/>
      <point x="616.7951807228916" y="-11.27710843373494"/>
      <point x="762.0120481927711" y="131.63855421686745"/>
      <point x="762.0120481927711" y="351.3614457831325" type="curve" smooth="yes"/>
      <point x="762.0120481927711" y="577.0"/>
      <point x="608.7951807228916" y="716.277108433735"/>
      <point x="379.5783132530121" y="716.277108433735" type="curve" smooth="yes"/>
      <point x="256.4698795180723" y="716.277108433735"/>
      <point x="149.80722891566265" y="686.9156626506024"/>
      <point x="76.61445783132531" y="640.9397590361446" type="curve"/>
      <point x="136.3012048192771" y="502.07228915662654" type="line"/>
      <point x="201.66265060240966" y="542.132530120482"/>
      <point x="277.49397590361446" y="562.2168674698795"/>
      <point x="355.6385542168675" y="562.2168674698795" type="curve" smooth="yes"/>
      <point x="498.3132530120482" y="562.2168674698795"/>
      <point x="571.1807228915662" y="490.45783132530124"/>
      <point x="571.1807228915662" y="353.0" type="curve" smooth="yes"/>
      <point x="571.1807228915662" y="206.07228915662648"/>
      <point x="511.50602409638554" y="135.59036144578312"/>
      <point x="402.9397590361446" y="135.59036144578312" type="curve" smooth="yes"/>
      <point x="290.7590361445783" y="135.59036144578312"/>
      <point x="232.25301204819277" y="204.9879518072289"/>
      <point x="232.25301204819277" y="353.0" type="curve"/>
      <point x="184.2048192771084" y="282.2048192771084" type="line"/>
      <point x="617.7831325301205" y="282.2048192771084" type="line"/>
      <point x="617.7831325301205" y="422.6024096385542" type="line"/>
      <point x="45.6987951807229" y="422.6024096385542" type="line"/>
      <point x="45.6987951807229" y="366.0240963855422" type="line" smooth="yes"/>
      <point x="45.6987951807229" y="143.4698795180723"/>
      <point x="173.27710843373492" y="-11.27710843373494"/>
    </contour>
  </outline>
</glyph>
<glyph name="florin" format="2">
  <advance width="600.0"/>
  <unicode hex="0192"/>
  <outline>
    <contour>
      <point x="21.144578313253014" y="-191.27710843373492" type="line"/>
      <point x="103.74698795180723" y="-191.27710843373492" type="line" smooth="yes"/>
      <point x="223.04819277108433" y="-191.27710843373492"/>
      <point x="307.4578313253012" y="-115.97590361445785"/>
      <point x="335.6506024096385" y="17.710843373493972" type="curve" smooth="yes"/>
      <point x="413.7951807228916" y="383.54216867469876" type="line"/>
      <point x="390.2409638554217" y="361.15662650602405" type="line"/>
      <point x="540.3253012048193" y="361.15662650602405" type="line"/>
      <point x="540.3253012048193" y="492.1927710843374" type="line"/>
      <point x="410.43373493975906" y="492.1927710843374" type="line"/>
      <point x="432.5421686746988" y="472.0" type="line"/>
      <point x="439.07228915662654" y="502.28915662650604" type="line" smooth="yes"/>
      <point x="450.51807228915663" y="554.6024096385541"/>
      <point x="474.13253012048193" y="577.3253012048192"/>
      <point x="525.1084337349398" y="577.3253012048192" type="curve" smooth="yes"/>
      <point x="578.4939759036145" y="577.3253012048192" type="line"/>
      <point x="578.4939759036145" y="716.277108433735" type="line"/>
      <point x="504.44578313253015" y="716.277108433735" type="line" smooth="yes"/>
      <point x="378.5903614457832" y="716.277108433735"/>
      <point x="290.34939759036143" y="639.9759036144578"/>
      <point x="264.34939759036143" y="506.28915662650604" type="curve" smooth="yes"/>
      <point x="257.45783132530124" y="472.0" type="line"/>
      <point x="291.3975903614458" y="492.1927710843374" type="line"/>
      <point x="139.4819277108434" y="492.1927710843374" type="line"/>
      <point x="139.4819277108434" y="361.15662650602405" type="line"/>
      <point x="270.0120481927711" y="361.15662650602405" type="line"/>
      <point x="238.710843373494" y="383.8192771084337" type="line"/>
      <point x="161.9277108433735" y="21.710843373493972" type="line" smooth="yes"/>
      <point x="150.48192771084337" y="-31.240963855421697"/>
      <point x="126.50602409638553" y="-52.68674698795181"/>
      <point x="89.63855421686746" y="-52.68674698795181" type="curve" smooth="yes"/>
      <point x="21.144578313253014" y="-52.68674698795181" type="line"/>
    </contour>
  </outline>
</glyph>
<glyph name="Yhook" format="2">
  <advance width="670.722891566265"/>
  <unicode hex="01B3"/>
  <outline>
    <contour>
      <point x="230.31325301204822" y="0.0" type="line"/>
      <point x="413.86746987951807" y="0.0" type="line"/>
      <point x="413.86746987951807" y="360.44578313253015" type="line"/>
      <point x="377.0120481927711" y="258.54216867469876" type="line"/>
      <point x="569.6265060240964" y="541.0722891566265" type="line" smooth="yes"/>
      <point x="592.0722891566265" y="573.5180722891566"/>
      <point x="622.9879518072289" y="585.8795180722891"/>
      <point x="653.710843373494" y="585.8795180722891" type="curve" smooth="yes"/>
      <point x="674.710843373494" y="585.8795180722891"/>
      <point x="689.3493975903614" y="584.5180722891566"/>
      <point x="703.9879518072289" y="579.5180722891566" type="curve"/>
      <point x="703.9879518072289" y="701.722891566265" type="line"/>
      <point x="686.3493975903615" y="710.0"/>
      <point x="650.7710843373494" y="715.277108433735"/>
      <point x="620.578313253012" y="715.277108433735" type="curve" smooth="yes"/>
      <point x="523.7831325301205" y="715.277108433735"/>
      <point x="460.9277108433735" y="679.5301204819277"/>
      <point x="412.45783132530124" y="606.9518072289156" type="curve" smooth="yes"/>
      <point x="306.9397590361446" y="449.28915662650604" type="line"/>
      <point x="342.87951807228916" y="449.28915662650604" type="line"/>
      <point x="170.25301204819277" y="705.0" type="line"/>
      <point x="-41.325301204819276" y="705.0" type="line"/>
      <point x="267.53012048192767" y="258.54216867469876" type="line"/>
      <point x="230.31325301204822" y="360.44578313253015" type="line"/>
    </contour>
  </outline>
</glyph>
<glyph name="yhook" format="2">
  <advance width="595.2650602409639"/>
  <unicode hex="01B4"/>
  <outline>
    <contour>
      <point x="344.3734939759036" y="420.2289156626506" type="curve" smooth="yes"/>
      <point x="258.2048192771084" y="181.2168674698795" type="line"/>
      <point x="291.2168674698795" y="181.2168674698795" type="line"/>
      <point x="168.3132530120482" y="542.1927710843374" type="line"/>
      <point x="-19.963855421686745" y="542.1927710843374" type="line"/>
      <point x="193.03614457831327" y="-3.2530120481927725" type="line"/>
      <point x="193.03614457831327" y="56.1566265060241" type="line"/>
      <point x="94.45783132530123" y="-180.0" type="line"/>
      <point x="275.81927710843377" y="-180.0" type="line"/>
      <point x="486.51807228915663" y="352.72289156626505" type="line" smooth="yes"/>
      <point x="504.96385542168673" y="398.6987951807229"/>
      <point x="535.3373493975904" y="416.51807228915663"/>
      <point x="568.5060240963855" y="416.51807228915663" type="curve" smooth="yes"/>
      <point x="582.144578313253" y="416.51807228915663"/>
      <point x="593.867469879518" y="416.15662650602405"/>
      <point x="608.144578313253" y="411.15662650602405" type="curve"/>
      <point x="630.5301204819277" y="539.2771084337348" type="line"/>
      <point x="613.8915662650602" y="547.5542168674699"/>
      <point x="576.3132530120481" y="553.4698795180723"/>
      <point x="544.843373493976" y="553.4698795180723" type="curve" smooth="yes"/>
      <point x="430.5903614457832" y="553.4698795180723"/>
      <point x="373.10843373493975" y="500.2530120481928"/>
    </contour>
  </outline>
</glyph>
<glyph name="gstroke" format="2">
  <advance width="625.710843373494"/>
  <unicode hex="01E5"/>
  <outline>
    <contour>
      <point x="295.55421686746985" y="-191.27710843373492" type="curve" smooth="yes"/>
      <point x="442.1686746987952" y="-191.27710843373492"/>
      <point x="534.5783132530121" y="-134.97590361445785"/>
      <point x="564.3975903614457" y="-20.108433734939762" type="curve"/>
      <point x="551.3253012048193" y="-29.3855421686747" type="line"/>
      <point x="623.5421686746988" y="-29.3855421686747" type="line"/>
      <point x="623.5421686746988" y="51.71084337349397" type="line"/>
      <point x="562.6746987951807" y="51.71084337349397" type="line"/>
      <point x="571.2168674698795" y="19.469879518072286" type="line"/>
      <point x="573.578313253012" y="34.01204819277109"/>
      <point x="574.1204819277109" y="48.265060240963855"/>
      <point x="574.1204819277109" y="63.144578313253014" type="curve" smooth="yes"/>
      <point x="574.1204819277109" y="542.1927710843374" type="line"/>
      <point x="400.5783132530121" y="542.1927710843374" type="line"/>
      <point x="400.5783132530121" y="455.44578313253015" type="line"/>
      <point x="408.3975903614458" y="457.27710843373495" type="line"/>
      <point x="388.30120481927713" y="515.1325301204819"/>
      <point x="322.2168674698795" y="553.4698795180723"/>
      <point x="248.69879518072287" y="553.4698795180723" type="curve" smooth="yes"/>
      <point x="118.15662650602411" y="553.4698795180723"/>
      <point x="29.060240963855424" y="458.7590361445783"/>
      <point x="29.060240963855424" y="311.855421686747" type="curve" smooth="yes"/>
      <point x="29.060240963855424" y="165.59036144578315"/>
      <point x="118.15662650602411" y="71.51807228915662"/>
      <point x="248.69879518072287" y="71.51807228915662" type="curve" smooth="yes"/>
      <point x="320.578313253012" y="71.51807228915662"/>
      <point x="388.30120481927713" y="109.85542168674698"/>
      <point x="409.21686746987956" y="167.25301204819277" type="curve"/>
      <point x="401.03614457831327" y="167.25301204819277" type="line"/>
      <point x="401.03614457831327" y="48.74698795180723" type="line" smooth="yes"/>
      <point x="401.03614457831327" y="36.39759036144578"/>
      <point x="401.03614457831327" y="26.674698795180724"/>
      <point x="399.31325301204816" y="16.048192771084334" type="curve"/>
      <point x="410.04819277108436" y="51.71084337349397" type="line"/>
      <point x="276.95180722891564" y="51.71084337349397" type="line"/>
      <point x="276.95180722891564" y="-29.3855421686747" type="line"/>
      <point x="391.89156626506025" y="-29.3855421686747" type="line"/>
      <point x="384.8674698795181" y="-22.746987951807228" type="line"/>
      <point x="366.0602409638554" y="-51.19277108433735"/>
      <point x="331.43373493975906" y="-64.81927710843372"/>
      <point x="278.5301204819277" y="-64.81927710843372" type="curve" smooth="yes"/>
      <point x="222.19277108433735" y="-64.81927710843372"/>
      <point x="144.06024096385542" y="-45.26506024096386"/>
      <point x="92.98795180722891" y="-11.999999999999995" type="curve"/>
      <point x="46.95180722891567" y="-131.4698795180723" type="line"/>
      <point x="108.86746987951808" y="-173.19277108433735"/>
      <point x="197.5301204819277" y="-191.27710843373492"/>
    </contour>
    <contour>
      <point x="303.4096385542168" y="202.0" type="curve" smooth="yes"/>
      <point x="247.65060240963857" y="202.0"/>
      <point x="208.06024096385542" y="239.75903614457832"/>
      <point x="208.06024096385542" y="311.3975903614458" type="curve" smooth="yes"/>
      <point x="208.06024096385542" y="383.03614457831327"/>
      <point x="246.8313253012048" y="422.07228915662654"/>
      <point x="303.4096385542168" y="422.07228915662654" type="curve" smooth="yes"/>
      <point x="359.9879518072289" y="422.07228915662654"/>
      <point x="398.5783132530121" y="382.85542168674704"/>
      <point x="398.5783132530121" y="311.3975903614458" type="curve" smooth="yes"/>
      <point x="398.5783132530121" y="240.57831325301206"/>
      <point x="359.8072289156626" y="202.0"/>
    </contour>
  </outline>
</glyph>
<glyph name="dhook" format="2">
  <advance width="620.433734939759"/>
  <unicode hex="0257"/>
  <outline>
    <contour>
      <point x="243.42168674698792" y="-11.27710843373494" type="curve" smooth="yes"/>
      <point x="319.855421686747" y="-11.27710843373494"/>
      <point x="385.5783132530121" y="30.072289156626507"/>
      <point x="404.30120481927713" y="96.12048192771084" type="curve"/>
      <point x="395.30120481927713" y="96.12048192771084" type="line"/>
      <point x="395.30120481927713" y="0.0" type="line"/>
      <point x="568.843373493976" y="0.0" type="line"/>
      <point x="568.843373493976" y="492.26506024096386" type="line" smooth="yes"/>
      <point x="568.843373493976" y="557.9879518072289"/>
      <point x="601.2048192771084" y="578.9638554216867"/>
      <point x="640.3493975903614" y="578.9638554216867" type="curve" smooth="yes"/>
      <point x="654.3493975903615" y="578.9638554216867"/>
      <point x="664.6265060240963" y="577.9638554216867"/>
      <point x="680.3493975903615" y="573.9638554216867" type="curve"/>
      <point x="700.0963855421686" y="704.3614457831325" type="line"/>
      <point x="681.8192771084337" y="711.6385542168674"/>
      <point x="646.5180722891566" y="716.277108433735"/>
      <point x="620.3253012048192" y="716.277108433735" type="curve" smooth="yes"/>
      <point x="467.69879518072287" y="716.277108433735"/>
      <point x="390.84337349397595" y="623.9518072289158"/>
      <point x="390.84337349397595" y="510.7469879518072" type="curve" smooth="yes"/>
      <point x="390.84337349397595" y="452.9879518072289" type="line"/>
      <point x="402.66265060240966" y="452.9879518072289" type="line"/>
      <point x="382.30120481927713" y="513.7590361445783"/>
      <point x="317.5783132530121" y="553.4698795180723"/>
      <point x="243.42168674698792" y="553.4698795180723" type="curve" smooth="yes"/>
      <point x="116.51807228915662" y="553.4698795180723"/>
      <point x="29.060240963855424" y="451.0963855421687"/>
      <point x="29.060240963855424" y="271.27710843373495" type="curve" smooth="yes"/>
      <point x="29.060240963855424" y="92.45783132530121"/>
      <point x="116.69879518072288" y="-11.27710843373494"/>
    </contour>
    <contour>
      <point x="300.7710843373494" y="122.57831325301204" type="curve" smooth="yes"/>
      <point x="244.289156626506" y="122.57831325301204"/>
      <point x="208.06024096385542" y="164.710843373494"/>
      <point x="208.06024096385542" y="272.09638554216866" type="curve" smooth="yes"/>
      <point x="208.06024096385542" y="379.6626506024096"/>
      <point x="244.289156626506" y="421.25301204819283"/>
      <point x="300.7710843373494" y="421.25301204819283" type="curve" smooth="yes"/>
      <point x="357.710843373494" y="421.25301204819283"/>
      <point x="393.48192771084337" y="379.6626506024096"/>
      <point x="393.48192771084337" y="272.09638554216866" type="curve" smooth="yes"/>
      <point x="393.48192771084337" y="164.710843373494"/>
      <point x="357.710843373494" y="122.57831325301204"/>
    </contour>
  </outline>
</glyph>
<glyph name="schwa" format="2">
  <advance width="555.7710843373494"/>
  <unicode hex="0259"/>
  <outline>
    <contour>
      <point x="272.8433734939759" y="-11.27710843373494" type="curve" smooth="yes"/>
      <point x="422.4216867469879" y="-11.27710843373494"/>
      <point x="526.710843373494" y="107.74698795180723"/>
      <point x="526.710843373494" y="270.1807228915663" type="curve" smooth="yes"/>
      <point x="526.710843373494" y="448.8192771084337"/>
      <point x="411.95180722891564" y="553.4698795180723"/>
      <point x="240.4578313253012" y="553.4698795180723" type="curve" smooth="yes"/>
      <point x="170.18072289156626" y="553.4698795180723"/>
      <point x="87.25301204819277" y="531.1084337349397"/>
      <point x="29.42168674698795" y="487.3012048192771" type="curve"/>
      <point x="79.63855421686746" y="371.9156626506024" type="line"/>
      <point x="131.4578313253012" y="406.34939759036143"/>
      <point x="188.09638554216866" y="421.07228915662654"/>
      <point x="234.08433734939757" y="421.07228915662654" type="curve" smooth="yes"/>
      <point x="312.855421686747" y="421.07228915662654"/>
      <point x="359.1807228915663" y="379.6626506024096"/>
      <point x="359.1807228915663" y="272.27710843373495" type="curve" smooth="yes"/>
      <point x="359.1807228915663" y="258.9036144578313" type="line" smooth="yes"/>
      <point x="359.1807228915663" y="154.24096385542168"/>
      <point x="320.7710843373494" y="110.28915662650603"/>
      <point x="265.09638554216866" y="110.28915662650603" type="curve" smooth="yes"/>
      <point x="208.44578313253012" y="110.28915662650603"/>
      <point x="178.48192771084337" y="147.79518072289156"/>
      <point x="178.48192771084337" y="235.25301204819277" type="curve"/>
      <point x="156.2048192771084" y="219.80722891566262" type="line"/>
      <point x="377.81927710843377" y="219.80722891566262" type="line"/>
      <point x="377.81927710843377" y="310.67469879518075" type="line"/>
      <point x="25.060240963855424" y="310.67469879518075" type="line"/>
      <point x="25.060240963855424" y="262.92771084337346" type="line" smooth="yes"/>
      <point x="25.060240963855424" y="89.83132530120481"/>
      <point x="114.98795180722892" y="-11.27710843373494"/>
    </contour>
  </outline>
</glyph>
<glyph name="commaturnedmod" format="2">
  <advance width="500.0"/>
  <unicode hex="02BB"/>
  <anchor x="250.0" y="484.0" name="_top"/>
  <anchor x="250.0" y="685.0" name="top"/>
  <outline>
    <contour>
      <point x="165.2048192771084" y="604.265060240964" type="line"/>
      <point x="334.15662650602405" y="604.265060240964" type="line"/>
      <point x="334.15662650602405" y="726.3373493975903" type="line"/>
      <point x="215.97590361445785" y="726.3373493975903" type="line"/>
      <point x="252.0" y="705.8674698795181" type="line"/>
      <point x="252.0" y="730.5060240963857"/>
      <point x="260.91566265060237" y="754.5060240963857"/>
      <point x="284.8192771084337" y="774.3132530120482" type="curve"/>
      <point x="224.40963855421685" y="813.156626506024" type="line"/>
      <point x="180.12048192771084" y="775.7831325301205"/>
      <point x="165.2048192771084" y="731.2289156626506"/>
      <point x="165.2048192771084" y="674.9277108433736" type="curve" smooth="yes"/>
    </contour>
  </outline>
</glyph>
<glyph name="apostrophemod" format="2">
  <advance width="381.9277108433735"/>
  <unicode hex="02BC"/>
  <outline>
    <contour>
      <point x="215.9156626506024" y="609.4457831325301" type="line"/>
      <point x="260.2048192771084" y="647.6385542168674"/>
      <point x="275.12048192771084" y="690.8313253012049"/>
      <point x="275.12048192771084" y="747.4939759036145" type="curve" smooth="yes"/>
      <point x="275.12048192771084" y="817.9759036144578" type="line"/>
      <point x="106.16867469879517" y="817.9759036144578" type="line"/>
      <point x="106.16867469879517" y="695.722891566265" type="line"/>
      <point x="224.34939759036146" y="695.722891566265" type="line"/>
      <point x="188.32530120481928" y="717.1927710843373" type="line"/>
      <point x="188.32530120481928" y="691.5542168674698"/>
      <point x="179.40963855421688" y="668.5542168674698"/>
      <point x="155.50602409638554" y="647.7469879518072" type="curve"/>
    </contour>
  </outline>
</glyph>
<glyph name="ringhalfright" format="2">
  <advance width="500.0"/>
  <unicode hex="02BE"/>
  <anchor x="250.0" y="484.0" name="_top"/>
  <anchor x="250.0" y="685.0" name="top"/>
  <outline>
    <contour>
      <point x="250.0" y="598.8072289156627" type="line"/>
      <point x="313.5542168674699" y="598.8072289156627"/>
      <point x="362.7469879518072" y="647.0"/>
      <point x="362.7469879518072" y="709.8313253012047" type="curve" smooth="yes"/>
      <point x="362.7469879518072" y="772.0240963855422"/>
      <point x="313.5542168674699" y="820.5783132530121"/>
      <point x="250.0" y="820.5783132530121" type="curve"/>
      <point x="250.0" y="754.0843373493975" type="line"/>
      <point x="275.16867469879514" y="754.0843373493975"/>
      <point x="292.2530120481928" y="734.6385542168675"/>
      <point x="292.2530120481928" y="709.8313253012047" type="curve" smooth="yes"/>
      <point x="292.2530120481928" y="685.3855421686746"/>
      <point x="275.16867469879514" y="665.3012048192771"/>
      <point x="250.0" y="665.3012048192771" type="curve"/>
    </contour>
  </outline>
</glyph>
<glyph name="verticallinemod" format="2">
  <advance width="500.0"/>
  <unicode hex="02C8"/>
  <outline>
    <contour>
      <point x="197.2289156626506" y="642.722891566265" type="line"/>
      <point x="302.7710843373494" y="642.722891566265" type="line"/>
      <point x="302.7710843373494" y="829.7349397590363" type="line"/>
      <point x="197.2289156626506" y="829.7349397590363" type="line"/>
    </contour>
  </outline>
</glyph>
<glyph name="gravecomb" format="2">
  <unicode hex="0300"/>
  <anchor x="0.0" y="484.0" name="_top"/>
  <anchor x="0.0" y="685.0" name="top"/>
  <outline>
    <contour>
      <point x="-57.325301204819276" y="602.4578313253012" type="line"/>
      <point x="57.325301204819276" y="602.4578313253012" type="line"/>
      <point x="-44.03614457831326" y="788.012048192771" type="line"/>
      <point x="-211.09638554216866" y="788.012048192771" type="line"/>
    </contour>
  </outline>
</glyph>
<glyph name="circumflexcomb" format="2">
  <unicode hex="0302"/>
  <anchor x="0.0" y="484.0" name="_top"/>
  <anchor x="0.0" y="685.0" name="top"/>
  <outline>
    <contour>
      <point x="-185.43373493975903" y="602.4578313253012" type="line"/>
      <point x="-77.33734939759036" y="602.4578313253012" type="line"/>
      <point x="0.0" y="697.3975903614459" type="line"/>
      <point x="77.33734939759036" y="602.4578313253012" type="line"/>
      <point x="185.43373493975903" y="602.4578313253012" type="line"/>
      <point x="74.1566265060241" y="788.012048192771" type="line"/>
      <point x="-74.1566265060241" y="788.012048192771" type="line"/>
    </contour>
  </outline>
</glyph>
<glyph name="tildecomb" format="2">
  <unicode hex="0303"/>
  <anchor x="0.0" y="484.0" name="_top"/>
  <anchor x="0.0" y="685.0" name="top"/>
  <outline>
    <contour>
      <point x="-129.6265060240964" y="616.4216867469879" type="line"/>
      <point x="-123.08433734939759" y="649.6626506024095"/>
      <point x="-104.4578313253012" y="665.7469879518071"/>
      <point x="-69.36144578313252" y="665.7469879518071" type="curve" smooth="yes"/>
      <point x="-50.36144578313253" y="665.7469879518071"/>
      <point x="-33.72289156626506" y="659.843373493976"/>
      <point x="-10.180722891566264" y="646.6746987951807" type="curve" smooth="yes"/>
      <point x="20.987951807228917" y="628.8795180722891"/>
      <point x="45.36144578313253" y="621.6987951807229"/>
      <point x="75.63855421686748" y="621.6987951807229" type="curve" smooth="yes"/>
      <point x="150.4819277108434" y="621.6987951807229"/>
      <point x="205.42168674698794" y="676.7108433734941"/>
      <point x="210.6024096385542" y="775.1204819277109" type="curve"/>
      <point x="129.6265060240964" y="780.3975903614457" type="line"/>
      <point x="122.80722891566265" y="746.6024096385543"/>
      <point x="103.72289156626506" y="730.2530120481929"/>
      <point x="69.72289156626506" y="730.2530120481929" type="curve" smooth="yes"/>
      <point x="50.265060240963855" y="730.2530120481929"/>
      <point x="34.08433734939759" y="736.9759036144578"/>
      <point x="10.0" y="750.3253012048193" type="curve" smooth="yes"/>
      <point x="-18.44578313253012" y="765.2168674698795"/>
      <point x="-41.81927710843373" y="775.1204819277109"/>
      <point x="-75.27710843373494" y="775.1204819277109" type="curve" smooth="yes"/>
      <point x="-150.12048192771087" y="775.1204819277109"/>
      <point x="-205.06024096385542" y="719.2891566265059"/>
      <point x="-210.6024096385542" y="621.6987951807229" type="curve"/>
    </contour>
  </outline>
</glyph>
<glyph name="macroncomb" format="2">
  <unicode hex="0304"/>
  <anchor x="0.0" y="484.0" name="_top"/>
  <anchor x="0.0" y="685.0" name="top"/>
  <outline>
    <contour>
      <point x="-168.49397590361446" y="650.6265060240964" type="line"/>
      <point x="168.85542168674698" y="650.6265060240964" type="line"/>
      <point x="168.85542168674698" y="747.6144578313254" type="line"/>
      <point x="-168.49397590361446" y="747.6144578313254" type="line"/>
    </contour>
  </outline>
</glyph>
<glyph name="dieresiscomb" format="2">
  <unicode hex="0308"/>
  <anchor x="0.0" y="484.0" name="_top"/>
  <anchor x="0.0" y="685.0" name="top"/>
  <outline>
    <contour>
      <point x="28.337349397590366" y="620.4216867469879" type="line"/>
      <point x="177.5421686746988" y="620.4216867469879" type="line"/>
      <point x="177.5421686746988" y="769.9036144578314" type="line"/>
      <point x="28.337349397590366" y="769.9036144578314" type="line"/>
    </contour>
    <contour>
      <point x="-177.5421686746988" y="620.4216867469879" type="line"/>
      <point x="-28.337349397590366" y="620.4216867469879" type="line"/>
      <point x="-28.337349397590366" y="769.9036144578314" type="line"/>
      <point x="-177.5421686746988" y="769.9036144578314" type="line"/>
    </contour>
  </outline>
</glyph>
<glyph name="hookabovecomb" format="2">
  <unicode hex="0309"/>
  <anchor x="0.0" y="484.0" name="_top"/>
  <anchor x="0.0" y="685.0" name="top"/>
  <outline>
    <contour>
      <point x="-50.77108433734939" y="602.4578313253012" type="line"/>
      <point x="50.77108433734939" y="602.4578313253012" type="line"/>
      <point x="50.77108433734939" y="618.0963855421686" type="line" smooth="yes"/>
      <point x="50.77108433734939" y="661.3614457831326"/>
      <point x="126.40963855421687" y="664.3614457831325"/>
      <point x="126.40963855421687" y="727.277108433735" type="curve" smooth="yes"/>
      <point x="126.40963855421687" y="772.0120481927711"/>
      <point x="82.57831325301206" y="797.1084337349397"/>
      <point x="7.9156626506024095" y="797.1084337349397" type="curve" smooth="yes"/>
      <point x="-41.92771084337349" y="797.1084337349397"/>
      <point x="-84.3132530120482" y="788.6506024096385"/>
      <point x="-116.78313253012047" y="773.3734939759036" type="curve"/>
      <point x="-92.21686746987953" y="707.9638554216868" type="line"/>
      <point x="-73.13253012048193" y="716.5060240963855"/>
      <point x="-56.40963855421687" y="720.9638554216867"/>
      <point x="-34.77108433734939" y="720.9638554216867" type="curve" smooth="yes"/>
      <point x="-15.156626506024097" y="720.9638554216867"/>
      <point x="-2.4337349397590344" y="716.2409638554217"/>
      <point x="-2.4337349397590344" y="702.5180722891566" type="curve" smooth="yes"/>
      <point x="-2.4337349397590344" y="676.8072289156627"/>
      <point x="-50.77108433734939" y="664.710843373494"/>
      <point x="-50.77108433734939" y="622.734939759036" type="curve" smooth="yes"/>
    </contour>
  </outline>
</glyph>
<glyph name="ringcomb" format="2">
  <unicode hex="030A"/>
  <anchor x="0.0" y="484.0" name="_top"/>
  <anchor x="0.0" y="685.0" name="top"/>
  <outline>
    <contour>
      <point x="0.0" y="594.722891566265" type="curve" smooth="yes"/>
      <point x="73.65060240963857" y="594.722891566265"/>
      <point x="130.84337349397592" y="649.6385542168675"/>
      <point x="130.84337349397592" y="721.289156626506" type="curve" smooth="yes"/>
      <point x="130.84337349397592" y="792.9397590361446"/>
      <point x="73.65060240963857" y="847.4939759036145"/>
      <point x="0.0" y="847.4939759036145" type="curve" smooth="yes"/>
      <point x="-73.65060240963857" y="847.4939759036145"/>
      <point x="-130.84337349397592" y="792.9397590361446"/>
      <point x="-130.84337349397592" y="721.289156626506" type="curve" smooth="yes"/>
      <point x="-130.84337349397592" y="649.6385542168675"/>
      <point x="-73.65060240963857" y="594.722891566265"/>
    </contour>
    <contour>
      <point x="0.0" y="663.5903614457831" type="curve" smooth="yes"/>
      <point x="-31.89156626506024" y="663.5903614457831"/>
      <point x="-56.69879518072289" y="687.7590361445783"/>
      <point x="-56.69879518072289" y="721.289156626506" type="curve" smooth="yes"/>
      <point x="-56.69879518072289" y="754.4578313253012"/>
      <point x="-31.89156626506024" y="777.9879518072288"/>
      <point x="0.0" y="777.9879518072288" type="curve" smooth="yes"/>
      <point x="32.25301204819277" y="777.9879518072288"/>
      <point x="56.69879518072289" y="754.4578313253012"/>
      <point x="56.69879518072289" y="721.289156626506" type="curve" smooth="yes"/>
      <point x="56.69879518072289" y="687.7590361445783"/>
      <point x="32.25301204819277" y="663.5903614457831"/>
    </contour>
  </outline>
</glyph>
<glyph name="hungarumlautcomb" format="2">
  <unicode hex="030B"/>
  <anchor x="0.0" y="484.0" name="_top"/>
  <anchor x="0.0" y="685.0" name="top"/>
  <outline>
    <contour>
      <point x="38.72289156626506" y="602.4578313253012" type="line"/>
      <point x="129.6265060240964" y="602.4578313253012" type="line"/>
      <point x="224.0120481927711" y="788.012048192771" type="line"/>
      <point x="82.61445783132531" y="788.012048192771" type="line"/>
    </contour>
    <contour>
      <point x="-135.18072289156626" y="602.4578313253012" type="line"/>
      <point x="-44.27710843373494" y="602.4578313253012" type="line"/>
      <point x="50.46987951807229" y="788.012048192771" type="line"/>
      <point x="-90.92771084337349" y="788.012048192771" type="line"/>
    </contour>
  </outline>
</glyph>
<glyph name="dblgravecomb" format="2">
  <unicode hex="030F"/>
  <anchor x="0.0" y="484.0" name="_top"/>
  <anchor x="0.0" y="685.0" name="top"/>
  <outline>
    <contour>
      <point x="44.27710843373494" y="602.4578313253012" type="line"/>
      <point x="135.18072289156626" y="602.4578313253012" type="line"/>
      <point x="91.28915662650601" y="788.012048192771" type="line"/>
      <point x="-50.10843373493976" y="788.012048192771" type="line"/>
    </contour>
    <contour>
      <point x="-129.26506024096386" y="602.4578313253012" type="line"/>
      <point x="-38.36144578313253" y="602.4578313253012" type="line"/>
      <point x="-82.61445783132531" y="788.012048192771" type="line"/>
      <point x="-224.0120481927711" y="788.012048192771" type="line"/>
    </contour>
  </outline>
</glyph>
<glyph name="breveinvertedcomb" format="2">
  <unicode hex="0311"/>
  <anchor x="0.0" y="484.0" name="_top"/>
  <anchor x="0.0" y="685.0" name="top"/>
  <outline>
    <contour>
      <point x="-84.78313253012048" y="598.8192771084337" type="line"/>
      <point x="-78.96385542168674" y="653.0481927710844"/>
      <point x="-48.79518072289156" y="684.843373493976"/>
      <point x="0.0" y="684.843373493976" type="curve" smooth="yes"/>
      <point x="48.79518072289156" y="684.843373493976"/>
      <point x="78.96385542168674" y="653.0481927710844"/>
      <point x="84.78313253012048" y="598.8192771084337" type="curve"/>
      <point x="180.04819277108433" y="606.734939759036" type="line"/>
      <point x="175.6867469879518" y="714.8313253012047"/>
      <point x="103.66265060240964" y="785.5662650602409"/>
      <point x="0.0" y="785.5662650602409" type="curve" smooth="yes"/>
      <point x="-103.3012048192771" y="785.5662650602409"/>
      <point x="-175.32530120481928" y="714.8313253012047"/>
      <point x="-180.04819277108433" y="606.734939759036" type="curve"/>
    </contour>
  </outline>
</glyph>
<glyph name="commaturnedabovecomb" format="2">
  <unicode hex="0312"/>
  <anchor x="0.0" y="484.0" name="_top"/>
  <anchor x="0.0" y="685.0" name="top"/>
  <outline>
    <contour>
      <point x="-84.79518072289156" y="604.265060240964" type="line"/>
      <point x="84.1566265060241" y="604.265060240964" type="line"/>
      <point x="84.1566265060241" y="725.7951807228916" type="line"/>
      <point x="-33.8433734939759" y="725.7951807228916" type="line"/>
      <point x="1.819277108433735" y="705.3253012048193" type="line"/>
      <point x="1.819277108433735" y="730.8674698795181"/>
      <point x="11.277108433734938" y="754.6867469879518"/>
      <point x="34.81927710843373" y="775.0361445783133" type="curve"/>
      <point x="-25.59036144578313" y="813.3373493975903" type="line"/>
      <point x="-69.33734939759036" y="776.3253012048193"/>
      <point x="-84.79518072289156" y="731.4096385542168"/>
      <point x="-84.79518072289156" y="674.7469879518072" type="curve" smooth="yes"/>
    </contour>
  </outline>
</glyph>
<glyph name="horncomb" format="2">
  <unicode hex="031B"/>
  <anchor x="0.8192771084337349" y="534.0" name="_topright"/>
  <outline>
    <contour>
      <point x="107.57831325301206" y="461.5903614457832" type="line"/>
      <point x="184.19277108433735" y="472.144578313253"/>
      <point x="236.83132530120483" y="537.2530120481928"/>
      <point x="236.83132530120483" y="613.1445783132531" type="curve" smooth="yes"/>
      <point x="236.83132530120483" y="661.0" type="line"/>
      <point x="84.77108433734941" y="661.0" type="line"/>
      <point x="84.77108433734941" y="634.2530120481928" type="line" smooth="yes"/>
      <point x="84.77108433734941" y="556.6987951807229"/>
      <point x="54.21686746987953" y="542.5542168674699"/>
      <point x="0.8192771084337349" y="542.1927710843374" type="curve"/>
      <point x="0.8192771084337349" y="527.0240963855422" type="line"/>
    </contour>
  </outline>
</glyph>
<glyph name="dotbelowcomb" format="2">
  <unicode hex="0323"/>
  <anchor x="0.0" y="0.0" name="_bottom"/>
  <anchor x="0.0" y="-170.0" name="bottom"/>
  <outline>
    <contour>
      <point x="-79.51807228915663" y="-224.43373493975903" type="line"/>
      <point x="79.51807228915663" y="-224.43373493975903" type="line"/>
      <point x="79.51807228915663" y="-74.59036144578315" type="line"/>
      <point x="-79.51807228915663" y="-74.59036144578315" type="line"/>
    </contour>
  </outline>
</glyph>
<glyph name="cedillacomb" format="2">
  <unicode hex="0327"/>
  <anchor x="0.0" y="0.0" name="_bottom"/>
  <outline>
    <contour>
      <point x="-2.192771084337349" y="-198.19277108433735" type="curve" smooth="yes"/>
      <point x="72.27710843373494" y="-198.19277108433735"/>
      <point x="125.10843373493975" y="-162.91566265060243"/>
      <point x="125.10843373493975" y="-107.08433734939759" type="curve" smooth="yes"/>
      <point x="125.10843373493975" y="-59.53012048192771"/>
      <point x="88.4698795180723" y="-31.253012048192772"/>
      <point x="25.80722891566265" y="-31.253012048192772" type="curve" smooth="yes"/>
      <point x="11.807228915662652" y="-31.253012048192772"/>
      <point x="-4.831325301204819" y="-34.25301204819277"/>
      <point x="-20.192771084337352" y="-39.89156626506024" type="curve"/>
      <point x="20.746987951807228" y="-56.63855421686747" type="line"/>
      <point x="33.10843373493976" y="20.0" type="line"/>
      <point x="-51.77108433734939" y="20.0" type="line"/>
      <point x="-64.13253012048193" y="-65.53012048192771" type="line"/>
      <point x="-42.57831325301204" y="-87.36144578313254" type="line"/>
      <point x="-28.771084337349397" y="-84.27710843373494"/>
      <point x="-19.048192771084338" y="-83.27710843373494"/>
      <point x="-7.963855421686745" y="-83.27710843373494" type="curve" smooth="yes"/>
      <point x="18.036144578313255" y="-83.27710843373494"/>
      <point x="28.397590361445786" y="-89.36144578313254"/>
      <point x="28.397590361445786" y="-100.53012048192771" type="curve" smooth="yes"/>
      <point x="28.397590361445786" y="-115.42168674698796"/>
      <point x="13.867469879518069" y="-122.2289156626506"/>
      <point x="-21.132530120481924" y="-122.2289156626506" type="curve" smooth="yes"/>
      <point x="-45.93975903614458" y="-122.2289156626506"/>
      <point x="-72.40963855421687" y="-115.59036144578312"/>
      <point x="-95.7710843373494" y="-104.59036144578315" type="curve"/>
      <point x="-119.51807228915662" y="-175.27710843373492" type="line"/>
      <point x="-89.40963855421685" y="-190.55421686746988"/>
      <point x="-46.3012048192771" y="-198.19277108433735"/>
    </contour>
  </outline>
</glyph>
<glyph name="ogonekcomb" format="2">
  <unicode hex="0328"/>
  <anchor x="0.0" y="0.0" name="_ogonek"/>
  <outline>
    <contour>
      <point x="-24.19277108433735" y="-198.19277108433735" type="curve" smooth="yes"/>
      <point x="12.36144578313253" y="-198.19277108433735"/>
      <point x="37.72289156626506" y="-193.83132530120483"/>
      <point x="72.02409638554217" y="-180.55421686746988" type="curve"/>
      <point x="55.74698795180723" y="-101.03614457831327" type="line"/>
      <point x="36.10843373493976" y="-107.39759036144578"/>
      <point x="21.385542168674696" y="-110.7590361445783"/>
      <point x="0.46987951807228967" y="-110.7590361445783" type="curve" smooth="yes"/>
      <point x="-30.253012048192772" y="-110.7590361445783"/>
      <point x="-52.975903614457835" y="-94.3975903614458"/>
      <point x="-52.975903614457835" y="-66.14457831325302" type="curve" smooth="yes"/>
      <point x="-52.975903614457835" y="-40.44578313253012"/>
      <point x="-35.554216867469876" y="-14.0"/>
      <point x="0.0" y="0.0" type="curve"/>
      <point x="-47.855421686746986" y="48.385542168674704" type="line"/>
      <point x="-113.04819277108433" y="24.939759036144576"/>
      <point x="-157.51807228915663" y="-26.698795180722897"/>
      <point x="-157.51807228915663" y="-86.53012048192771" type="curve" smooth="yes"/>
      <point x="-157.51807228915663" y="-155.0"/>
      <point x="-109.6867469879518" y="-198.19277108433735"/>
    </contour>
  </outline>
</glyph>
<glyph name="slashshortcomb" format="2">
  <unicode hex="0337"/>
  <anchor x="-19.662650602409638" y="395.81927710843377" name="_center"/>
  <outline>
    <contour>
      <point x="-161.6265060240964" y="223.16867469879517" type="line"/>
      <point x="193.8192771084337" y="453.08433734939763" type="line"/>
      <point x="122.66265060240964" y="567.6506024096385" type="line"/>
      <point x="-231.96385542168673" y="336.9156626506024" type="line"/>
    </contour>
  </outline>
</glyph>
<glyph name="slashlongcomb" format="2">
  <unicode hex="0338"/>
  <anchor x="23.759036144578314" y="271.4578313253012" name="_center"/>
  <outline>
    <contour>
      <point x="-104.3253012048193" y="-69.49397590361446" type="line"/>
      <point x="237.0722891566265" y="567.3855421686746" type="line"/>
      <point x="151.02409638554218" y="612.2289156626506" type="line"/>
      <point x="-190.3734939759036" y="-24.650602409638555" type="line"/>
    </contour>
  </outline>
</glyph>
<glyph name="Omega" format="2">
  <advance width="823.9036144578314"/>
  <unicode hex="03A9"/>
  <outline>
    <contour>
      <point x="31.89156626506024" y="0.0" type="line"/>
      <point x="363.2409638554217" y="0.0" type="line"/>
      <point x="363.2409638554217" y="142.50602409638554" type="line"/>
      <point x="277.86746987951807" y="206.8192771084337"/>
      <point x="233.80722891566265" y="288.4096385542168"/>
      <point x="233.80722891566265" y="380.89156626506025" type="curve" smooth="yes"/>
      <point x="233.80722891566265" y="497.2650602409639"/>
      <point x="303.3975903614458" y="561.5783132530121"/>
      <point x="412.13253012048193" y="561.5783132530121" type="curve" smooth="yes"/>
      <point x="520.8674698795181" y="561.5783132530121"/>
      <point x="590.0963855421686" y="497.26506024096386"/>
      <point x="590.0963855421686" y="380.89156626506025" type="curve" smooth="yes"/>
      <point x="590.0963855421686" y="288.4096385542168"/>
      <point x="546.0361445783133" y="206.8192771084337"/>
      <point x="460.6626506024096" y="142.50602409638554" type="curve"/>
      <point x="460.6626506024096" y="0.0" type="line"/>
      <point x="792.0120481927711" y="0.0" type="line"/>
      <point x="792.0120481927711" y="146.86746987951807" type="line"/>
      <point x="559.566265060241" y="146.86746987951807" type="line"/>
      <point x="559.566265060241" y="103.28915662650601" type="line"/>
      <point x="721.3975903614457" y="169.7951807228916"/>
      <point x="780.9277108433735" y="271.855421686747"/>
      <point x="780.9277108433735" y="408.7469879518072" type="curve" smooth="yes"/>
      <point x="780.9277108433735" y="598.9156626506025"/>
      <point x="622.5180722891566" y="715.6385542168674"/>
      <point x="412.13253012048193" y="715.6385542168674" type="curve" smooth="yes"/>
      <point x="201.3855421686747" y="715.6385542168674"/>
      <point x="42.97590361445783" y="598.9156626506024"/>
      <point x="42.97590361445783" y="408.7469879518072" type="curve" smooth="yes"/>
      <point x="42.97590361445783" y="271.855421686747"/>
      <point x="102.86746987951807" y="169.7951807228916"/>
      <point x="264.6987951807229" y="103.28915662650601" type="curve"/>
      <point x="264.6987951807229" y="146.86746987951807" type="line"/>
      <point x="31.89156626506024" y="146.86746987951807" type="line"/>
    </contour>
  </outline>
</glyph>
<glyph name="mu" format="2">
  <advance width="600.710843373494"/>
  <unicode hex="03BC"/>
  <outline>
    <contour>
      <point x="49.22891566265061" y="-180.0" type="line"/>
      <point x="227.2289156626506" y="-180.0" type="line"/>
      <point x="213.3975903614458" y="31.204819277108435" type="line"/>
      <point x="213.6024096385542" y="31.204819277108435" type="line"/>
      <point x="229.13253012048193" y="2.168674698795181"/>
      <point x="249.5421686746988" y="-11.27710843373494"/>
      <point x="284.3132530120482" y="-11.27710843373494" type="curve" smooth="yes"/>
      <point x="324.710843373494" y="-11.27710843373494"/>
      <point x="364.6746987951807" y="25.433734939759038"/>
      <point x="374.28915662650604" y="90.40963855421687" type="curve"/>
      <point x="375.3975903614458" y="90.40963855421687" type="line"/>
      <point x="375.3975903614458" y="0.0" type="line"/>
      <point x="549.1204819277109" y="0.0" type="line"/>
      <point x="549.1204819277109" y="542.1927710843374" type="line"/>
      <point x="371.12048192771084" y="542.1927710843374" type="line"/>
      <point x="371.12048192771084" y="226.46987951807228" type="line" smooth="yes"/>
      <point x="371.12048192771084" y="161.1686746987952"/>
      <point x="335.43373493975906" y="126.21686746987953"/>
      <point x="289.2289156626506" y="126.21686746987953" type="curve" smooth="yes"/>
      <point x="247.56626506024097" y="126.21686746987953"/>
      <point x="227.2289156626506" y="151.0963855421687"/>
      <point x="227.2289156626506" y="206.3855421686747" type="curve" smooth="yes"/>
      <point x="227.2289156626506" y="542.1927710843374" type="line"/>
      <point x="49.22891566265061" y="542.1927710843374" type="line"/>
    </contour>
  </outline>
</glyph>
<glyph name="Dje-cy" format="2">
  <advance width="903.8433734939758"/>
  <unicode hex="0402"/>
  <outline>
    <contour>
      <point x="604.0481927710844" y="-191.27710843373492" type="curve" smooth="yes"/>
      <point x="753.5421686746988" y="-191.27710843373492"/>
      <point x="857.5903614457832" y="-96.53012048192771"/>
      <point x="857.5903614457832" y="70.85542168674698" type="curve" smooth="yes"/>
      <point x="857.5903614457832" y="146.0" type="line" smooth="yes"/>
      <point x="857.5903614457832" y="352.0240963855422"/>
      <point x="741.0963855421687" y="450.3012048192771"/>
      <point x="541.156626506024" y="450.3012048192771" type="curve" smooth="yes"/>
      <point x="493.4578313253012" y="450.3012048192771"/>
      <point x="441.8433734939759" y="440.855421686747"/>
      <point x="413.9518072289157" y="429.6024096385542" type="curve"/>
      <point x="413.9518072289157" y="555.2168674698795" type="line"/>
      <point x="638.0722891566265" y="555.2168674698795" type="line"/>
      <point x="638.0722891566265" y="705.0" type="line"/>
      <point x="6.27710843373494" y="705.0" type="line"/>
      <point x="6.27710843373494" y="555.2168674698795" type="line"/>
      <point x="230.39759036144576" y="555.2168674698795" type="line"/>
      <point x="230.39759036144576" y="0.0" type="line"/>
      <point x="413.9518072289157" y="0.0" type="line"/>
      <point x="413.9518072289157" y="276.45783132530124" type="line"/>
      <point x="443.9277108433735" y="289.433734939759"/>
      <point x="482.9036144578313" y="296.2409638554217"/>
      <point x="518.2168674698795" y="296.2409638554217" type="curve" smooth="yes"/>
      <point x="613.2289156626507" y="296.2409638554217"/>
      <point x="674.0361445783133" y="251.65060240963854"/>
      <point x="674.0361445783133" y="140.0" type="curve" smooth="yes"/>
      <point x="674.0361445783133" y="62.662650602409634" type="line" smooth="yes"/>
      <point x="674.0361445783133" y="-7.349397590361448"/>
      <point x="637.7831325301205" y="-49.04819277108433"/>
      <point x="581.1084337349398" y="-49.04819277108433" type="curve" smooth="yes"/>
      <point x="552.578313253012" y="-49.04819277108433"/>
      <point x="524.4939759036145" y="-44.68674698795181"/>
      <point x="501.13253012048193" y="-38.2409638554217" type="curve"/>
      <point x="473.3855421686747" y="-170.27710843373492" type="line"/>
      <point x="508.5783132530121" y="-183.27710843373495"/>
      <point x="554.4939759036145" y="-191.27710843373492"/>
    </contour>
  </outline>
</glyph>
<glyph name="E-cy" format="2">
  <advance width="687.3012048192771"/>
  <unicode hex="0404"/>
  <anchor x="398.0240963855422" y="0.0" name="bottom"/>
  <anchor x="397.7469879518072" y="705.0" name="top"/>
  <outline>
    <contour>
      <point x="420.3253012048193" y="-11.27710843373494" type="curve" smooth="yes"/>
      <point x="513.4096385542168" y="-11.27710843373494"/>
      <point x="606.8795180722892" y="20.08433734939759"/>
      <point x="659.9638554216867" y="67.33734939759037" type="curve"/>
      <point x="605.1927710843373" y="212.12048192771084" type="line"/>
      <point x="546.4698795180723" y="168.78313253012047"/>
      <point x="488.6626506024096" y="149.33734939759034"/>
      <point x="426.87951807228916" y="149.33734939759034" type="curve" smooth="yes"/>
      <point x="317.144578313253" y="149.33734939759034"/>
      <point x="246.72289156626505" y="205.71084337349396"/>
      <point x="236.53012048192772" y="332.2530120481928" type="curve"/>
      <point x="186.3975903614458" y="288.20481927710847" type="line"/>
      <point x="518.9397590361446" y="288.20481927710847" type="line"/>
      <point x="518.9397590361446" y="429.7951807228916" type="line"/>
      <point x="189.03614457831327" y="429.7951807228916" type="line"/>
      <point x="238.1686746987952" y="386.9397590361446" type="line"/>
      <point x="248.72289156626505" y="497.01204819277115"/>
      <point x="317.144578313253" y="555.6626506024097"/>
      <point x="426.87951807228916" y="555.6626506024097" type="curve" smooth="yes"/>
      <point x="488.6626506024096" y="555.6626506024097"/>
      <point x="546.4698795180723" y="536.2168674698795"/>
      <point x="605.1927710843373" y="492.8795180722892" type="curve"/>
      <point x="659.9638554216867" y="637.6626506024097" type="line"/>
      <point x="606.8795180722892" y="685.277108433735"/>
      <point x="513.4096385542168" y="716.277108433735"/>
      <point x="420.3253012048193" y="716.277108433735" type="curve" smooth="yes"/>
      <point x="186.27710843373492" y="716.277108433735"/>
      <point x="45.6987951807229" y="572.722891566265"/>
      <point x="45.6987951807229" y="353.0" type="curve" smooth="yes"/>
      <point x="45.6987951807229" y="132.27710843373492"/>
      <point x="186.27710843373492" y="-11.27710843373494"/>
    </contour>
  </outline>
</glyph>
<glyph name="Be-cy" format="2">
  <advance width="688.3253012048192"/>
  <unicode hex="0411"/>
  <outline>
    <contour>
      <point x="64.2289156626506" y="0.0" type="line"/>
      <point x="413.87951807228916" y="0.0" type="line" smooth="yes"/>
      <point x="567.0722891566264" y="0.0"/>
      <point x="661.5421686746988" y="77.10843373493977"/>
      <point x="661.5421686746988" y="215.57831325301203" type="curve" smooth="yes"/>
      <point x="661.5421686746988" y="354.0481927710843"/>
      <point x="567.0722891566264" y="430.7951807228916"/>
      <point x="413.87951807228916" y="430.7951807228916" type="curve" smooth="yes"/>
      <point x="239.59036144578315" y="430.7951807228916" type="line"/>
      <point x="239.59036144578315" y="563.4096385542168" type="line"/>
      <point x="589.3493975903615" y="563.4096385542168" type="line"/>
      <point x="589.3493975903615" y="705.0" type="line"/>
      <point x="64.2289156626506" y="705.0" type="line"/>
    </contour>
    <contour>
      <point x="239.59036144578315" y="139.03614457831324" type="line"/>
      <point x="239.59036144578315" y="291.7590361445783" type="line"/>
      <point x="388.9397590361446" y="291.7590361445783" type="line" smooth="yes"/>
      <point x="457.2289156626506" y="291.7590361445783"/>
      <point x="487.0963855421686" y="267.0602409638554"/>
      <point x="487.0963855421686" y="215.57831325301206" type="curve" smooth="yes"/>
      <point x="487.0963855421686" y="163.73493975903614"/>
      <point x="457.2289156626506" y="139.03614457831324"/>
      <point x="388.9397590361446" y="139.03614457831324" type="curve" smooth="yes"/>
    </contour>
  </outline>
</glyph>
<glyph name="De-cy" format="2">
  <advance width="823.9036144578314"/>
  <unicode hex="0414"/>
  <outline>
    <contour>
      <point x="10.80722891566265" y="-174.57831325301203" type="line"/>
      <point x="170.14457831325302" y="-174.57831325301203" type="line"/>
      <point x="170.14457831325302" y="0.0" type="line"/>
      <point x="642.566265060241" y="0.0" type="line"/>
      <point x="642.566265060241" y="-174.57831325301203" type="line"/>
      <point x="801.9036144578313" y="-174.57831325301203" type="line"/>
      <point x="801.9036144578313" y="142.2289156626506" type="line"/>
      <point x="701.9036144578313" y="142.2289156626506" type="line"/>
      <point x="701.9036144578313" y="705.0" type="line"/>
      <point x="165.86746987951807" y="705.0" type="line"/>
      <point x="165.86746987951807" y="517.8072289156627" type="line" smooth="yes"/>
      <point x="165.86746987951807" y="337.79518072289153"/>
      <point x="138.42168674698794" y="213.28915662650604"/>
      <point x="82.0843373493976" y="142.2289156626506" type="curve"/>
      <point x="10.80722891566265" y="142.2289156626506" type="line"/>
    </contour>
    <contour>
      <point x="264.4457831325301" y="142.2289156626506" type="line"/>
      <point x="310.86746987951807" y="218.3734939759036"/>
      <point x="334.67469879518075" y="334.2409638554217"/>
      <point x="334.67469879518075" y="498.144578313253" type="curve" smooth="yes"/>
      <point x="334.67469879518075" y="563.4096385542168" type="line"/>
      <point x="517.9879518072289" y="563.4096385542168" type="line"/>
      <point x="517.9879518072289" y="142.2289156626506" type="line"/>
    </contour>
  </outline>
</glyph>
<glyph name="Ze-cy" format="2">
  <advance width="627.6144578313254"/>
  <unicode hex="0417"/>
  <anchor x="309.5301204819277" y="0.0" name="bottom"/>
  <anchor x="299.6987951807229" y="705.0" name="top"/>
  <outline>
    <contour>
      <point x="294.4216867469879" y="-11.27710843373494" type="curve" smooth="yes"/>
      <point x="493.0" y="-11.27710843373494"/>
      <point x="587.1084337349397" y="76.46987951807229"/>
      <point x="587.1084337349397" y="200.19277108433735" type="curve" smooth="yes"/>
      <point x="587.1084337349397" y="293.6385542168675"/>
      <point x="532.9397590361446" y="355.0"/>
      <point x="437.2168674698795" y="373.1927710843374" type="curve"/>
      <point x="437.2168674698795" y="356.91566265060237" type="line"/>
      <point x="518.0240963855422" y="377.5542168674699"/>
      <point x="568.8313253012049" y="439.1927710843374"/>
      <point x="568.8313253012049" y="522.6385542168674" type="curve" smooth="yes"/>
      <point x="568.8313253012049" y="634.0843373493975"/>
      <point x="481.91566265060237" y="716.277108433735"/>
      <point x="302.6144578313253" y="716.277108433735" type="curve" smooth="yes"/>
      <point x="192.86746987951807" y="716.277108433735"/>
      <point x="95.86746987951807" y="686.9156626506024"/>
      <point x="32.2289156626506" y="639.6626506024097" type="curve"/>
      <point x="83.72289156626506" y="505.3493975903614" type="line"/>
      <point x="134.97590361445785" y="543.4096385542169"/>
      <point x="208.06024096385542" y="565.4939759036145"/>
      <point x="279.6746987951807" y="565.4939759036145" type="curve" smooth="yes"/>
      <point x="357.87951807228916" y="565.4939759036145"/>
      <point x="389.4698795180723" y="535.710843373494"/>
      <point x="389.4698795180723" y="494.144578313253" type="curve" smooth="yes"/>
      <point x="389.4698795180723" y="448.3012048192771"/>
      <point x="359.87951807228916" y="428.43373493975906"/>
      <point x="292.31325301204816" y="428.43373493975906" type="curve" smooth="yes"/>
      <point x="140.86746987951807" y="428.43373493975906" type="line"/>
      <point x="140.86746987951807" y="287.20481927710847" type="line"/>
      <point x="310.5903614457832" y="287.20481927710847" type="line" smooth="yes"/>
      <point x="378.87951807228916" y="287.20481927710847"/>
      <point x="408.7469879518072" y="264.78313253012044"/>
      <point x="408.7469879518072" y="220.13253012048193" type="curve" smooth="yes"/>
      <point x="408.7469879518072" y="164.65060240963857"/>
      <point x="367.3253012048193" y="139.86746987951807"/>
      <point x="277.3975903614458" y="139.86746987951807" type="curve" smooth="yes"/>
      <point x="193.97590361445785" y="139.86746987951807"/>
      <point x="121.6144578313253" y="162.3132530120482"/>
      <point x="70.0" y="200.73493975903614" type="curve"/>
      <point x="18.50602409638554" y="66.06024096385542" type="line"/>
      <point x="91.53012048192771" y="16.89156626506024"/>
      <point x="177.6987951807229" y="-11.27710843373494"/>
    </contour>
  </outline>
</glyph>
<glyph name="Che-cy" format="2">
  <advance width="721.2650602409639"/>
  <unicode hex="0427"/>
  <anchor x="484.5903614457832" y="0.0" name="bottomright"/>
  <anchor x="307.91566265060237" y="295.0" name="center"/>
  <anchor x="346.96385542168673" y="705.0" name="top"/>
  <outline>
    <contour>
      <point x="473.48192771084337" y="0.0" type="line"/>
      <point x="657.0361445783133" y="0.0" type="line"/>
      <point x="657.0361445783133" y="705.0" type="line"/>
      <point x="473.48192771084337" y="705.0" type="line"/>
      <point x="473.48192771084337" y="401.04819277108436" type="line"/>
      <point x="442.06024096385545" y="387.34939759036143"/>
      <point x="401.27710843373495" y="380.9036144578313"/>
      <point x="366.68674698795184" y="380.9036144578313" type="curve" smooth="yes"/>
      <point x="276.03614457831327" y="380.9036144578313"/>
      <point x="230.1686746987952" y="425.49397590361446"/>
      <point x="230.1686746987952" y="537.1445783132531" type="curve" smooth="yes"/>
      <point x="230.1686746987952" y="705.0" type="line"/>
      <point x="46.614457831325296" y="705.0" type="line"/>
      <point x="46.614457831325296" y="531.1445783132531" type="line" smooth="yes"/>
      <point x="46.614457831325296" y="325.48192771084337"/>
      <point x="154.36144578313252" y="226.84337349397592"/>
      <point x="343.7469879518072" y="226.84337349397592" type="curve" smooth="yes"/>
      <point x="391.44578313253015" y="226.84337349397592"/>
      <point x="443.86746987951807" y="235.92771084337346"/>
      <point x="473.48192771084337" y="247.5421686746988" type="curve"/>
    </contour>
  </outline>
</glyph>
<glyph name="Yeru-cy" format="2">
  <advance width="956.5542168674699"/>
  <unicode hex="042B"/>
  <anchor x="478.4578313253012" y="705.0" name="top"/>
  <outline>
    <contour>
      <point x="64.2289156626506" y="0.0" type="line"/>
      <point x="383.87951807228916" y="0.0" type="line" smooth="yes"/>
      <point x="537.0722891566265" y="0.0"/>
      <point x="631.5421686746988" y="77.10843373493977"/>
      <point x="631.5421686746988" y="215.57831325301203" type="curve" smooth="yes"/>
      <point x="631.5421686746988" y="354.0481927710843"/>
      <point x="537.0722891566265" y="430.7951807228916"/>
      <point x="383.87951807228916" y="430.7951807228916" type="curve" smooth="yes"/>
      <point x="247.7831325301205" y="430.7951807228916" type="line"/>
      <point x="247.7831325301205" y="705.0" type="line"/>
      <point x="64.2289156626506" y="705.0" type="line"/>
    </contour>
    <contour>
      <point x="247.7831325301205" y="139.03614457831324" type="line"/>
      <point x="247.7831325301205" y="291.7590361445783" type="line"/>
      <point x="358.9397590361446" y="291.7590361445783" type="line" smooth="yes"/>
      <point x="427.2289156626506" y="291.7590361445783"/>
      <point x="457.0963855421687" y="267.0602409638554"/>
      <point x="457.0963855421687" y="215.57831325301206" type="curve" smooth="yes"/>
      <point x="457.0963855421687" y="163.73493975903614"/>
      <point x="427.2289156626506" y="139.03614457831324"/>
      <point x="358.9397590361446" y="139.03614457831324" type="curve" smooth="yes"/>
    </contour>
    <contour>
      <point x="708.7710843373494" y="0.0" type="line"/>
      <point x="892.3253012048192" y="0.0" type="line"/>
      <point x="892.3253012048192" y="705.0" type="line"/>
      <point x="708.7710843373494" y="705.0" type="line"/>
    </contour>
  </outline>
</glyph>
<glyph name="Ereversed-cy" format="2">
  <advance width="687.3012048192771"/>
  <unicode hex="042D"/>
  <anchor x="312.3012048192771" y="0.0" name="bottom"/>
  <anchor x="312.3012048192771" y="705.0" name="top"/>
  <outline>
    <contour>
      <point x="266.9759036144578" y="-11.27710843373494" type="curve" smooth="yes"/>
      <point x="501.0240963855422" y="-11.27710843373494"/>
      <point x="641.6024096385543" y="132.27710843373492"/>
      <point x="641.6024096385543" y="353.0" type="curve" smooth="yes"/>
      <point x="641.6024096385543" y="572.722891566265"/>
      <point x="501.0240963855422" y="716.277108433735"/>
      <point x="276.9759036144578" y="716.277108433735" type="curve" smooth="yes"/>
      <point x="183.89156626506025" y="716.277108433735"/>
      <point x="90.42168674698794" y="685.277108433735"/>
      <point x="27.337349397590366" y="637.6626506024097" type="curve"/>
      <point x="82.10843373493975" y="492.8795180722892" type="line"/>
      <point x="150.83132530120483" y="539.4939759036145"/>
      <point x="208.63855421686748" y="555.6626506024097"/>
      <point x="270.4216867469879" y="555.6626506024097" type="curve" smooth="yes"/>
      <point x="370.1566265060241" y="555.6626506024097"/>
      <point x="438.578313253012" y="497.01204819277115"/>
      <point x="449.13253012048193" y="386.9397590361446" type="curve"/>
      <point x="498.26506024096386" y="429.7951807228916" type="line"/>
      <point x="168.36144578313255" y="429.7951807228916" type="line"/>
      <point x="168.36144578313255" y="288.20481927710847" type="line"/>
      <point x="500.9036144578313" y="288.20481927710847" type="line"/>
      <point x="450.77108433734935" y="332.2530120481928" type="line"/>
      <point x="440.5783132530121" y="205.71084337349396"/>
      <point x="370.1566265060241" y="149.33734939759034"/>
      <point x="260.4216867469879" y="149.33734939759034" type="curve" smooth="yes"/>
      <point x="198.63855421686748" y="149.33734939759034"/>
      <point x="140.83132530120483" y="168.78313253012047"/>
      <point x="82.10843373493975" y="212.12048192771084" type="curve"/>
      <point x="27.337349397590366" y="67.33734939759037" type="line"/>
      <point x="80.42168674698794" y="20.08433734939759"/>
      <point x="173.89156626506025" y="-11.27710843373494"/>
    </contour>
  </outline>
</glyph>
<glyph name="Iu-cy" format="2">
  <advance width="1086.867469879518"/>
  <unicode hex="042E"/>
  <outline>
    <contour>
      <point x="692.3734939759036" y="-11.27710843373494" type="curve" smooth="yes"/>
      <point x="901.9518072289156" y="-11.27710843373494"/>
      <point x="1041.5301204819277" y="133.27710843373492"/>
      <point x="1041.5301204819277" y="353.0" type="curve" smooth="yes"/>
      <point x="1041.5301204819277" y="572.0843373493976"/>
      <point x="902.9518072289156" y="716.277108433735"/>
      <point x="692.3734939759036" y="716.277108433735" type="curve" smooth="yes"/>
      <point x="509.73493975903614" y="716.277108433735"/>
      <point x="382.34939759036143" y="606.6626506024096"/>
      <point x="352.04819277108436" y="432.07228915662654" type="curve"/>
      <point x="247.7831325301205" y="432.07228915662654" type="line"/>
      <point x="247.7831325301205" y="705.0" type="line"/>
      <point x="64.2289156626506" y="705.0" type="line"/>
      <point x="64.2289156626506" y="0.0" type="line"/>
      <point x="247.7831325301205" y="0.0" type="line"/>
      <point x="247.7831325301205" y="282.28915662650604" type="line"/>
      <point x="351.0481927710843" y="282.28915662650604" type="line"/>
      <point x="378.9879518072289" y="102.6987951807229"/>
      <point x="507.73493975903614" y="-11.27710843373494"/>
    </contour>
    <contour>
      <point x="693.0120481927711" y="142.78313253012047" type="curve" smooth="yes"/>
      <point x="593.9156626506024" y="142.78313253012047"/>
      <point x="535.3253012048193" y="220.8192771084337"/>
      <point x="535.3253012048193" y="353.0" type="curve" smooth="yes"/>
      <point x="535.3253012048193" y="485.5421686746988"/>
      <point x="593.277108433735" y="562.2168674698795"/>
      <point x="693.0120481927711" y="562.2168674698795" type="curve" smooth="yes"/>
      <point x="792.4698795180723" y="562.2168674698795"/>
      <point x="850.6987951807229" y="484.9036144578313"/>
      <point x="850.6987951807229" y="353.0" type="curve" smooth="yes"/>
      <point x="850.6987951807229" y="221.4578313253012"/>
      <point x="792.1084337349397" y="142.78313253012047"/>
    </contour>
  </outline>
</glyph>
<glyph name="be-cy" format="2">
  <advance width="619.3734939759037"/>
  <unicode hex="0431"/>
  <outline>
    <contour>
      <point x="317.2409638554217" y="-11.27710843373494" type="curve" smooth="yes"/>
      <point x="473.45783132530124" y="-11.27710843373494"/>
      <point x="581.3975903614457" y="89.0"/>
      <point x="581.3975903614457" y="253.0722891566265" type="curve" smooth="yes"/>
      <point x="581.3975903614457" y="408.9518072289157"/>
      <point x="489.8433734939759" y="500.3975903614458"/>
      <point x="375.3132530120482" y="500.3975903614458" type="curve" smooth="yes"/>
      <point x="272.10843373493975" y="500.3975903614458"/>
      <point x="199.02409638554215" y="434.6506024096385"/>
      <point x="182.75903614457832" y="341.3855421686747" type="curve"/>
      <point x="204.6867469879518" y="341.3855421686747" type="line"/>
      <point x="204.6867469879518" y="412.43373493975906" type="line" smooth="yes"/>
      <point x="204.6867469879518" y="488.5783132530121"/>
      <point x="246.67469879518075" y="535.1807228915662"/>
      <point x="333.4578313253012" y="551.5301204819277" type="curve" smooth="yes"/>
      <point x="550.7590361445783" y="590.5180722891566" type="line"/>
      <point x="502.8072289156627" y="726.8313253012047" type="line"/>
      <point x="307.9638554216868" y="691.2048192771085" type="line" smooth="yes"/>
      <point x="135.20481927710844" y="658.5783132530121"/>
      <point x="37.97590361445783" y="570.1084337349397"/>
      <point x="37.97590361445783" y="380.8072289156626" type="curve" smooth="yes"/>
      <point x="37.97590361445783" y="285.2771084337349" type="line" smooth="yes"/>
      <point x="37.97590361445783" y="86.36144578313254"/>
      <point x="146.09638554216866" y="-11.27710843373494"/>
    </contour>
    <contour>
      <point x="310.5060240963856" y="120.12048192771084" type="curve" smooth="yes"/>
      <point x="253.20481927710844" y="120.12048192771084"/>
      <point x="216.97590361445782" y="158.6144578313253"/>
      <point x="216.97590361445782" y="245.14457831325302" type="curve" smooth="yes"/>
      <point x="216.97590361445782" y="330.5060240963855"/>
      <point x="253.38554216867468" y="368.8192771084337"/>
      <point x="309.68674698795184" y="368.8192771084337" type="curve" smooth="yes"/>
      <point x="366.16867469879514" y="368.8192771084337"/>
      <point x="402.3975903614458" y="330.5060240963855"/>
      <point x="402.3975903614458" y="244.24096385542165" type="curve" smooth="yes"/>
      <point x="402.3975903614458" y="157.6144578313253"/>
      <point x="367.16867469879514" y="120.12048192771084"/>
    </contour>
  </outline>
</glyph>
<glyph name="ve-cy" format="2">
  <advance width="594.1807228915662"/>
  <unicode hex="0432"/>
  <outline>
    <contour>
      <point x="60.14457831325302" y="0.0" type="line"/>
      <point x="358.07228915662654" y="0.0" type="line" smooth="yes"/>
      <point x="494.3855421686747" y="0.0"/>
      <point x="565.1204819277109" y="59.915662650602414"/>
      <point x="565.1204819277109" y="154.3734939759036" type="curve" smooth="yes"/>
      <point x="565.1204819277109" y="230.3734939759036"/>
      <point x="525.7831325301205" y="280.6385542168674"/>
      <point x="434.75903614457826" y="290.289156626506" type="curve"/>
      <point x="434.75903614457826" y="272.7349397590362" type="line"/>
      <point x="501.578313253012" y="285.92771084337346"/>
      <point x="546.2048192771084" y="333.83132530120486"/>
      <point x="546.2048192771084" y="400.5542168674699" type="curve" smooth="yes"/>
      <point x="546.2048192771084" y="487.3614457831325"/>
      <point x="494.2168674698795" y="542.1927710843374"/>
      <point x="350.07228915662654" y="542.1927710843374" type="curve" smooth="yes"/>
      <point x="60.14457831325302" y="542.1927710843374" type="line"/>
    </contour>
    <contour>
      <point x="223.39759036144576" y="104.18072289156626" type="line"/>
      <point x="223.39759036144576" y="225.32530120481928" type="line"/>
      <point x="338.13253012048193" y="225.32530120481928" type="line" smooth="yes"/>
      <point x="381.62650602409644" y="225.32530120481928"/>
      <point x="405.7831325301205" y="205.98795180722894"/>
      <point x="405.7831325301205" y="164.66265060240966" type="curve" smooth="yes"/>
      <point x="405.7831325301205" y="122.69879518072288"/>
      <point x="381.62650602409644" y="104.18072289156626"/>
      <point x="338.13253012048193" y="104.18072289156626" type="curve" smooth="yes"/>
    </contour>
    <contour>
      <point x="223.39759036144576" y="328.68674698795184" type="line"/>
      <point x="223.39759036144576" y="438.83132530120486" type="line"/>
      <point x="325.855421686747" y="438.83132530120486" type="line" smooth="yes"/>
      <point x="363.71084337349396" y="438.83132530120486"/>
      <point x="386.86746987951807" y="421.6746987951807"/>
      <point x="386.86746987951807" y="384.34939759036143" type="curve" smooth="yes"/>
      <point x="386.86746987951807" y="347.6626506024096"/>
      <point x="363.71084337349396" y="328.68674698795184"/>
      <point x="325.855421686747" y="328.68674698795184" type="curve" smooth="yes"/>
    </contour>
  </outline>
</glyph>
<glyph name="zhe-cy" format="2">
  <advance width="878.3614457831325"/>
  <unicode hex="0436"/>
  <anchor x="718.5783132530121" y="0.0" name="bottomright"/>
  <anchor x="439.18072289156623" y="484.0" name="top"/>
  <outline>
    <contour>
      <point x="-12.843373493975903" y="0.0" type="line"/>
      <point x="175.89156626506025" y="0.0" type="line"/>
      <point x="254.14457831325302" y="162.80722891566268" type="line" smooth="yes"/>
      <point x="269.6626506024096" y="195.3012048192771"/>
      <point x="287.4698795180723" y="207.56626506024094"/>
      <point x="316.69879518072287" y="207.56626506024094" type="curve" smooth="yes"/>
      <point x="350.3614457831325" y="207.56626506024094" type="line"/>
      <point x="350.3614457831325" y="0.0" type="line"/>
      <point x="528.3614457831326" y="0.0" type="line"/>
      <point x="528.3614457831326" y="207.56626506024094" type="line"/>
      <point x="562.843373493976" y="207.56626506024094" type="line" smooth="yes"/>
      <point x="591.710843373494" y="207.56626506024094"/>
      <point x="609.0602409638554" y="195.3012048192771"/>
      <point x="625.5783132530121" y="162.80722891566268" type="curve" smooth="yes"/>
      <point x="703.0120481927711" y="0.0" type="line"/>
      <point x="891.2048192771084" y="0.0" type="line"/>
      <point x="788.0120481927711" y="213.50602409638554" type="line" smooth="yes"/>
      <point x="760.4939759036146" y="271.45783132530124"/>
      <point x="718.0240963855422" y="312.3975903614458"/>
      <point x="666.1204819277108" y="319.7590361445784" type="curve"/>
      <point x="705.1566265060242" y="263.33734939759034" type="line"/>
      <point x="872.3975903614457" y="542.1927710843374" type="line"/>
      <point x="685.1204819277109" y="542.1927710843374" type="line"/>
      <point x="566.0120481927711" y="343.5180722891566" type="line"/>
      <point x="528.3614457831326" y="343.5180722891566" type="line"/>
      <point x="528.3614457831326" y="542.1927710843374" type="line"/>
      <point x="350.3614457831325" y="542.1927710843374" type="line"/>
      <point x="350.3614457831325" y="343.5180722891566" type="line"/>
      <point x="312.710843373494" y="343.5180722891566" type="line"/>
      <point x="193.24096385542168" y="542.1927710843374" type="line"/>
      <point x="5.963855421686748" y="542.1927710843374" type="line"/>
      <point x="174.3855421686747" y="263.33734939759034" type="line"/>
      <point x="212.24096385542168" y="319.7590361445784" type="line"/>
      <point x="160.1566265060241" y="312.3975903614458"/>
      <point x="119.04819277108432" y="271.45783132530124"/>
      <point x="90.71084337349399" y="213.50602409638554" type="curve" smooth="yes"/>
    </contour>
  </outline>
</glyph>
<glyph name="ze-cy" format="2">
  <advance width="546.4578313253012"/>
  <unicode hex="0437"/>
  <anchor x="275.6867469879518" y="0.0" name="bottom"/>
  <anchor x="265.855421686747" y="492.1927710843374" name="top"/>
  <outline>
    <contour>
      <point x="264.7710843373494" y="-11.27710843373494" type="curve" smooth="yes"/>
      <point x="423.6265060240964" y="-11.27710843373494"/>
      <point x="517.3975903614457" y="52.36144578313253"/>
      <point x="517.3975903614457" y="153.3734939759036" type="curve" smooth="yes"/>
      <point x="517.3975903614457" y="235.28915662650604"/>
      <point x="472.32530120481925" y="281.27710843373495"/>
      <point x="387.03614457831327" y="290.289156626506" type="curve"/>
      <point x="387.03614457831327" y="272.7349397590362" type="line"/>
      <point x="454.4939759036144" y="285.92771084337346"/>
      <point x="498.30120481927713" y="334.83132530120486"/>
      <point x="498.30120481927713" y="399.9156626506024" type="curve" smooth="yes"/>
      <point x="498.30120481927713" y="497.5542168674699"/>
      <point x="416.2771084337349" y="553.4698795180723"/>
      <point x="275.78313253012044" y="553.4698795180723" type="curve" smooth="yes"/>
      <point x="174.28915662650604" y="553.4698795180723"/>
      <point x="87.98795180722891" y="531.3734939759037"/>
      <point x="31.807228915662648" y="495.39759036144574" type="curve"/>
      <point x="74.4698795180723" y="380.65060240963857" type="line"/>
      <point x="120.27710843373495" y="407.1686746987952"/>
      <point x="175.0963855421687" y="425.34939759036143"/>
      <point x="245.4698795180723" y="425.34939759036143" type="curve" smooth="yes"/>
      <point x="316.3614457831326" y="425.34939759036143"/>
      <point x="338.9638554216868" y="407.37349397590367"/>
      <point x="338.9638554216868" y="377.69879518072287" type="curve" smooth="yes"/>
      <point x="338.9638554216868" y="349.8433734939759"/>
      <point x="318.0843373493976" y="334.78313253012044"/>
      <point x="281.22891566265054" y="334.78313253012044" type="curve" smooth="yes"/>
      <point x="153.0843373493976" y="334.78313253012044" type="line"/>
      <point x="153.0843373493976" y="213.95180722891564" type="line"/>
      <point x="295.144578313253" y="213.95180722891564" type="line" smooth="yes"/>
      <point x="336.99999999999994" y="213.95180722891564"/>
      <point x="358.24096385542174" y="198.0722891566265"/>
      <point x="358.24096385542174" y="168.03614457831324" type="curve" smooth="yes"/>
      <point x="358.24096385542174" y="132.26506024096386"/>
      <point x="326.5301204819277" y="116.56626506024097"/>
      <point x="264.5903614457831" y="116.56626506024097" type="curve" smooth="yes"/>
      <point x="192.95180722891567" y="116.56626506024097"/>
      <point x="115.37349397590363" y="135.10843373493975"/>
      <point x="68.37349397590361" y="166.9036144578313" type="curve"/>
      <point x="26.34939759036145" y="49.1566265060241" type="line"/>
      <point x="86.37349397590363" y="8.710843373493978"/>
      <point x="171.66265060240966" y="-11.27710843373494"/>
    </contour>
  </outline>
</glyph>
<glyph name="ii-cy" format="2">
  <advance width="628.2650602409639"/>
  <unicode hex="0438"/>
  <anchor x="407.86746987951807" y="0.0" name="bottomright"/>
  <anchor x="314.13253012048193" y="484.0" name="top"/>
  <outline>
    <contour>
      <point x="60.14457831325302" y="0.0" type="line"/>
      <point x="208.10843373493978" y="0.0" type="line"/>
      <point x="446.7951807228916" y="356.9879518072289" type="line"/>
      <point x="407.86746987951807" y="356.9879518072289" type="line"/>
      <point x="407.86746987951807" y="0.0" type="line"/>
      <point x="568.1204819277109" y="0.0" type="line"/>
      <point x="568.1204819277109" y="542.1927710843374" type="line"/>
      <point x="420.33734939759034" y="542.1927710843374" type="line"/>
      <point x="181.8313253012048" y="186.56626506024097" type="line"/>
      <point x="220.39759036144576" y="186.56626506024097" type="line"/>
      <point x="220.39759036144576" y="542.1927710843374" type="line"/>
      <point x="60.14457831325302" y="542.1927710843374" type="line"/>
    </contour>
  </outline>
</glyph>
<glyph name="ka-cy" format="2">
  <advance width="599.2289156626506"/>
  <unicode hex="043A"/>
  <anchor x="439.08433734939763" y="0.0" name="bottomright"/>
  <anchor x="294.0722891566265" y="272.27710843373495" name="center"/>
  <anchor x="327.43373493975906" y="484.0" name="top"/>
  <outline>
    <contour>
      <point x="60.14457831325302" y="0.0" type="line"/>
      <point x="238.144578313253" y="0.0" type="line"/>
      <point x="238.144578313253" y="207.56626506024094" type="line"/>
      <point x="283.3493975903615" y="207.56626506024094" type="line" smooth="yes"/>
      <point x="312.578313253012" y="207.56626506024094"/>
      <point x="329.56626506024094" y="195.3012048192771"/>
      <point x="346.0843373493976" y="162.80722891566268" type="curve" smooth="yes"/>
      <point x="423.51807228915663" y="0.0" type="line"/>
      <point x="612.0722891566265" y="0.0" type="line"/>
      <point x="508.51807228915663" y="213.50602409638554" type="line" smooth="yes"/>
      <point x="480.99999999999994" y="271.45783132530124"/>
      <point x="438.8915662650602" y="312.3975903614458"/>
      <point x="386.98795180722897" y="319.7590361445784" type="curve"/>
      <point x="427.10843373493975" y="263.33734939759034" type="line"/>
      <point x="593.2650602409639" y="542.1927710843374" type="line"/>
      <point x="405.98795180722897" y="542.1927710843374" type="line"/>
      <point x="286.51807228915663" y="343.5180722891566" type="line"/>
      <point x="238.144578313253" y="343.5180722891566" type="line"/>
      <point x="238.144578313253" y="542.1927710843374" type="line"/>
      <point x="60.14457831325302" y="542.1927710843374" type="line"/>
    </contour>
  </outline>
</glyph>
<glyph name="el-cy" format="2">
  <advance width="623.8192771084338"/>
  <unicode hex="043B"/>
  <anchor x="397.86746987951807" y="0.0" name="bottomright"/>
  <outline>
    <contour>
      <point x="63.74698795180723" y="-16.55421686746988" type="line"/>
      <point x="213.9879518072289" y="8.75903614457831"/>
      <point x="282.7590361445783" y="128.60240963855424"/>
      <point x="282.7590361445783" y="344.8915662650603" type="curve" smooth="yes"/>
      <point x="282.7590361445783" y="405.87951807228916" type="line"/>
      <point x="385.6746987951807" y="405.87951807228916" type="line"/>
      <point x="385.6746987951807" y="0.0" type="line"/>
      <point x="563.6746987951808" y="0.0" type="line"/>
      <point x="563.6746987951808" y="542.1927710843374" type="line"/>
      <point x="121.144578313253" y="542.1927710843374" type="line"/>
      <point x="121.144578313253" y="350.8072289156627" type="line" smooth="yes"/>
      <point x="121.144578313253" y="207.96385542168676"/>
      <point x="90.2289156626506" y="146.5421686746988"/>
      <point x="13.891566265060241" y="123.95180722891567" type="curve"/>
    </contour>
  </outline>
</glyph>
<glyph name="em-cy" format="2">
  <advance width="716.289156626506"/>
  <unicode hex="043C"/>
  <anchor x="500.16867469879514" y="0.0" name="bottomright"/>
  <outline>
    <contour>
      <point x="60.14457831325302" y="0.0" type="line"/>
      <point x="216.12048192771084" y="0.0" type="line"/>
      <point x="216.12048192771084" y="329.1566265060241" type="line"/>
      <point x="189.56626506024094" y="329.1566265060241" type="line"/>
      <point x="317.28915662650604" y="89.27710843373494" type="line"/>
      <point x="399.81927710843377" y="89.27710843373494" type="line"/>
      <point x="526.9036144578313" y="329.1566265060241" type="line"/>
      <point x="500.16867469879514" y="329.1566265060241" type="line"/>
      <point x="500.16867469879514" y="0.0" type="line"/>
      <point x="656.1445783132531" y="0.0" type="line"/>
      <point x="656.1445783132531" y="542.1927710843374" type="line"/>
      <point x="507.44578313253004" y="542.1927710843374" type="line"/>
      <point x="358.96385542168673" y="261.89156626506025" type="line"/>
      <point x="209.3855421686747" y="542.1927710843374" type="line"/>
      <point x="60.14457831325302" y="542.1927710843374" type="line"/>
    </contour>
  </outline>
</glyph>
<glyph name="te-cy" format="2">
  <advance width="508.12048192771084"/>
  <unicode hex="0442"/>
  <anchor x="177.25301204819277" y="0.0" name="bottomright"/>
  <outline>
    <contour>
      <point x="165.06024096385542" y="0.0" type="line"/>
      <point x="343.06024096385545" y="0.0" type="line"/>
      <point x="343.06024096385545" y="404.144578313253" type="line"/>
      <point x="499.566265060241" y="404.144578313253" type="line"/>
      <point x="499.566265060241" y="542.1927710843374" type="line"/>
      <point x="8.91566265060241" y="542.1927710843374" type="line"/>
      <point x="8.91566265060241" y="404.144578313253" type="line"/>
      <point x="165.06024096385542" y="404.144578313253" type="line"/>
    </contour>
  </outline>
</glyph>
<glyph name="ef-cy" format="2">
  <advance width="890.3614457831326"/>
  <unicode hex="0444"/>
  <outline>
    <contour>
      <point x="356.3614457831325" y="-180.0" type="line"/>
      <point x="534.3614457831325" y="-180.0" type="line"/>
      <point x="534.3614457831325" y="82.30120481927712" type="line"/>
      <point x="522.722891566265" y="82.30120481927712" type="line"/>
      <point x="545.1807228915662" y="25.614457831325304"/>
      <point x="596.4578313253012" y="-11.27710843373494"/>
      <point x="661.0843373493975" y="-11.27710843373494" type="curve" smooth="yes"/>
      <point x="772.0" y="-11.27710843373494"/>
      <point x="852.3855421686748" y="100.0"/>
      <point x="852.3855421686748" y="271.27710843373495" type="curve" smooth="yes"/>
      <point x="852.3855421686748" y="444.1927710843374"/>
      <point x="771.6385542168675" y="553.4698795180723"/>
      <point x="661.0843373493975" y="553.4698795180723" type="curve" smooth="yes"/>
      <point x="595.6385542168674" y="553.4698795180723"/>
      <point x="543.3614457831325" y="516.5783132530121"/>
      <point x="522.722891566265" y="459.89156626506025" type="curve"/>
      <point x="534.3614457831325" y="459.89156626506025" type="line"/>
      <point x="534.3614457831325" y="705.0" type="line"/>
      <point x="356.3614457831325" y="705.0" type="line"/>
      <point x="356.3614457831325" y="459.89156626506025" type="line"/>
      <point x="367.6385542168675" y="459.89156626506025" type="line"/>
      <point x="347.0" y="516.5783132530121"/>
      <point x="295.08433734939763" y="553.4698795180723"/>
      <point x="229.27710843373492" y="553.4698795180723" type="curve" smooth="yes"/>
      <point x="118.72289156626506" y="553.4698795180723"/>
      <point x="37.97590361445783" y="444.1927710843374"/>
      <point x="37.97590361445783" y="271.27710843373495" type="curve" smooth="yes"/>
      <point x="37.97590361445783" y="100.0"/>
      <point x="118.72289156626506" y="-11.27710843373494"/>
      <point x="229.27710843373492" y="-11.27710843373494" type="curve" smooth="yes"/>
      <point x="294.26506024096386" y="-11.27710843373494"/>
      <point x="346.3614457831325" y="25.614457831325304"/>
      <point x="367.6385542168675" y="82.30120481927712" type="curve"/>
      <point x="356.3614457831325" y="82.30120481927712" type="line"/>
    </contour>
    <contour>
      <point x="287.1686746987952" y="120.93975903614457" type="curve" smooth="yes"/>
      <point x="245.3132530120482" y="120.93975903614457"/>
      <point x="215.97590361445782" y="164.7951807228916"/>
      <point x="215.97590361445782" y="271.9156626506024" type="curve" smooth="yes"/>
      <point x="215.97590361445782" y="378.31325301204816"/>
      <point x="247.13253012048193" y="422.07228915662654"/>
      <point x="287.9879518072289" y="422.07228915662654" type="curve" smooth="yes"/>
      <point x="329.4819277108433" y="422.07228915662654"/>
      <point x="359.0" y="378.31325301204816"/>
      <point x="359.0" y="271.9156626506024" type="curve" smooth="yes"/>
      <point x="359.0" y="164.7951807228916"/>
      <point x="328.8433734939759" y="120.93975903614457"/>
    </contour>
    <contour>
      <point x="603.1927710843374" y="120.93975903614457" type="curve" smooth="yes"/>
      <point x="561.5180722891566" y="120.93975903614457"/>
      <point x="531.722891566265" y="164.7951807228916"/>
      <point x="531.722891566265" y="271.9156626506024" type="curve" smooth="yes"/>
      <point x="531.722891566265" y="378.31325301204816"/>
      <point x="560.8795180722892" y="422.07228915662654"/>
      <point x="602.3734939759037" y="422.07228915662654" type="curve" smooth="yes"/>
      <point x="644.0481927710844" y="422.07228915662654"/>
      <point x="674.3855421686748" y="378.31325301204816"/>
      <point x="674.3855421686748" y="271.9156626506024" type="curve" smooth="yes"/>
      <point x="674.3855421686748" y="164.7951807228916"/>
      <point x="645.0481927710844" y="120.93975903614457"/>
    </contour>
  </outline>
</glyph>
<glyph name="che-cy" format="2">
  <advance width="600.1807228915662"/>
  <unicode hex="0447"/>
  <anchor x="374.2289156626506" y="0.0" name="bottomright"/>
  <anchor x="290.4096385542168" y="220.18072289156626" name="center"/>
  <anchor x="290.4096385542168" y="484.0" name="top"/>
  <outline>
    <contour>
      <point x="365.9518072289157" y="0.0" type="line"/>
      <point x="540.0361445783133" y="0.0" type="line"/>
      <point x="540.0361445783133" y="542.1927710843374" type="line"/>
      <point x="362.0361445783132" y="542.1927710843374" type="line"/>
      <point x="362.0361445783132" y="309.5903614457831" type="line"/>
      <point x="346.89156626506025" y="300.5301204819277"/>
      <point x="327.1927710843374" y="296.7228915662651"/>
      <point x="305.87951807228916" y="296.7228915662651" type="curve" smooth="yes"/>
      <point x="241.20481927710844" y="296.7228915662651"/>
      <point x="218.14457831325302" y="325.6987951807229"/>
      <point x="218.14457831325302" y="396.65060240963857" type="curve" smooth="yes"/>
      <point x="218.14457831325302" y="542.1927710843374" type="line"/>
      <point x="40.144578313253014" y="542.1927710843374" type="line"/>
      <point x="40.144578313253014" y="379.90361445783134" type="line" smooth="yes"/>
      <point x="40.144578313253014" y="231.24096385542168"/>
      <point x="116.53012048192771" y="155.49397590361446"/>
      <point x="269.1927710843374" y="155.49397590361446" type="curve" smooth="yes"/>
      <point x="299.6144578313253" y="155.49397590361446"/>
      <point x="331.86746987951807" y="160.3012048192771"/>
      <point x="365.9518072289157" y="171.9156626506024" type="curve"/>
    </contour>
  </outline>
</glyph>
<glyph name="sha-cy" format="2">
  <advance width="870.9518072289156"/>
  <unicode hex="0448"/>
  <outline>
    <contour>
      <point x="60.14457831325302" y="0.0" type="line"/>
      <point x="810.8072289156627" y="0.0" type="line"/>
      <point x="810.8072289156627" y="542.1927710843374" type="line"/>
      <point x="644.9156626506025" y="542.1927710843374" type="line"/>
      <point x="644.9156626506025" y="136.3132530120482" type="line"/>
      <point x="518.4216867469879" y="136.3132530120482" type="line"/>
      <point x="518.4216867469879" y="542.1927710843374" type="line"/>
      <point x="352.5301204819277" y="542.1927710843374" type="line"/>
      <point x="352.5301204819277" y="136.3132530120482" type="line"/>
      <point x="226.03614457831327" y="136.3132530120482" type="line"/>
      <point x="226.03614457831327" y="542.1927710843374" type="line"/>
      <point x="60.14457831325302" y="542.1927710843374" type="line"/>
    </contour>
  </outline>
</glyph>
<glyph name="shcha-cy" format="2">
  <advance width="907.3373493975904"/>
  <unicode hex="0449"/>
  <outline>
    <contour>
      <point x="743.9397590361446" y="-130.0" type="line"/>
      <point x="894.0" y="-130.0" type="line"/>
      <point x="894.0" y="136.3132530120482" type="line"/>
      <point x="810.8072289156627" y="136.3132530120482" type="line"/>
      <point x="810.8072289156627" y="542.1927710843374" type="line"/>
      <point x="644.9156626506025" y="542.1927710843374" type="line"/>
      <point x="644.9156626506025" y="136.3132530120482" type="line"/>
      <point x="518.4216867469879" y="136.3132530120482" type="line"/>
      <point x="518.4216867469879" y="542.1927710843374" type="line"/>
      <point x="352.5301204819277" y="542.1927710843374" type="line"/>
      <point x="352.5301204819277" y="136.3132530120482" type="line"/>
      <point x="226.03614457831327" y="136.3132530120482" type="line"/>
      <point x="226.03614457831327" y="542.1927710843374" type="line"/>
      <point x="60.14457831325302" y="542.1927710843374" type="line"/>
      <point x="60.14457831325302" y="0.0" type="line"/>
      <point x="743.9397590361446" y="0.0" type="line"/>
    </contour>
  </outline>
</glyph>
<glyph name="hardsign-cy" format="2">
  <advance width="656.6265060240963"/>
  <unicode hex="044A"/>
  <outline>
    <contour>
      <point x="144.33734939759037" y="0.0" type="line"/>
      <point x="417.5301204819277" y="0.0" type="line" smooth="yes"/>
      <point x="551.722891566265" y="0.0"/>
      <point x="633.5662650602409" y="74.10843373493977"/>
      <point x="633.5662650602409" y="191.03614457831327" type="curve" smooth="yes"/>
      <point x="633.5662650602409" y="311.4216867469879"/>
      <point x="560.0963855421687" y="373.87951807228916"/>
      <point x="417.5301204819277" y="373.87951807228916" type="curve" smooth="yes"/>
      <point x="322.33734939759034" y="373.87951807228916" type="line"/>
      <point x="322.33734939759034" y="542.1927710843374" type="line"/>
      <point x="8.91566265060241" y="542.1927710843374" type="line"/>
      <point x="8.91566265060241" y="403.3253012048193" type="line"/>
      <point x="144.33734939759037" y="403.3253012048193" type="line"/>
    </contour>
    <contour>
      <point x="322.33734939759034" y="113.65060240963857" type="line"/>
      <point x="322.33734939759034" y="261.0481927710843" type="line"/>
      <point x="388.3975903614458" y="261.0481927710843" type="line" smooth="yes"/>
      <point x="443.8915662650602" y="261.0481927710843"/>
      <point x="471.5903614457832" y="237.89156626506025"/>
      <point x="471.5903614457832" y="187.93975903614458" type="curve" smooth="yes"/>
      <point x="471.5903614457832" y="138.44578313253012"/>
      <point x="442.07228915662654" y="113.65060240963857"/>
      <point x="388.3975903614458" y="113.65060240963857" type="curve" smooth="yes"/>
    </contour>
  </outline>
</glyph>
<glyph name="softsign-cy" format="2">
  <advance width="572.7951807228916"/>
  <unicode hex="044C"/>
  <outline>
    <contour>
      <point x="60.14457831325302" y="0.0" type="line"/>
      <point x="333.6987951807229" y="0.0" type="line" smooth="yes"/>
      <point x="467.89156626506025" y="0.0"/>
      <point x="549.7349397590361" y="74.10843373493977"/>
      <point x="549.7349397590361" y="191.03614457831327" type="curve" smooth="yes"/>
      <point x="549.7349397590361" y="311.4216867469879"/>
      <point x="475.90361445783134" y="373.87951807228916"/>
      <point x="333.6987951807229" y="373.87951807228916" type="curve" smooth="yes"/>
      <point x="238.144578313253" y="373.87951807228916" type="line"/>
      <point x="238.144578313253" y="542.1927710843374" type="line"/>
      <point x="60.14457831325302" y="542.1927710843374" type="line"/>
    </contour>
    <contour>
      <point x="238.144578313253" y="113.65060240963857" type="line"/>
      <point x="238.144578313253" y="261.0481927710843" type="line"/>
      <point x="304.566265060241" y="261.0481927710843" type="line" smooth="yes"/>
      <point x="359.6987951807229" y="261.0481927710843"/>
      <point x="387.7590361445783" y="237.89156626506025"/>
      <point x="387.7590361445783" y="187.93975903614458" type="curve" smooth="yes"/>
      <point x="387.7590361445783" y="138.44578313253012"/>
      <point x="358.24096385542174" y="113.65060240963857"/>
      <point x="304.566265060241" y="113.65060240963857" type="curve" smooth="yes"/>
    </contour>
  </outline>
</glyph>
